<svg width="21" height="20" viewBox="0 0 21 20" fill="none" xmlns="http://www.w3.org/2000/svg">
<g clip-path="url(#clip0_1336_36324)">
<path d="M20.0001 8.2077C19.9977 8.69063 19.9021 9.16856 19.7186 9.61527C19.5344 10.0632 19.2621 10.4695 18.9179 10.8101C18.5712 11.1558 18.1584 11.4281 17.7042 11.6109C17.2563 11.7977 16.7757 11.8934 16.2904 11.8924H5.00482C4.34319 11.8962 3.68738 11.7688 3.07531 11.5175C2.46324 11.2663 1.90707 10.8961 1.43898 10.4285C0.508285 9.48354 -0.00922957 8.20776 0.000124638 6.88145C0.00207117 6.22422 0.133459 5.5738 0.386778 4.96733C0.640096 4.36087 1.01039 3.81024 1.47651 3.34689C2.41179 2.40934 3.68053 1.88069 5.00482 1.87676C5.4264 1.8762 5.84651 1.92661 6.25599 2.0269C6.81598 1.38827 7.50741 0.87824 8.28289 0.53175C9.05737 0.181346 9.89765 6.93556e-05 10.7477 2.78043e-06C12.0924 -0.00129673 13.3978 0.452961 14.4512 1.28871C15.5082 2.11873 16.2517 3.28351 16.5594 4.59181C17.4722 4.65893 18.3269 5.06506 18.9554 5.73038C19.6022 6.39578 19.9751 7.28008 20.0001 8.2077Z" fill="url(#paint0_linear_1336_36324)"/>
<path d="M20.0001 8.83319C20.0004 9.31692 19.9048 9.79592 19.7191 10.2426C19.5333 10.6892 19.261 11.0947 18.9179 11.4356C18.5753 11.7779 18.1685 12.0491 17.7208 12.2337C17.2731 12.4184 16.7934 12.5128 16.3092 12.5116H5.00482C4.34363 12.5163 3.68808 12.3898 3.07603 12.1397C2.46399 11.8895 1.90759 11.5205 1.43898 11.054C0.508285 10.109 -0.00922957 8.83325 0.000124638 7.50694C0.00207117 6.8497 0.133459 6.19928 0.386778 5.59282C0.640096 4.98636 1.01039 4.43573 1.47651 3.97238C2.41179 3.03482 3.68053 2.50618 5.00482 2.50225C5.4264 2.50169 5.84651 2.5521 6.25599 2.65239C6.8177 2.01563 7.50869 1.50592 8.28289 1.15724C9.05737 0.806835 9.89765 0.625558 10.7477 0.625491C12.0924 0.624192 13.3978 1.07845 14.4512 1.9142C15.5082 2.74422 16.2517 3.909 16.5594 5.2173C17.4722 5.28441 18.3269 5.69055 18.9554 6.35586C19.6022 7.02127 19.9751 7.90557 20.0001 8.83319Z" fill="url(#paint1_linear_1336_36324)"/>
<mask id="mask0_1336_36324" style="mask-type:luminance" maskUnits="userSpaceOnUse" x="0" y="0" width="20" height="13">
<path d="M20.0001 8.83319C20.0004 9.31692 19.9048 9.79592 19.7191 10.2426C19.5333 10.6892 19.261 11.0947 18.9179 11.4356C18.5753 11.7779 18.1685 12.0491 17.7208 12.2337C17.2731 12.4184 16.7934 12.5128 16.3092 12.5116H5.00482C4.34363 12.5163 3.68808 12.3898 3.07603 12.1397C2.46399 11.8895 1.90759 11.5205 1.43898 11.054C0.508285 10.109 -0.00922957 8.83325 0.000124638 7.50694C0.00207117 6.8497 0.133459 6.19928 0.386778 5.59282C0.640096 4.98636 1.01039 4.43573 1.47651 3.97238C2.41179 3.03482 3.68053 2.50618 5.00482 2.50225C5.4264 2.50169 5.84651 2.5521 6.25599 2.65239C6.8177 2.01563 7.50869 1.50592 8.28289 1.15724C9.05737 0.806835 9.89765 0.625558 10.7477 0.625491C12.0924 0.624192 13.3978 1.07845 14.4512 1.9142C15.5082 2.74422 16.2517 3.909 16.5594 5.2173C17.4722 5.28441 18.3269 5.69055 18.9554 6.35586C19.6022 7.02127 19.9751 7.90557 20.0001 8.83319Z" fill="white"/>
</mask>
<g mask="url(#mask0_1336_36324)">
<path d="M9.89093 15.5519C11.7406 15.593 13.539 14.9415 14.9332 13.7252C15.5872 13.151 16.1154 12.4479 16.4847 11.6598C16.8539 10.8717 17.0563 10.0159 17.0789 9.14587C17.0531 8.27402 16.8469 7.41697 16.4733 6.62881C16.0996 5.84065 15.5667 5.13847 14.9081 4.56658C13.5139 3.35029 11.7156 2.69879 9.86591 2.73987C8.02875 2.70637 6.24483 3.3575 4.86122 4.56658C4.19996 5.13622 3.66522 5.83792 3.29136 6.62657C2.91751 7.41522 2.71281 8.27338 2.69043 9.14587C2.70276 10.0128 2.90341 10.8666 3.27848 11.6482C3.65766 12.4422 4.19149 13.1526 4.8487 13.7377C5.53066 14.3391 6.32028 14.8061 7.17588 15.114C8.04722 15.4219 8.96695 15.5703 9.89093 15.5519Z" fill="#FFE643"/>
<path d="M9.89102 13.1372C11.1131 13.1662 12.3058 12.7605 13.2567 11.9923C13.6888 11.6476 14.0416 11.2138 14.2909 10.7204C14.5403 10.2271 14.6804 9.68578 14.7018 9.1334C14.6811 8.57757 14.5408 8.03274 14.2903 7.5361C14.0398 7.03947 13.6851 6.60273 13.2504 6.25571C12.2998 5.49217 11.11 5.08893 9.89102 5.11714C8.67093 5.08853 7.48035 5.49426 6.53162 6.26196C6.09878 6.60561 5.74589 7.03933 5.49742 7.53301C5.24896 8.02669 5.11088 8.56851 5.09277 9.12089C5.10337 9.66068 5.23597 10.1911 5.48064 10.6723C5.73781 11.1755 6.09552 11.6205 6.53162 11.9798C6.99171 12.3599 7.51754 12.6525 8.08308 12.8431C8.66502 13.0416 9.27616 13.141 9.89102 13.1372Z" fill="#FFEA61"/>
</g>
<path d="M14.1816 14.3884H5.81748L5.29199 15.2392H14.6758L14.1816 14.3884Z" fill="url(#paint2_linear_1336_36324)"/>
<path d="M11.4483 3.63477H8.62061L8.08887 4.26035H11.9738L11.4483 3.63477Z" fill="url(#paint3_linear_1336_36324)"/>
<path d="M11.9549 15.258V4.24146H8.06996V15.258H5.31738L10.0155 19.9562L14.7074 15.258H11.9549Z" fill="url(#paint4_linear_1336_36324)"/>
</g>
<defs>
<linearGradient id="paint0_linear_1336_36324" x1="7.16309" y1="11.4607" x2="14.8953" y2="0.243982" gradientUnits="userSpaceOnUse">
<stop stop-color="#FFD836"/>
<stop offset="0.81" stop-color="#915406"/>
</linearGradient>
<linearGradient id="paint1_linear_1336_36324" x1="6.46243" y1="14.1319" x2="13.8068" y2="1.40747" gradientUnits="userSpaceOnUse">
<stop stop-color="#F9C133"/>
<stop offset="1" stop-color="#FFF03B"/>
</linearGradient>
<linearGradient id="paint2_linear_1336_36324" x1="10.5" y1="14.5" x2="10.5" y2="15.5" gradientUnits="userSpaceOnUse">
<stop stop-color="#00B8F9"/>
<stop offset="0.98" stop-color="#000FBC"/>
</linearGradient>
<linearGradient id="paint3_linear_1336_36324" x1="10.245" y1="3.7168" x2="10.245" y2="4.4521" gradientUnits="userSpaceOnUse">
<stop stop-color="#00B8F9"/>
<stop offset="0.98" stop-color="#000FBC"/>
</linearGradient>
<linearGradient id="paint4_linear_1336_36324" x1="10.5289" y1="6.30226" x2="10.5288" y2="24.7729" gradientUnits="userSpaceOnUse">
<stop stop-color="#00B8F9"/>
<stop offset="0.98" stop-color="#000FBC"/>
</linearGradient>
<clipPath id="clip0_1336_36324">
<rect width="20" height="19.9562" fill="white"/>
</clipPath>
</defs>
</svg>
