<svg width="21" height="20" viewBox="0 0 21 20" fill="none" xmlns="http://www.w3.org/2000/svg">
<g clip-path="url(#clip0_1297_45737)">
<g clip-path="url(#clip1_1297_45737)">
<path d="M18.8206 4.27621V5.77842H14.5283V4.27621C14.5283 3.93774 14.6628 3.61313 14.9021 3.37379C15.1414 3.13446 15.4661 3 15.8045 3H17.546C17.8627 2.99997 18.1681 3.11773 18.4028 3.33038C18.6375 3.54302 18.7847 3.83536 18.8158 4.15052C18.8182 4.19161 18.8206 4.23391 18.8206 4.27621Z" fill="#414865"/>
<g style="mix-blend-mode:multiply">
<path d="M18.8206 4.27615V5.77835H14.5283V4.30112C15.1189 3.79134 15.8658 3.49851 16.6455 3.47111C17.4252 3.44371 18.1909 3.68338 18.8158 4.15046C18.8182 4.19155 18.8206 4.23385 18.8206 4.27615Z" fill="#A8C1CC"/>
</g>
<path d="M6.23805 4.26332V5.77842H1.94534V4.27621C1.94494 4.2204 1.94884 4.16464 1.95702 4.10943C1.99686 3.80259 2.14706 3.52075 2.37955 3.31658C2.61205 3.11241 2.91093 2.99987 3.22034 3H4.96305C5.29912 3.0002 5.62154 3.13299 5.86027 3.36953C6.099 3.60608 6.23476 3.92726 6.23805 4.26332Z" fill="#414865"/>
<g style="mix-blend-mode:multiply">
<path d="M6.23805 4.26337V5.77846H1.94534V4.27626C1.94494 4.22045 1.94884 4.16469 1.95702 4.10948C2.58199 3.64511 3.34643 3.40735 4.12453 3.43532C4.90264 3.46329 5.64803 3.75533 6.23805 4.26337Z" fill="#A8C1CC"/>
</g>
<path d="M15.1511 4.82178H5.30078V10.8121H15.1511V4.82178Z" fill="#D0D6F3"/>
<path d="M10.0231 9.28196C10.0232 9.31957 10.0158 9.35682 10.0015 9.39159C9.98712 9.42636 9.96607 9.45797 9.93951 9.4846C9.91295 9.51124 9.8814 9.53238 9.84667 9.54682C9.81194 9.56127 9.77471 9.56873 9.7371 9.56878H8.4915C8.41745 9.566 8.34735 9.53463 8.29595 9.48126C8.24454 9.42788 8.21582 9.35666 8.21582 9.28256C8.21582 9.20845 8.24454 9.13723 8.29595 9.08386C8.34735 9.03049 8.41745 8.99912 8.4915 8.99634H9.7371C9.81285 8.99644 9.88548 9.02656 9.93908 9.08009C9.99268 9.13362 10.0229 9.2062 10.0231 9.28196Z" fill="#FF4539"/>
<path d="M8.27962 9.31378C8.27962 9.23782 8.30979 9.16496 8.36351 9.11125C8.41722 9.05754 8.49007 9.02736 8.56604 9.02736H9.81083C9.85141 9.02745 9.8915 9.03623 9.9284 9.05311C9.96529 9.07 9.99814 9.0946 10.0247 9.12525C9.99876 9.08561 9.96332 9.05306 9.92161 9.03055C9.87991 9.00805 9.83325 8.99629 9.78585 8.99634H8.54106C8.48597 8.99615 8.432 9.01193 8.38568 9.04176C8.33936 9.07159 8.30266 9.11419 8.28004 9.16443C8.25741 9.21466 8.24983 9.27038 8.25819 9.32483C8.26655 9.37929 8.2905 9.43016 8.32715 9.47129C8.29626 9.42456 8.27974 9.3698 8.27962 9.31378Z" fill="white"/>
<path d="M9.96302 9.05884C9.98143 9.10236 9.98878 9.14976 9.98443 9.19682C9.98007 9.24387 9.96414 9.28912 9.93806 9.32852C9.91198 9.36793 9.87655 9.40027 9.83493 9.42266C9.79332 9.44505 9.74681 9.45679 9.69956 9.45685H8.45436C8.39029 9.45664 8.3282 9.43461 8.27832 9.39441C8.3002 9.44618 8.33687 9.49034 8.38373 9.52137C8.4306 9.5524 8.48558 9.56891 8.54178 9.56884H9.78657C9.84603 9.56903 9.90407 9.55062 9.95256 9.51621C10.001 9.48179 10.0376 9.43307 10.057 9.37688C10.0764 9.32068 10.0778 9.25982 10.061 9.20279C10.0441 9.14577 10.0099 9.09544 9.96302 9.05884Z" fill="#EF2622"/>
<g style="mix-blend-mode:overlay" opacity="0.35">
<path d="M9.59958 8.99634C9.52458 9.02852 9.45425 9.07066 9.3905 9.12162C9.25917 9.22838 9.1488 9.3597 9.01425 9.46324C8.96268 9.5032 8.90768 9.53852 8.84989 9.56878H8.54131C8.46725 9.566 8.39716 9.53463 8.34575 9.48126C8.29434 9.42788 8.26562 9.35666 8.26562 9.28256C8.26562 9.20845 8.29434 9.13723 8.34575 9.08386C8.39716 9.03049 8.46725 8.99912 8.54131 8.99634H9.59958Z" fill="white"/>
</g>
<path d="M12.5397 9.28196C12.5398 9.35785 12.5098 9.43068 12.4563 9.48446C12.4027 9.53824 12.33 9.56857 12.2541 9.56878H11.0081C10.9341 9.566 10.864 9.53463 10.8126 9.48126C10.7611 9.42788 10.7324 9.35666 10.7324 9.28256C10.7324 9.20845 10.7611 9.13723 10.8126 9.08386C10.864 9.03049 10.9341 8.99912 11.0081 8.99634H12.2541C12.3298 8.99655 12.4023 9.02671 12.4558 9.08023C12.5093 9.13375 12.5395 9.20627 12.5397 9.28196Z" fill="#1BC0ED"/>
<path d="M10.7962 9.31378C10.7962 9.23782 10.8264 9.16496 10.8801 9.11125C10.9338 9.05754 11.0067 9.02736 11.0826 9.02736H12.3274C12.368 9.02745 12.4081 9.03623 12.445 9.05311C12.4819 9.07 12.5147 9.0946 12.5413 9.12525C12.5154 9.08561 12.4799 9.05306 12.4382 9.03055C12.3965 9.00805 12.3498 8.99629 12.3025 8.99634H11.0577C11.0026 8.99615 10.9486 9.01193 10.9023 9.04176C10.856 9.07159 10.8193 9.11419 10.7966 9.16443C10.774 9.21466 10.7664 9.27038 10.7748 9.32483C10.7831 9.37929 10.8071 9.43016 10.8438 9.47129C10.8129 9.42456 10.7963 9.3698 10.7962 9.31378Z" fill="white"/>
<path d="M12.4796 9.05884C12.4982 9.10235 12.5058 9.1498 12.5015 9.19694C12.4972 9.24408 12.4813 9.28942 12.4552 9.32888C12.4291 9.36835 12.3936 9.40071 12.3518 9.42304C12.3101 9.44538 12.2635 9.457 12.2162 9.45685H10.9714C10.9072 9.45673 10.8449 9.4347 10.7949 9.39441C10.8168 9.44618 10.8535 9.49034 10.9003 9.52137C10.9472 9.5524 11.0022 9.56891 11.0584 9.56884H12.3032C12.3626 9.56903 12.4207 9.55062 12.4692 9.51621C12.5176 9.48179 12.5542 9.43307 12.5736 9.37688C12.593 9.32068 12.5944 9.25982 12.5776 9.20279C12.5607 9.14577 12.5265 9.09544 12.4796 9.05884Z" fill="#0593E2"/>
<g style="mix-blend-mode:overlay" opacity="0.35">
<path d="M12.1166 8.99634C12.0414 9.02842 11.9709 9.07057 11.9071 9.12162C11.7758 9.22838 11.6654 9.3597 11.5308 9.46324C11.4794 9.50337 11.4244 9.5387 11.3665 9.56878H11.0579C10.9839 9.566 10.9138 9.53463 10.8624 9.48126C10.8109 9.42788 10.7822 9.35666 10.7822 9.28256C10.7822 9.20845 10.8109 9.13723 10.8624 9.08386C10.9138 9.03049 10.9839 8.99912 11.0579 8.99634H12.1166Z" fill="white"/>
</g>
<path d="M11.4845 7.42885C11.9934 6.85484 11.9407 5.97695 11.3667 5.46803C10.7927 4.95912 9.91476 5.01189 9.40585 5.5859C8.89693 6.15992 8.9497 7.0378 9.52371 7.54672C10.0977 8.05563 10.9756 8.00286 11.4845 7.42885Z" fill="#343A51"/>
<path d="M11.5684 6.50517C11.5684 6.72826 11.5023 6.94634 11.3783 7.13183C11.2544 7.31732 11.0782 7.4619 10.8721 7.54727C10.666 7.63264 10.4392 7.65498 10.2204 7.61146C10.0016 7.56793 9.80063 7.4605 9.64288 7.30276C9.48513 7.14501 9.3777 6.94402 9.33417 6.72522C9.29065 6.50642 9.31299 6.27962 9.39836 6.07351C9.48374 5.8674 9.62831 5.69124 9.8138 5.5673C9.99929 5.44336 10.2174 5.3772 10.4405 5.3772C10.6504 5.37656 10.8562 5.43521 11.0343 5.5464C11.1976 5.64751 11.3323 5.78864 11.4258 5.95643C11.5193 6.12422 11.5684 6.3131 11.5684 6.50517Z" fill="#262A3A"/>
<path d="M9.3879 6.50444C9.38858 6.21216 9.50269 5.93155 9.70618 5.72174C9.90968 5.51193 10.1867 5.3893 10.4788 5.3797C10.4667 5.3797 10.455 5.37769 10.4429 5.37769C10.1531 5.39111 9.87965 5.51569 9.67931 5.72552C9.47897 5.93536 9.36719 6.21432 9.36719 6.50444C9.36719 6.79456 9.47897 7.07352 9.67931 7.28336C9.87965 7.49319 10.1531 7.61777 10.4429 7.6312C10.455 7.6312 10.4667 7.6312 10.4788 7.6312C10.1863 7.62158 9.90904 7.49868 9.70548 7.28843C9.50193 7.07819 9.38806 6.79707 9.3879 6.50444Z" fill="white"/>
<g style="mix-blend-mode:overlay" opacity="0.35">
<path d="M11.0359 5.54761C10.8075 5.82437 10.6407 6.17968 10.5359 6.50316C10.4505 6.76904 10.4026 7.0478 10.2765 7.29716C10.2269 7.39898 10.161 7.49205 10.0815 7.57271C9.8297 7.48587 9.61672 7.31269 9.48034 7.08386C9.34395 6.85503 9.29295 6.58532 9.33638 6.32249C9.37981 6.05967 9.51486 5.82069 9.7176 5.64789C9.92035 5.4751 10.1777 5.37964 10.4441 5.37842C10.6533 5.37816 10.8584 5.43679 11.0359 5.54761Z" fill="white"/>
</g>
<path d="M7.32123 7.95286C7.32123 7.95286 5.55315 17.7794 2.4871 17.7794C-0.578945 17.7794 0.611058 6.93286 0.611058 6.93286L7.32123 7.95286Z" fill="#D0D6F3"/>
<path d="M13.4443 7.95286C13.4443 7.95286 15.2124 17.7794 18.2785 17.7794C21.3445 17.7794 20.1549 6.93286 20.1549 6.93286L13.4443 7.95286Z" fill="#D0D6F3"/>
<path d="M19.1559 8.36108C19.1559 8.36108 20.2033 16.2492 18.3619 16.7934C16.5205 17.3377 14.7178 8.73653 14.7178 8.73653L19.1559 8.36108Z" fill="#A7B3EB"/>
<path d="M1.59163 8.36108C1.59163 8.36108 0.544233 16.2492 2.38523 16.7934C4.22623 17.3377 6.02977 8.73653 6.02977 8.73653L1.59163 8.36108Z" fill="#A7B3EB"/>
<path d="M7.3674 7.9055C7.72538 6.04654 6.50859 4.24934 4.64963 3.89136C2.79066 3.53338 0.993466 4.75017 0.635486 6.60914C0.277505 8.46811 1.4943 10.2653 3.35326 10.6233C5.21223 10.9813 7.00942 9.76447 7.3674 7.9055Z" fill="#D0D6F3"/>
<path d="M4.16434 10.5231C3.49614 10.5233 2.84248 10.3281 2.28377 9.96154C1.72507 9.59501 1.2857 9.07314 1.01975 8.46014C0.753788 7.84715 0.672835 7.16978 0.786852 6.51137C0.900868 5.85297 1.20488 5.24226 1.66147 4.75439C1.3251 5.06821 1.05536 5.44654 0.868316 5.86683C0.681274 6.28711 0.580767 6.74076 0.572782 7.20072C0.564797 7.66067 0.649499 8.11753 0.82184 8.54406C0.994181 8.97058 1.25063 9.35805 1.57591 9.68335C1.90118 10.0087 2.28862 10.2651 2.71513 10.4375C3.14165 10.6099 3.5985 10.6946 4.05846 10.6867C4.51842 10.6787 4.97207 10.5783 5.39237 10.3913C5.81268 10.2043 6.19102 9.93454 6.50487 9.59819C5.87091 10.1933 5.03383 10.5241 4.16434 10.5231Z" fill="#C5CBE2"/>
<path d="M19.1875 9.68139C20.5261 8.34275 20.5261 6.17239 19.1875 4.83375C17.8488 3.49511 15.6785 3.49511 14.3398 4.83375C13.0012 6.17239 13.0012 8.34275 14.3398 9.68139C15.6785 11.02 17.8488 11.02 19.1875 9.68139Z" fill="#D0D6F3"/>
<path d="M16.9082 10.543C16.2389 10.5431 15.5843 10.3473 15.0251 9.97966C14.4659 9.61206 14.0265 9.08876 13.7613 8.47435C13.496 7.85994 13.4164 7.18131 13.5324 6.52221C13.6483 5.8631 13.9547 5.25237 14.4137 4.76538C14.0762 5.07896 13.8054 5.45736 13.6175 5.87798C13.4295 6.2986 13.3283 6.7528 13.3199 7.21342C13.3115 7.67404 13.396 8.13163 13.5685 8.55883C13.7409 8.98604 13.9978 9.37408 14.3236 9.69978C14.6494 10.0255 15.0376 10.2821 15.4648 10.4544C15.8921 10.6267 16.3497 10.711 16.8104 10.7024C17.271 10.6938 17.7251 10.5924 18.1457 10.4043C18.5662 10.2162 18.9445 9.94521 19.2579 9.60757C18.6233 10.2086 17.7823 10.5434 16.9082 10.543Z" fill="#C5CBE2"/>
<g style="mix-blend-mode:multiply">
<path d="M17.608 5.74899C17.6084 5.91639 17.5591 6.08015 17.4664 6.21953C17.3737 6.35892 17.2417 6.46766 17.0871 6.532C16.9326 6.59634 16.7624 6.61338 16.5982 6.58096C16.4339 6.54855 16.283 6.46814 16.1645 6.34991C16.046 6.23168 15.9652 6.08094 15.9324 5.91678C15.8996 5.75263 15.9162 5.58243 15.9802 5.42773C16.0442 5.27303 16.1526 5.14079 16.2918 5.04774C16.4309 4.9547 16.5946 4.90503 16.762 4.90503C16.986 4.90503 17.2009 4.99388 17.3595 5.1521C17.5181 5.31031 17.6074 5.52497 17.608 5.74899Z" fill="#B7B7B7"/>
</g>
<g style="mix-blend-mode:multiply" opacity="0.35">
<path d="M17.5669 6.00611C17.5122 6.17622 17.405 6.32459 17.2606 6.42984C17.1162 6.5351 16.9421 6.59181 16.7634 6.59181C16.5847 6.59181 16.4107 6.5351 16.2663 6.42984C16.1219 6.32459 16.0146 6.17622 15.96 6.00611C16.0146 5.836 16.1219 5.68763 16.2663 5.58238C16.4107 5.47712 16.5847 5.42041 16.7634 5.42041C16.9421 5.42041 17.1162 5.47712 17.2606 5.58238C17.405 5.68763 17.5122 5.836 17.5669 6.00611Z" fill="#757272"/>
</g>
<path d="M17.4488 5.74909C17.449 5.90852 17.3937 6.06305 17.2922 6.18604C17.1908 6.30903 17.0496 6.39277 16.893 6.42282C16.7364 6.45288 16.5743 6.42736 16.4345 6.35067C16.2947 6.27398 16.1861 6.15092 16.1273 6.00271C16.0686 5.85451 16.0633 5.69044 16.1126 5.5388C16.1618 5.38716 16.2624 5.25744 16.397 5.17202C16.5316 5.0866 16.6918 5.05082 16.85 5.07086C17.0082 5.0909 17.1544 5.16549 17.2635 5.28179C17.3828 5.40805 17.4492 5.57533 17.4488 5.74909Z" fill="#25CC44"/>
<path d="M16.8011 6.39355C16.6686 6.39263 16.5392 6.35327 16.4286 6.28026C16.318 6.20725 16.231 6.10372 16.1781 5.98222C16.1251 5.86073 16.1086 5.72649 16.1305 5.59578C16.1523 5.46507 16.2116 5.34352 16.3012 5.24585C16.2314 5.30785 16.1751 5.38345 16.1356 5.46801C16.0961 5.55257 16.0743 5.64431 16.0716 5.7376C16.0688 5.83088 16.0852 5.92375 16.1196 6.01048C16.1541 6.09722 16.2059 6.17601 16.2719 6.242C16.3379 6.30799 16.4166 6.3598 16.5034 6.39424C16.5901 6.42868 16.683 6.44503 16.7763 6.44229C16.8696 6.43954 16.9613 6.41776 17.0459 6.37827C17.1304 6.33879 17.206 6.28243 17.268 6.21268C17.1411 6.33016 16.9741 6.39484 16.8011 6.39355Z" fill="white"/>
<g style="mix-blend-mode:overlay" opacity="0.35">
<path d="M17.2637 5.28048C16.9958 5.38562 16.7682 5.50245 16.6159 5.81667C16.5354 5.98264 16.4951 6.17157 16.4044 6.3307C16.321 6.27963 16.2495 6.2113 16.1947 6.13029C16.1399 6.04927 16.1031 5.95747 16.0868 5.86104C16.0704 5.76461 16.0749 5.6658 16.1 5.57126C16.125 5.47672 16.17 5.38863 16.2319 5.31294C16.2939 5.23724 16.3713 5.17569 16.459 5.13243C16.5467 5.08916 16.6427 5.06518 16.7404 5.06211C16.8382 5.05903 16.9355 5.07693 17.0257 5.1146C17.116 5.15226 17.1971 5.20883 17.2637 5.28048Z" fill="white"/>
</g>
<g style="mix-blend-mode:multiply">
<path d="M16.7639 9.61101C17.23 9.61101 17.6078 9.23316 17.6078 8.76705C17.6078 8.30095 17.23 7.9231 16.7639 7.9231C16.2978 7.9231 15.9199 8.30095 15.9199 8.76705C15.9199 9.23316 16.2978 9.61101 16.7639 9.61101Z" fill="#B7B7B7"/>
</g>
<g style="mix-blend-mode:multiply" opacity="0.35">
<path d="M17.5669 9.0254C17.5122 9.19551 17.405 9.34387 17.2606 9.44913C17.1162 9.55439 16.9421 9.6111 16.7634 9.6111C16.5847 9.6111 16.4107 9.55439 16.2663 9.44913C16.1219 9.34387 16.0146 9.19551 15.96 9.0254C16.0146 8.85529 16.1219 8.70692 16.2663 8.60166C16.4107 8.49641 16.5847 8.4397 16.7634 8.4397C16.9421 8.4397 17.1162 8.49641 17.2606 8.60166C17.405 8.70692 17.5122 8.85529 17.5669 9.0254Z" fill="#757272"/>
</g>
<path d="M17.4488 8.76715C17.449 8.92659 17.3937 9.08112 17.2922 9.20411C17.1908 9.3271 17.0496 9.41084 16.893 9.44089C16.7364 9.47094 16.5743 9.44542 16.4345 9.36873C16.2947 9.29204 16.1861 9.16899 16.1273 9.02078C16.0686 8.87257 16.0633 8.70851 16.1126 8.55687C16.1618 8.40522 16.2624 8.27551 16.397 8.19009C16.5316 8.10467 16.6918 8.06889 16.85 8.08893C17.0082 8.10897 17.1544 8.18356 17.2635 8.29985C17.3822 8.4265 17.4485 8.59353 17.4488 8.76715Z" fill="#1BC0ED"/>
<path d="M16.8011 9.41485C16.6682 9.41428 16.5383 9.37505 16.4273 9.30194C16.3164 9.22883 16.229 9.125 16.176 9.00311C16.123 8.88123 16.1066 8.74655 16.1289 8.61551C16.1511 8.48447 16.211 8.36273 16.3012 8.26514C16.2314 8.32713 16.1751 8.40273 16.1356 8.48729C16.0961 8.57186 16.0743 8.6636 16.0716 8.75688C16.0688 8.85017 16.0852 8.94303 16.1196 9.02977C16.1541 9.11651 16.2059 9.1953 16.2719 9.26129C16.3379 9.32728 16.4166 9.37909 16.5034 9.41353C16.5901 9.44797 16.683 9.46432 16.7763 9.46157C16.8696 9.45883 16.9613 9.43704 17.0459 9.39756C17.1304 9.35807 17.206 9.30172 17.268 9.23196C17.1413 9.35014 16.9744 9.41555 16.8011 9.41485Z" fill="white"/>
<g style="mix-blend-mode:overlay" opacity="0.35">
<path d="M17.2638 8.29981C16.9959 8.40495 16.7683 8.52177 16.616 8.83639C16.5355 9.00196 16.4952 9.1913 16.4045 9.35042C16.3213 9.29929 16.2499 9.23093 16.1953 9.14994C16.1406 9.06895 16.1039 8.9772 16.0877 8.88086C16.0714 8.78452 16.076 8.68581 16.101 8.59137C16.126 8.49693 16.171 8.40893 16.2328 8.3333C16.2947 8.25767 16.372 8.19615 16.4596 8.15287C16.5472 8.1096 16.6431 8.08557 16.7407 8.08239C16.8384 8.07922 16.9356 8.09698 17.0258 8.13448C17.116 8.17198 17.1972 8.22835 17.2638 8.29981Z" fill="white"/>
</g>
<g style="mix-blend-mode:multiply">
<path d="M18.3372 8.0957C18.8019 8.06051 19.1502 7.6552 19.115 7.19043C19.0798 6.72565 18.6745 6.37741 18.2097 6.4126C17.7449 6.44779 17.3967 6.85309 17.4319 7.31787C17.4671 7.78264 17.8724 8.13089 18.3372 8.0957Z" fill="#B7B7B7"/>
</g>
<g style="mix-blend-mode:multiply" opacity="0.35">
<path d="M18.2734 8.10196C18.7173 8.10196 19.0771 7.83954 19.0771 7.51583C19.0771 7.19211 18.7173 6.92969 18.2734 6.92969C17.8295 6.92969 17.4697 7.19211 17.4697 7.51583C17.4697 7.83954 17.8295 8.10196 18.2734 8.10196Z" fill="#757272"/>
</g>
<path d="M18.9595 7.25755C18.9597 7.41696 18.9043 7.57145 18.8028 7.69437C18.7012 7.8173 18.56 7.90096 18.4035 7.93094C18.2469 7.96092 18.0848 7.93534 17.945 7.8586C17.8053 7.78187 17.6967 7.65879 17.638 7.51058C17.5793 7.36238 17.5741 7.19833 17.6234 7.04671C17.6726 6.8951 17.7732 6.76542 17.9078 6.68002C18.0425 6.59463 18.2026 6.55888 18.3608 6.57892C18.519 6.59897 18.6652 6.67356 18.7742 6.78984C18.8937 6.91621 18.96 7.08365 18.9595 7.25755Z" fill="#FD5299"/>
<path d="M18.311 7.90461C18.1781 7.90422 18.0482 7.86519 17.9372 7.79229C17.8261 7.71939 17.7387 7.61576 17.6855 7.49403C17.6323 7.3723 17.6156 7.23773 17.6376 7.10671C17.6595 6.97568 17.7191 6.85387 17.809 6.7561C17.7393 6.8181 17.6829 6.8937 17.6434 6.97826C17.6039 7.06282 17.5821 7.15456 17.5794 7.24785C17.5767 7.34114 17.593 7.434 17.6274 7.52074C17.6619 7.60748 17.7137 7.68626 17.7797 7.75225C17.8457 7.81824 17.9245 7.87005 18.0112 7.90449C18.0979 7.93894 18.1908 7.95529 18.2841 7.95254C18.3774 7.94979 18.4691 7.92801 18.5537 7.88853C18.6382 7.84904 18.7138 7.79269 18.7758 7.72293C18.6494 7.84005 18.4833 7.90497 18.311 7.90461Z" fill="white"/>
<g style="mix-blend-mode:overlay" opacity="0.35">
<path d="M18.7731 6.78988C18.5052 6.89502 18.278 7.01225 18.1258 7.32647C18.0452 7.49244 18.0049 7.68138 17.9143 7.8405C17.8309 7.78946 17.7594 7.72115 17.7046 7.64016C17.6498 7.55917 17.6129 7.46739 17.5966 7.37098C17.5802 7.27458 17.5847 7.17578 17.6097 7.08125C17.6347 6.98672 17.6796 6.89863 17.7415 6.82293C17.8034 6.74722 17.8808 6.68564 17.9685 6.64234C18.0562 6.59904 18.1521 6.57501 18.2498 6.57188C18.3476 6.56875 18.4448 6.58659 18.5351 6.62419C18.6254 6.66179 18.7065 6.71829 18.7731 6.78988Z" fill="white"/>
</g>
<g style="mix-blend-mode:multiply">
<path d="M15.7298 7.95681C16.115 7.69442 16.2146 7.16941 15.9522 6.78418C15.6898 6.39895 15.1648 6.29937 14.7796 6.56176C14.3943 6.82415 14.2947 7.34916 14.5571 7.73439C14.8195 8.11962 15.3445 8.2192 15.7298 7.95681Z" fill="#B7B7B7"/>
</g>
<g style="mix-blend-mode:multiply" opacity="0.35">
<path d="M15.2539 8.10196C15.6977 8.10196 16.0575 7.83954 16.0575 7.51583C16.0575 7.19211 15.6977 6.92969 15.2539 6.92969C14.81 6.92969 14.4502 7.19211 14.4502 7.51583C14.4502 7.83954 14.81 8.10196 15.2539 8.10196Z" fill="#757272"/>
</g>
<path d="M15.939 7.25755C15.9392 7.41696 15.8837 7.57145 15.7822 7.69437C15.6807 7.8173 15.5395 7.90096 15.383 7.93094C15.2264 7.96092 15.0643 7.93534 14.9245 7.8586C14.7848 7.78187 14.6762 7.65879 14.6175 7.51058C14.5588 7.36238 14.5536 7.19833 14.6028 7.04671C14.6521 6.8951 14.7527 6.76542 14.8873 6.68002C15.022 6.59463 15.1821 6.55888 15.3403 6.57892C15.4984 6.59897 15.6446 6.67356 15.7537 6.78984C15.8732 6.91621 15.9395 7.08365 15.939 7.25755Z" fill="#EF2622"/>
<path d="M15.2914 7.90461C15.1586 7.90422 15.0287 7.86519 14.9177 7.79229C14.8066 7.71939 14.7191 7.61576 14.6659 7.49403C14.6127 7.3723 14.5961 7.23773 14.618 7.10671C14.64 6.97568 14.6995 6.85387 14.7895 6.7561C14.7197 6.8181 14.6634 6.8937 14.6239 6.97826C14.5844 7.06282 14.5626 7.15456 14.5599 7.24785C14.5571 7.34114 14.5735 7.434 14.6079 7.52074C14.6424 7.60748 14.6942 7.68626 14.7602 7.75225C14.8261 7.81824 14.9049 7.87005 14.9917 7.90449C15.0784 7.93894 15.1713 7.95529 15.2646 7.95254C15.3578 7.94979 15.4496 7.92801 15.5341 7.88853C15.6187 7.84904 15.6943 7.79269 15.7563 7.72293C15.6297 7.83981 15.4637 7.90469 15.2914 7.90461Z" fill="white"/>
<g style="mix-blend-mode:overlay" opacity="0.35">
<path d="M15.7536 6.78988C15.4857 6.89502 15.2585 7.01225 15.1062 7.32647C15.0257 7.49244 14.9854 7.68138 14.8947 7.8405C14.8113 7.78946 14.7398 7.72115 14.685 7.64016C14.6302 7.55917 14.5934 7.46739 14.577 7.37098C14.5607 7.27458 14.5651 7.17578 14.5901 7.08125C14.6152 6.98672 14.6601 6.89863 14.722 6.82293C14.7839 6.74722 14.8613 6.68564 14.949 6.64234C15.0366 6.59904 15.1326 6.57501 15.2303 6.57188C15.328 6.56875 15.4253 6.58659 15.5156 6.62419C15.6058 6.66179 15.687 6.71829 15.7536 6.78988Z" fill="white"/>
</g>
<g style="mix-blend-mode:multiply">
<path d="M4.00233 6.77428C3.94262 6.77433 3.88392 6.75892 3.83192 6.72956L3.43996 6.5076C3.3841 6.47601 3.33763 6.43017 3.30529 6.37476C3.27295 6.31934 3.25589 6.25633 3.25586 6.19217V5.46343C3.25597 5.37467 3.29127 5.28959 3.35403 5.22683C3.41679 5.16407 3.50187 5.12877 3.59062 5.12866H4.41404C4.50279 5.12877 4.58787 5.16407 4.65063 5.22683C4.71339 5.28959 4.74869 5.37467 4.7488 5.46343V6.19217C4.74873 6.25637 4.73161 6.31941 4.69919 6.37483C4.66678 6.43025 4.62022 6.47607 4.5643 6.5076L4.17273 6.72956C4.12074 6.75892 4.06203 6.77433 4.00233 6.77428Z" fill="#B7B7B7"/>
</g>
<path d="M4.67086 5.46388V6.19222C4.67088 6.24284 4.65746 6.29255 4.63198 6.33629C4.6065 6.38003 4.56987 6.41622 4.52583 6.44118L4.13427 6.66194C4.09381 6.68493 4.04807 6.69701 4.00153 6.69701C3.955 6.69701 3.90926 6.68493 3.8688 6.66194L3.47723 6.44118C3.43851 6.419 3.40575 6.38776 3.38176 6.35014C3.3501 6.30355 3.33312 6.24855 3.33301 6.19222V5.46388C3.33285 5.43008 3.33937 5.39658 3.3522 5.36531C3.36502 5.33403 3.3839 5.3056 3.40774 5.28164C3.43159 5.25769 3.45993 5.23868 3.49114 5.22571C3.52236 5.21273 3.55582 5.20606 3.58962 5.20606H4.41344C4.44677 5.20588 4.4798 5.21231 4.51064 5.22496C4.54148 5.23761 4.56951 5.25624 4.59311 5.27978C4.61772 5.3037 4.63728 5.33233 4.65064 5.36395C4.66399 5.39557 4.67087 5.42955 4.67086 5.46388Z" fill="#343A51"/>
<path d="M3.39747 6.21669V5.411C3.39726 5.35525 3.41231 5.3005 3.44097 5.25269C3.40761 5.2764 3.38039 5.30775 3.36161 5.34412C3.34283 5.38049 3.33302 5.42083 3.33301 5.46176V6.19212C3.3331 6.24266 3.34657 6.29228 3.37204 6.33593C3.39751 6.37959 3.43408 6.41572 3.47804 6.44067L3.4873 6.44591C3.42908 6.38384 3.39692 6.30179 3.39747 6.21669Z" fill="white"/>
<g style="mix-blend-mode:multiply">
<path d="M4.00233 7.74072C3.94258 7.74082 3.88388 7.75636 3.83192 7.78584L3.43996 8.00741C3.38404 8.03902 3.33753 8.08493 3.30519 8.14042C3.27284 8.19591 3.25582 8.259 3.25586 8.32323V9.05238C3.25597 9.1411 3.29128 9.22614 3.35405 9.28884C3.41682 9.35153 3.50191 9.38674 3.59062 9.38674H4.41404C4.50275 9.38674 4.58783 9.35153 4.6506 9.28884C4.71337 9.22614 4.74869 9.1411 4.7488 9.05238V8.32323C4.7488 8.25896 4.73171 8.19584 4.69929 8.14035C4.66687 8.08485 4.62028 8.03897 4.5643 8.00741L4.17273 7.78584C4.12077 7.75636 4.06207 7.74082 4.00233 7.74072Z" fill="#B7B7B7"/>
</g>
<path d="M4.67086 8.32363V9.05237C4.67075 9.12061 4.6436 9.18602 4.59534 9.23428C4.54709 9.28253 4.48168 9.30968 4.41344 9.30979H3.58962C3.55587 9.30974 3.52246 9.30304 3.4913 9.29007C3.46014 9.27711 3.43183 9.25813 3.408 9.23423C3.38417 9.21032 3.36528 9.18196 3.35242 9.15076C3.33955 9.11956 3.33296 9.08612 3.33301 9.05237V8.32363C3.33295 8.2731 3.34626 8.22345 3.37159 8.17973C3.39692 8.136 3.43337 8.09976 3.47723 8.07467L3.86879 7.8527C3.90925 7.82971 3.955 7.81763 4.00153 7.81763C4.04807 7.81763 4.0938 7.82971 4.13427 7.8527L4.42432 8.01706L4.52583 8.07467C4.5699 8.09959 4.60655 8.13578 4.63203 8.17952C4.65752 8.22327 4.67092 8.273 4.67086 8.32363Z" fill="#343A51"/>
<path d="M3.39747 8.29815V9.10384C3.39725 9.15972 3.41229 9.2146 3.44097 9.26256C3.40761 9.23885 3.38039 9.2075 3.36161 9.17113C3.34283 9.13475 3.33302 9.09442 3.33301 9.05348V8.32313C3.3331 8.27259 3.34657 8.22297 3.37204 8.17932C3.39751 8.13566 3.43408 8.09952 3.47804 8.07457L3.4873 8.06934C3.42911 8.13126 3.39694 8.21318 3.39747 8.29815Z" fill="white"/>
<g style="mix-blend-mode:multiply">
<path d="M4.48535 7.2577C4.48531 7.19799 4.50072 7.13929 4.53007 7.0873L4.75164 6.69533C4.78325 6.63942 4.82915 6.59291 4.88465 6.56056C4.94014 6.52821 5.00323 6.51119 5.06746 6.51123H5.79621C5.88492 6.51134 5.96997 6.54665 6.03266 6.60942C6.09536 6.67219 6.13057 6.75728 6.13057 6.84599V7.66941C6.13046 7.75805 6.0952 7.84304 6.03252 7.90572C5.96984 7.9684 5.88485 8.00366 5.79621 8.00377H5.06746C5.00323 8.00381 4.94014 7.98679 4.88465 7.95444C4.82915 7.92209 4.78325 7.87558 4.75164 7.81967L4.53007 7.4281C4.50072 7.37611 4.48531 7.31741 4.48535 7.2577Z" fill="#B7B7B7"/>
</g>
<path d="M6.0534 6.84595V7.66977C6.05335 7.70354 6.04663 7.73696 6.03364 7.76813C6.02064 7.79929 6.00162 7.82759 5.97767 7.85139C5.95372 7.87519 5.92531 7.89403 5.89406 7.90683C5.86281 7.91963 5.82935 7.92614 5.79558 7.92598H5.06724C5.01677 7.92596 4.9672 7.91265 4.9235 7.88741C4.8798 7.86217 4.84351 7.82587 4.81828 7.78216L4.67527 7.52998L4.59752 7.3902C4.57457 7.3498 4.5625 7.30413 4.5625 7.25766C4.5625 7.2112 4.57457 7.16553 4.59752 7.12513L4.81828 6.73316C4.84323 6.68912 4.87943 6.65249 4.92317 6.62701C4.9669 6.60153 5.01662 6.58812 5.06724 6.58813H5.79558C5.86396 6.58813 5.92954 6.6153 5.97789 6.66365C6.02624 6.712 6.0534 6.77758 6.0534 6.84595Z" fill="#343A51"/>
<path d="M5.04263 6.65308H5.84832C5.9042 6.65286 5.95908 6.66791 6.00704 6.69659C5.98333 6.66322 5.95198 6.63601 5.91561 6.61723C5.87924 6.59845 5.8389 6.58864 5.79797 6.58862H5.06922C5.01867 6.58863 4.96901 6.60207 4.92535 6.62754C4.88168 6.65302 4.84555 6.68964 4.82067 6.73365L4.81543 6.74251C4.87699 6.68481 4.95827 6.65282 5.04263 6.65308Z" fill="white"/>
<g style="mix-blend-mode:multiply">
<path d="M3.51826 7.2577C3.51831 7.19799 3.5029 7.13929 3.47355 7.0873L3.25198 6.69533C3.22036 6.63942 3.17447 6.59291 3.11897 6.56056C3.06348 6.52821 3.00039 6.51119 2.93615 6.51123H2.20741C2.11869 6.51134 2.03365 6.54665 1.97095 6.60942C1.90826 6.67219 1.87305 6.75728 1.87305 6.84599V7.66941C1.87315 7.75805 1.90842 7.84304 1.9711 7.90572C2.03378 7.9684 2.11876 8.00366 2.20741 8.00377H2.93615C3.00039 8.00381 3.06348 7.98679 3.11897 7.95444C3.17447 7.92209 3.22036 7.87558 3.25198 7.81967L3.47355 7.4281C3.5029 7.37611 3.51831 7.31741 3.51826 7.2577Z" fill="#B7B7B7"/>
</g>
<path d="M3.40728 7.3902L3.18532 7.78216C3.16008 7.82587 3.1238 7.86217 3.0801 7.88741C3.0364 7.91265 2.98682 7.92596 2.93636 7.92598H2.20802C2.17426 7.92609 2.14082 7.91954 2.1096 7.90672C2.07837 7.89391 2.04998 7.87506 2.02604 7.85127C2.0021 7.82748 1.98308 7.79921 1.97007 7.76807C1.95705 7.73692 1.9503 7.70352 1.9502 7.66977V6.84595C1.95041 6.77764 1.97764 6.71219 2.02594 6.66388C2.07425 6.61558 2.1397 6.58835 2.20802 6.58813H2.93636C2.97945 6.58813 3.02198 6.59788 3.06077 6.61664C3.09956 6.63541 3.1336 6.66271 3.16034 6.6965C3.16967 6.70801 3.17802 6.72027 3.18532 6.73316L3.40728 7.12513C3.43024 7.16553 3.4423 7.2112 3.4423 7.25766C3.4423 7.30413 3.43024 7.3498 3.40728 7.3902Z" fill="#343A51"/>
<path d="M2.96148 6.65308H2.15579C2.09991 6.65286 2.04503 6.66791 1.99707 6.69659C2.02078 6.66322 2.05213 6.63601 2.0885 6.61723C2.12487 6.59845 2.16521 6.58864 2.20614 6.58862H2.93489C2.98545 6.58863 3.0351 6.60207 3.07876 6.62754C3.12243 6.65302 3.15856 6.68964 3.18344 6.73365L3.18868 6.74251C3.12713 6.68481 3.04585 6.65282 2.96148 6.65308Z" fill="white"/>
<g style="mix-blend-mode:overlay" opacity="0.35">
<path d="M3.16034 6.6965C2.98389 6.98655 2.81953 7.28546 2.631 7.56785C2.54746 7.69876 2.4483 7.81902 2.33571 7.92598H2.20802C2.17426 7.92609 2.14082 7.91954 2.1096 7.90672C2.07837 7.89391 2.04998 7.87506 2.02604 7.85127C2.0021 7.82748 1.98308 7.79921 1.97007 7.76807C1.95705 7.73692 1.9503 7.70352 1.9502 7.66977V6.84595C1.95041 6.77764 1.97764 6.71219 2.02594 6.66388C2.07425 6.61558 2.1397 6.58835 2.20802 6.58813H2.93636C2.97945 6.58813 3.02198 6.59788 3.06077 6.61664C3.09956 6.63541 3.1336 6.66271 3.16034 6.6965Z" fill="white"/>
</g>
<g style="mix-blend-mode:overlay" opacity="0.35">
<path d="M4.59311 5.27978C4.17657 5.44092 3.83012 5.75594 3.5582 6.10561C3.49657 6.18618 3.43735 6.26675 3.38176 6.35014C3.3501 6.30355 3.33312 6.24855 3.33301 6.19222V5.46388C3.33285 5.43008 3.33937 5.39658 3.3522 5.36531C3.36502 5.33403 3.3839 5.3056 3.40774 5.28164C3.43159 5.25769 3.45993 5.23868 3.49114 5.22571C3.52236 5.21273 3.55582 5.20606 3.58962 5.20606H4.41344C4.44677 5.20588 4.4798 5.21231 4.51064 5.22496C4.54148 5.23761 4.56951 5.25624 4.59311 5.27978Z" fill="white"/>
</g>
<g style="mix-blend-mode:overlay" opacity="0.35">
<path d="M4.13524 7.8527L4.42529 8.01706C4.27906 8.36472 4.14692 8.76394 3.80612 8.9146C3.73165 8.94655 3.6516 8.96346 3.57058 8.96435C3.48955 8.96525 3.40914 8.95012 3.33398 8.91984V8.32363C3.33393 8.2731 3.34724 8.22345 3.37257 8.17973C3.3979 8.136 3.43434 8.09976 3.4782 8.07467L3.86977 7.8527C3.91023 7.82971 3.95597 7.81763 4.0025 7.81763C4.04904 7.81763 4.09478 7.82971 4.13524 7.8527Z" fill="white"/>
</g>
<g style="mix-blend-mode:overlay" opacity="0.35">
<path d="M5.57603 6.58813C5.50003 6.63255 5.42697 6.68179 5.35729 6.73558C5.09052 6.9638 4.86049 7.23174 4.67527 7.52998L4.59752 7.3902C4.57457 7.3498 4.5625 7.30413 4.5625 7.25766C4.5625 7.2112 4.57457 7.16553 4.59752 7.12513L4.81828 6.73316C4.84323 6.68912 4.87943 6.65249 4.92317 6.62701C4.9669 6.60153 5.01662 6.58812 5.06724 6.58813H5.57603Z" fill="white"/>
</g>
<g style="mix-blend-mode:overlay" opacity="0.25">
<path d="M1.22589 6.47006C0.962032 7.4095 0.964853 8.40049 0.97009 9.37618L0.983382 12.0277C0.987007 12.7456 0.999896 13.4993 1.35359 14.1225C1.70729 14.7457 2.52507 15.1699 3.16357 14.8432C3.82303 14.504 3.93422 13.6346 4.15256 12.9268C4.44261 11.985 5.04163 11.1753 5.60723 10.3684C6.71303 8.79246 7.39384 7.13395 6.51443 5.2712C5.9283 4.03004 4.20452 3.62478 2.99075 4.17264C2.07428 4.58798 1.48935 5.53264 1.22589 6.47006Z" fill="white"/>
</g>
<g style="mix-blend-mode:overlay" opacity="0.25">
<path d="M19.6488 6.47006C19.9126 7.4095 19.9094 8.40049 19.9046 9.37618C19.9 10.26 19.8955 11.1439 19.8909 12.0277C19.8873 12.7456 19.8748 13.4993 19.5211 14.1225C19.1674 14.7457 18.3496 15.1699 17.7111 14.8432C17.0516 14.504 16.9405 13.6346 16.7221 12.9268C16.4321 11.985 15.833 11.1753 15.267 10.3684C14.1612 8.79246 13.4808 7.13395 14.3602 5.2712C14.9464 4.03004 16.6702 3.62478 17.8839 4.17264C18.7992 4.58798 19.3853 5.53264 19.6488 6.47006Z" fill="white"/>
</g>
</g>
</g>
<defs>
<clipPath id="clip0_1297_45737">
<rect width="20" height="20" fill="white" transform="translate(0.382812)"/>
</clipPath>
<clipPath id="clip1_1297_45737">
<rect width="20" height="14.7795" fill="white" transform="translate(0.382812 3)"/>
</clipPath>
</defs>
</svg>
