<svg width="20" height="20" viewBox="0 0 20 20" fill="none" xmlns="http://www.w3.org/2000/svg">
<path d="M16.7349 1.81641H2.04102V14.4695H16.7349V1.81641Z" fill="#9F5E10"/>
<path d="M19.5916 6.71436H17.5508V11.6123H19.5916V6.71436Z" fill="url(#paint0_radial_1309_20613)"/>
<path d="M19.5918 6.71436V11.6123C20.136 9.99789 20.136 8.32878 19.5918 6.71436Z" fill="#9F5E10"/>
<path d="M18.3671 6.71436H17.959V11.6123H18.3671V6.71436Z" fill="#9F5E10"/>
<path d="M18.7754 1.97559V7.22865C18.7881 7.273 18.8148 7.312 18.8517 7.33978C18.8885 7.36756 18.9333 7.38258 18.9795 7.38258C19.0256 7.38258 19.0704 7.36756 19.1073 7.33978C19.1441 7.312 19.1709 7.273 19.1836 7.22865V1.97559H18.7754Z" fill="url(#paint1_radial_1309_20613)"/>
<path d="M18.9876 2.22441C18.96 2.22386 18.9325 2.22884 18.9067 2.23905C18.881 2.24927 18.8575 2.26454 18.8378 2.28392C18.818 2.3033 18.8023 2.32643 18.7916 2.35196C18.7809 2.37748 18.7754 2.40489 18.7754 2.43257V3.75093C18.9107 3.77141 19.0483 3.77141 19.1836 3.75093V2.4244C19.1816 2.37267 19.1604 2.32352 19.1242 2.28654C19.088 2.24956 19.0393 2.22741 18.9876 2.22441Z" fill="#9F5E10"/>
<path d="M18.9794 3.44902C19.5429 3.44902 19.9998 2.99217 19.9998 2.42861C19.9998 1.86506 19.5429 1.4082 18.9794 1.4082C18.4158 1.4082 17.959 1.86506 17.959 2.42861C17.959 2.99217 18.4158 3.44902 18.9794 3.44902Z" fill="url(#paint2_radial_1309_20613)"/>
<path d="M17.473 6.30615H17.1426V12.0204H17.473C17.6018 12.0204 17.7254 11.9763 17.8165 11.8976C17.9076 11.819 17.9588 11.7124 17.9588 11.6012V6.73379C17.9601 6.67803 17.9485 6.6226 17.9246 6.57076C17.9008 6.51893 17.8652 6.47172 17.82 6.43189C17.7747 6.39207 17.7207 6.36045 17.6612 6.33885C17.6016 6.31726 17.5376 6.30614 17.473 6.30615Z" fill="url(#paint3_radial_1309_20613)"/>
<path d="M17.5507 6.30615H17.1426V12.0204H17.5507V6.30615Z" fill="#9F5E10"/>
<rect x="1.63281" y="3.44897" width="15.5102" height="9.38776" rx="0.816326" fill="url(#paint4_radial_1309_20613)"/>
<path d="M1.63281 2.32657C1.63281 1.81937 2.04398 1.4082 2.55118 1.4082H16.2246C16.7318 1.4082 17.143 1.81937 17.143 2.32657C17.143 2.49564 17.006 2.63269 16.8369 2.63269H1.93894C1.76987 2.63269 1.63281 2.49564 1.63281 2.32657Z" fill="url(#paint5_radial_1309_20613)"/>
<path d="M15.5804 8.84076C15.5502 8.84142 15.5201 8.83598 15.4921 8.82476C15.464 8.81354 15.4385 8.79677 15.4171 8.77546L14.9844 8.34281C14.9625 8.32159 14.9452 8.29621 14.9332 8.26817C14.9213 8.24013 14.9152 8.21 14.9151 8.17953C14.9147 8.14961 14.9207 8.11995 14.9327 8.09251C14.9446 8.06508 14.9623 8.04049 14.9844 8.02034L15.4171 7.58361C15.4613 7.54204 15.5197 7.51872 15.5804 7.51831C15.6403 7.51938 15.6974 7.54394 15.7393 7.58669C15.7813 7.62944 15.8048 7.68696 15.8048 7.74688V8.61627C15.8052 8.64681 15.7992 8.67708 15.7873 8.70518C15.7753 8.73329 15.7577 8.75862 15.7355 8.77955C15.6935 8.81911 15.638 8.84102 15.5804 8.84076Z" fill="#915123"/>
<path d="M15.5806 8.76736C15.5426 8.76746 15.506 8.75284 15.4785 8.72655L15.0418 8.28981C15.0158 8.26213 15.0013 8.22571 15.001 8.18777C15.002 8.14999 15.0165 8.11382 15.0418 8.08573L15.4785 7.65308C15.4914 7.63875 15.5071 7.62732 15.5247 7.61957C15.5423 7.61183 15.5614 7.60793 15.5806 7.60816C15.6188 7.60923 15.6552 7.62519 15.6818 7.65263C15.7085 7.68007 15.7234 7.71685 15.7234 7.75512V8.62451C15.7224 8.66207 15.707 8.69781 15.6804 8.72439C15.6539 8.75096 15.6181 8.76633 15.5806 8.76736Z" fill="#72000B"/>
<path d="M15.1033 8.22452L15.5359 8.65717C15.5443 8.66615 15.5551 8.67244 15.567 8.67521C15.579 8.67798 15.5914 8.67709 15.6029 8.67269C15.6143 8.6683 15.6241 8.66059 15.6311 8.65055C15.6381 8.6405 15.6419 8.62861 15.6421 8.61637V7.74698C15.6428 7.73439 15.6396 7.7219 15.6329 7.7112C15.6262 7.70051 15.6164 7.69213 15.6048 7.68721C15.5932 7.6823 15.5804 7.68109 15.568 7.68375C15.5557 7.68641 15.5445 7.69282 15.5359 7.70209L15.1033 8.13882C15.0972 8.14419 15.0924 8.15077 15.089 8.15816C15.0857 8.16555 15.084 8.17357 15.084 8.18167C15.084 8.18978 15.0857 8.1978 15.089 8.20519C15.0924 8.21258 15.0972 8.21916 15.1033 8.22452Z" fill="url(#paint6_linear_1309_20613)"/>
<path d="M15.6412 7.74698C15.6419 7.73439 15.6387 7.7219 15.632 7.7112C15.6254 7.70051 15.6156 7.69213 15.6039 7.68721C15.5923 7.6823 15.5795 7.68109 15.5672 7.68375C15.5549 7.68641 15.5436 7.69282 15.5351 7.70209L15.1025 8.13882C15.0964 8.14386 15.0915 8.15009 15.088 8.15711C15.0845 8.16413 15.0824 8.17179 15.082 8.17963H15.6412V7.74698Z" fill="url(#paint7_linear_1309_20613)"/>
<path d="M3.13114 8.8408C3.16079 8.84189 3.19033 8.83661 3.21778 8.82535C3.24523 8.81409 3.26993 8.7971 3.29027 8.7755L3.72295 8.35917C3.76452 8.31492 3.78786 8.2566 3.78827 8.19589C3.78839 8.16637 3.78269 8.13711 3.77148 8.1098C3.76027 8.08248 3.74377 8.05766 3.72295 8.03673L3.28624 7.59999C3.2653 7.57917 3.24046 7.56269 3.21315 7.55149C3.18583 7.54028 3.15657 7.53455 3.12705 7.53467C3.06643 7.53467 3.00828 7.55877 2.96542 7.60163C2.92255 7.6445 2.89845 7.70262 2.89845 7.76324V8.63263C2.89807 8.66355 2.90445 8.69419 2.91714 8.72239C2.92983 8.75059 2.94854 8.77569 2.97195 8.79591C3.01717 8.83097 3.07426 8.84706 3.13114 8.8408Z" fill="#915123"/>
<path d="M3.13124 8.76735C3.16902 8.76629 3.20519 8.75183 3.23328 8.72654L3.6659 8.2898C3.68004 8.27682 3.69131 8.26106 3.69904 8.24349C3.70677 8.22593 3.71077 8.20695 3.7108 8.18776C3.70981 8.14917 3.69369 8.11252 3.6659 8.08572L3.23328 7.65307C3.20648 7.62528 3.16983 7.60914 3.13124 7.60815C3.11213 7.60815 3.09319 7.61198 3.07558 7.61941C3.05798 7.62685 3.04207 7.63775 3.02875 7.65145C3.01543 7.66515 3.00499 7.68138 2.99805 7.69918C2.99112 7.71699 2.98779 7.73601 2.98834 7.75511V8.6245C2.98811 8.64373 2.992 8.66278 2.99975 8.68038C3.00749 8.69798 3.01895 8.71372 3.03328 8.72654C3.04568 8.74003 3.06086 8.75066 3.07777 8.75771C3.09469 8.76476 3.11293 8.76804 3.13124 8.76735Z" fill="#72000B"/>
<path d="M3.60937 8.22456L3.17266 8.65722C3.16506 8.66704 3.15445 8.67413 3.14246 8.6774C3.13048 8.68066 3.11777 8.67994 3.10624 8.67533C3.09471 8.67071 3.08496 8.66247 3.07854 8.65184C3.07211 8.64121 3.06934 8.62877 3.07061 8.61641V7.74702C3.07076 7.73526 3.07425 7.72379 3.08073 7.71399C3.08721 7.70418 3.09642 7.69645 3.10719 7.69172C3.11795 7.68698 3.1298 7.68544 3.14142 7.68728C3.15303 7.68913 3.16389 7.69429 3.17266 7.70213L3.60937 8.13887C3.61545 8.14423 3.62033 8.15081 3.62367 8.1582C3.627 8.16559 3.62875 8.17361 3.62875 8.18172C3.62875 8.18982 3.627 8.19784 3.62367 8.20523C3.62033 8.21262 3.61545 8.2192 3.60937 8.22456Z" fill="url(#paint8_linear_1309_20613)"/>
<path d="M3.07005 7.74702C3.07019 7.73526 3.07368 7.72379 3.08017 7.71399C3.08665 7.70418 3.09586 7.69645 3.10662 7.69172C3.11739 7.68698 3.12924 7.68544 3.14085 7.68728C3.15247 7.68913 3.16333 7.69429 3.17209 7.70213L3.60881 8.13887C3.6115 8.14533 3.61289 8.15226 3.61289 8.15927C3.61289 8.16628 3.6115 8.17321 3.60881 8.17967H3.05371L3.07005 7.74702Z" fill="url(#paint9_linear_1309_20613)"/>
<path d="M7.53538 5.0083H4.78027V11.3471H7.53538V5.0083Z" fill="url(#paint10_linear_1309_20613)"/>
<path d="M7.32738 5.44897C7.35006 5.43692 7.36943 5.41942 7.38368 5.39805C7.39793 5.37668 7.40664 5.3521 7.40904 5.32653C7.40904 5.2449 7.31513 5.1755 7.17636 5.14285C7.22994 5.10947 7.277 5.06659 7.31517 5.01632C7.36264 4.96481 7.3951 4.90129 7.40904 4.83264C7.40904 4.81223 7.409 4.79591 7.37227 4.77958C7.33956 4.7625 7.30308 4.75407 7.26619 4.75509C7.18456 4.75509 7.11926 4.78368 7.11517 4.8245C7.10499 4.87496 7.08094 4.92158 7.04577 4.95917L7.00496 5.00409C6.94271 4.93435 6.86417 4.88106 6.77637 4.84898C6.5895 4.78105 6.39147 4.74917 6.19272 4.75509C6.06673 4.75652 5.94108 4.76882 5.81719 4.79184C5.64952 4.81882 5.48531 4.86399 5.32742 4.92654C5.28252 4.92654 5.27434 4.97143 5.30699 4.99592C5.41338 5.06514 5.52696 5.12261 5.64575 5.16734C5.61915 5.17824 5.59603 5.19613 5.57878 5.21913C5.56154 5.24213 5.55081 5.26937 5.54779 5.29795C5.54588 5.31012 5.54588 5.32253 5.54779 5.3347C5.40902 5.36735 5.31925 5.4408 5.31925 5.51835C5.31406 5.53843 5.31406 5.55951 5.31925 5.57959C5.22758 5.57783 5.13675 5.5974 5.05393 5.63674C4.98046 5.67347 4.93555 5.72652 4.93555 5.77958C4.93555 5.83264 4.98046 5.88164 5.05393 5.92246C5.14398 5.96175 5.24139 5.98122 5.33962 5.97958C5.43658 5.98168 5.53281 5.96218 5.62128 5.92246C5.71364 5.96394 5.81391 5.98481 5.91515 5.98367C6.00646 5.94341 6.10514 5.92263 6.20493 5.92263C6.30472 5.92263 6.40345 5.94341 6.49476 5.98367C6.60796 5.98903 6.72016 5.96061 6.81717 5.90203C7.01309 5.90203 7.18044 5.82857 7.22534 5.73469C7.33146 5.69796 7.3927 5.63672 7.3927 5.57142C7.39077 5.54623 7.38223 5.52201 7.36789 5.50121C7.35354 5.48042 7.33394 5.46381 7.31108 5.45306L7.32738 5.44897Z" fill="#44281F"/>
<path d="M6.93141 5.05726C6.84978 4.94297 6.65796 4.8042 6.18449 4.8042C5.90536 4.81088 5.62936 4.86471 5.36816 4.96339C5.47047 5.03357 5.58162 5.08986 5.69875 5.13075C5.77412 5.10732 5.85251 5.09494 5.93143 5.094H6.01713C6.11969 5.01869 6.24516 4.98119 6.37223 4.98788C6.49552 4.98133 6.6175 5.01577 6.71916 5.08583H6.82937C6.86433 5.08009 6.89855 5.07051 6.93141 5.05726Z" fill="#5EAC41"/>
<path d="M6.92311 5.06116H6.78843C6.66413 4.99121 6.52279 4.95729 6.38027 4.96321C6.23769 4.95663 6.09617 4.99059 5.97211 5.06116H5.93539C5.82831 5.06005 5.72188 5.07802 5.62109 5.11422L5.70271 5.14688C5.77807 5.12346 5.85647 5.11107 5.93539 5.11014H6.02109C6.12365 5.03482 6.24912 4.99735 6.37619 5.00404C6.49948 4.99749 6.62145 5.03193 6.72311 5.10199H6.83333C6.8648 5.09207 6.89494 5.07835 6.92311 5.06116Z" fill="#3F8724"/>
<path d="M7.02968 5.15524C7.28274 5.01238 7.30725 4.84094 7.30725 4.83277C7.30725 4.82461 7.30725 4.8042 7.26236 4.8042C7.21746 4.8042 7.20929 4.8042 7.20929 4.82869C7.19028 4.89338 7.15743 4.95318 7.11303 5.00392C7.06863 5.05466 7.01374 5.09515 6.95215 5.12258L7.02968 5.15524Z" fill="#5EAC41"/>
<path d="M7.02968 5.1551L7.095 5.11427L7.01338 5.08569L6.95215 5.12244L7.02968 5.1551Z" fill="#3F8724"/>
<path d="M6.79285 5.84911C6.81169 5.83063 6.82326 5.80602 6.82548 5.77973C6.82968 5.76505 6.82968 5.74951 6.82548 5.73483L6.91527 5.71035H7.01731C7.06481 5.71504 7.1127 5.71504 7.1602 5.71035C7.25408 5.68177 7.31939 5.63279 7.31939 5.57564C7.31939 5.5185 7.20101 5.43279 7.04591 5.42463V5.37565C7.0654 5.35764 7.07709 5.33276 7.07854 5.30627C7.07854 5.22055 6.94385 5.15525 6.7765 5.15525H6.70306C6.66666 5.11698 6.62199 5.08752 6.57247 5.06913C6.52296 5.05074 6.46988 5.0439 6.41732 5.04912C6.36231 5.04229 6.3065 5.04957 6.25509 5.07027C6.20368 5.09098 6.15837 5.12443 6.12345 5.16748C6.07469 5.16102 6.02529 5.16102 5.97652 5.16748C5.80917 5.16748 5.67448 5.23279 5.67448 5.3185C5.67495 5.33209 5.67848 5.34542 5.68485 5.35744C5.69121 5.36946 5.70023 5.37985 5.7112 5.38788C5.56427 5.38788 5.45406 5.46137 5.45406 5.53892C5.45386 5.55122 5.4563 5.5634 5.46123 5.57467C5.46616 5.58594 5.47349 5.59602 5.48266 5.60422L5.4418 5.64911C5.35226 5.64 5.26193 5.65551 5.18057 5.694C5.06221 5.75115 5.06221 5.84503 5.18057 5.90626C5.31153 5.95892 5.45778 5.95892 5.58874 5.90626L5.62551 5.88177H5.72755C5.80103 5.92326 5.88397 5.94507 5.96835 5.94507C6.05273 5.94507 6.13567 5.92326 6.20915 5.88177H6.31119C6.38115 5.92028 6.45994 5.93998 6.53979 5.93892C6.63642 5.94451 6.73191 5.91557 6.80919 5.85728L6.79285 5.84911Z" fill="#AC14B8"/>
<path d="M6.52323 5.62848C6.57643 5.62292 6.6302 5.6296 6.68042 5.64799C6.73065 5.66638 6.77598 5.69601 6.81301 5.73461L6.90284 5.71012C6.85264 5.65344 6.78523 5.61472 6.71097 5.59991C6.70865 5.58915 6.70865 5.57801 6.71097 5.56725C6.71097 5.48562 6.8457 5.41623 7.00897 5.41623H7.03752V5.36725C6.92756 5.36317 6.81866 5.39005 6.72322 5.4448H6.6865C6.63251 5.38948 6.56259 5.35238 6.48651 5.33868C6.48275 5.32672 6.48275 5.31391 6.48651 5.30196C6.48651 5.22849 6.58036 5.17135 6.71097 5.15502C6.70037 5.13625 6.68485 5.12071 6.66608 5.11011C6.50281 5.1346 6.38447 5.21216 6.38447 5.30196H6.24974C6.17219 5.27747 6.11915 5.23257 6.11915 5.17951C6.11732 5.16871 6.11732 5.15766 6.11915 5.14685H6.0212C6.01752 5.16297 6.01752 5.17971 6.0212 5.19583C6.0212 5.25297 6.07019 5.30194 6.14366 5.33868C6.10805 5.34592 6.07368 5.35831 6.04162 5.37542C5.95342 5.33488 5.857 5.31532 5.75996 5.31827H5.68652C5.69094 5.33809 5.70256 5.35555 5.71916 5.36725H5.75996C5.83596 5.36446 5.91154 5.37987 5.98039 5.41217C5.9635 5.42442 5.94958 5.44031 5.93968 5.45868C5.92979 5.47705 5.92417 5.49742 5.92324 5.51827C5.9164 5.53811 5.9164 5.55967 5.92324 5.57951C5.83559 5.58238 5.74946 5.60323 5.67018 5.64074C5.61015 5.61111 5.54508 5.5931 5.47836 5.58768L5.4375 5.63257C5.49416 5.63769 5.54946 5.65289 5.60078 5.67746C5.7069 5.72644 5.71505 5.80808 5.6375 5.86522H5.73954C5.75471 5.85425 5.76709 5.83982 5.77561 5.82315C5.78413 5.80647 5.78856 5.78804 5.78856 5.76931C5.78856 5.75059 5.78413 5.73213 5.77561 5.71545C5.76709 5.69878 5.75471 5.68435 5.73954 5.67337C5.81135 5.63628 5.89143 5.61803 5.97222 5.62031C6.13548 5.62031 6.27017 5.68562 6.27017 5.77133C6.26962 5.78798 6.26484 5.80423 6.25627 5.81851C6.2477 5.8328 6.23562 5.84465 6.22119 5.85297H6.32323C6.33769 5.84179 6.34955 5.82762 6.35801 5.81141C6.36647 5.79521 6.37131 5.77736 6.37221 5.7591C6.37191 5.74014 6.36733 5.7215 6.35886 5.70454C6.35038 5.68758 6.33821 5.67276 6.32323 5.66114C6.38665 5.63557 6.45497 5.62441 6.52323 5.62848ZM6.23345 5.62848C6.1637 5.59267 6.08721 5.57181 6.00894 5.56725C5.99215 5.55109 5.98198 5.52929 5.98039 5.50604C5.98039 5.42032 6.11508 5.35502 6.28243 5.35502C6.44977 5.35502 6.58446 5.42032 6.58446 5.50604C6.58362 5.52866 6.57494 5.55028 6.55995 5.56725H6.52323C6.42202 5.56724 6.32243 5.59252 6.23345 5.64074V5.62848Z" fill="#7D0087"/>
<path d="M7.258 5.41214C7.21251 5.39275 7.16436 5.38036 7.11515 5.37539C7.13457 5.35403 7.14607 5.32666 7.14779 5.29784C7.14675 5.27803 7.1415 5.25867 7.13234 5.24107C7.12319 5.22346 7.11035 5.20803 7.09473 5.1958C7.20901 5.22029 7.29064 5.27334 7.29064 5.33865C7.28939 5.36638 7.27775 5.39264 7.258 5.41214Z" fill="#7D0087"/>
<path d="M6.90234 5.84486C6.91792 5.82664 6.92657 5.80351 6.92681 5.77954H7.00847C7.04645 5.78375 7.08474 5.78375 7.12272 5.77954C7.05895 5.82602 6.98114 5.8491 6.90234 5.84486Z" fill="#7D0087"/>
<path d="M7.35207 7.13471L7.23777 7.01635C7.22817 7.00676 7.21669 6.99925 7.20404 6.99433C7.19139 6.98941 7.17789 6.98719 7.16433 6.98778C7.15142 6.98751 7.13855 6.98991 7.12661 6.99483C7.11468 6.99974 7.10391 7.00707 7.09493 7.01635C7.06365 7.04639 7.02644 7.06952 6.98566 7.08429C6.94488 7.09905 6.90147 7.1051 6.85821 7.10205C6.7324 7.09381 6.60784 7.07192 6.48677 7.03675C6.29427 6.98047 6.09536 6.94894 5.8949 6.94288C5.76514 6.94233 5.63599 6.96017 5.51125 6.99592C5.43273 7.01937 5.35733 7.05228 5.28674 7.0939C5.28061 7.07379 5.26817 7.05617 5.25127 7.04368C5.23436 7.03118 5.21389 7.02446 5.19287 7.0245H5.03368C5.00731 7.02448 4.98195 7.03468 4.96293 7.05295C4.94391 7.07121 4.9327 7.0961 4.93164 7.12245V8.00818C4.9327 8.03453 4.94391 8.05945 4.96293 8.07771C4.98195 8.09598 5.00731 8.10616 5.03368 8.10614H5.19287C5.21924 8.10616 5.2446 8.09598 5.26362 8.07771C5.28265 8.05945 5.29386 8.03453 5.29491 8.00818C5.29378 7.97181 5.30089 7.93563 5.31574 7.90241C5.33058 7.86918 5.35281 7.83976 5.38066 7.81633C5.43059 7.77179 5.49357 7.74459 5.56023 7.73878H5.64593C5.7846 7.74537 5.92182 7.77006 6.05409 7.81225L6.22962 7.85717C6.03097 7.99363 5.85353 8.15866 5.70308 8.34694C5.50274 8.62277 5.39941 8.9572 5.40921 9.29797C5.41026 9.32432 5.42148 9.34924 5.4405 9.3675C5.45952 9.38576 5.48488 9.39595 5.51125 9.39592H6.79697C6.82296 9.39592 6.84786 9.38562 6.86623 9.36725C6.8846 9.34888 6.89493 9.32395 6.89493 9.29797C6.88202 8.91853 6.9149 8.53894 6.99289 8.16737C7.07958 7.84819 7.20574 7.54104 7.36841 7.25307C7.37986 7.23451 7.38445 7.21256 7.38147 7.19096C7.37849 7.16936 7.36811 7.14947 7.35207 7.13471Z" fill="#44281F"/>
<path d="M5.89442 7.05715C5.63888 7.04919 5.38924 7.13483 5.19239 7.29798V7.1347H5.0332V8.02041H5.19239C5.19525 7.92489 5.23368 7.83388 5.30011 7.76518C5.36655 7.69648 5.4562 7.65505 5.55158 7.64899C5.90668 7.61226 6.17609 7.80001 6.49446 7.80001C6.12303 8.08981 5.51486 8.39593 5.51486 9.30613H6.80058C6.74587 8.57684 6.91379 7.84812 7.28219 7.21634L7.16385 7.09796C6.86589 7.38367 6.4332 7.05715 5.89442 7.05715Z" fill="url(#paint11_linear_1309_20613)"/>
<path d="M5.89442 7.05715C5.63888 7.04919 5.38924 7.13483 5.19239 7.29798V7.1347H5.0332V8.02041H5.19239C5.19525 7.92489 5.23368 7.83388 5.30011 7.76518C5.36655 7.69648 5.4562 7.65505 5.55158 7.64899C5.90668 7.61226 6.17609 7.80001 6.49446 7.80001C6.17112 7.99169 5.89274 8.25059 5.67813 8.55919H5.82915C6.17055 8.56039 6.50979 8.50524 6.83322 8.39594C6.90638 7.97892 7.05289 7.57816 7.26589 7.21225L7.14751 7.0939C6.86588 7.38369 6.4332 7.05715 5.89442 7.05715Z" fill="url(#paint12_linear_1309_20613)"/>
<path d="M6.39632 7.69399C6.30081 7.68 6.20659 7.65817 6.11467 7.62869C5.96298 7.57833 5.80497 7.54947 5.64527 7.54297H5.53914C5.44462 7.55308 5.35725 7.59791 5.29391 7.6688C5.23056 7.73969 5.19576 7.83158 5.1963 7.92664H5.03711V8.02868H5.1963C5.19916 7.93316 5.23759 7.84213 5.30402 7.77343C5.37045 7.70473 5.46011 7.66332 5.55548 7.65727C5.91059 7.62053 6.18 7.80828 6.49837 7.80828L6.62078 7.70624C6.54574 7.70858 6.47067 7.70447 6.39632 7.69399Z" fill="url(#paint13_linear_1309_20613)"/>
<path d="M7.20898 7.13477C7.1804 7.18375 7.16 7.22864 7.16 7.22864C6.82202 7.8271 6.662 8.50966 6.69877 9.19599H5.51917C5.51705 9.22997 5.51705 9.26405 5.51917 9.29803H6.8049C6.75019 8.56873 6.91811 7.84001 7.2865 7.20823L7.20898 7.13477Z" fill="url(#paint14_linear_1309_20613)"/>
<path d="M7.03307 10.9675C7.09498 10.9673 7.1562 10.9545 7.21304 10.93C7.26987 10.9054 7.32114 10.8696 7.36371 10.8246C7.4086 10.7552 7.36367 10.6858 7.27796 10.6369C7.18696 10.591 7.08596 10.5685 6.98409 10.5715C6.98409 10.5266 6.95554 10.4736 6.8535 10.4246C6.77487 10.3862 6.6879 10.3679 6.60044 10.3715C6.51095 10.37 6.42207 10.3867 6.33921 10.4205C6.3074 10.4305 6.27793 10.4469 6.25267 10.4686C6.2274 10.4904 6.20687 10.5171 6.19228 10.5471L6.15551 10.6613L6.12287 10.5471C6.10829 10.5171 6.0877 10.4904 6.06244 10.4686C6.03717 10.4469 6.00776 10.4305 5.97594 10.4205C5.89153 10.3871 5.8014 10.3705 5.71062 10.3715C5.62326 10.3689 5.53652 10.3871 5.45757 10.4246C5.35961 10.4736 5.33101 10.5266 5.33101 10.5715C5.22909 10.568 5.12796 10.5905 5.03715 10.6369C4.93919 10.6858 4.90655 10.7552 4.95145 10.8246C4.99401 10.8696 5.04524 10.9054 5.10207 10.93C5.1589 10.9545 5.22012 10.9673 5.28203 10.9675C5.22012 10.9677 5.1589 10.9804 5.10207 11.005C5.04524 11.0295 4.99401 11.0654 4.95145 11.1103C4.90655 11.1797 4.95143 11.2491 5.03715 11.2981C5.12796 11.3445 5.22909 11.3669 5.33101 11.3634C5.33101 11.4083 5.35961 11.4613 5.45757 11.5103C5.53652 11.5478 5.62326 11.566 5.71062 11.5634C5.8014 11.5645 5.89153 11.5478 5.97594 11.5144C6.00776 11.5044 6.03717 11.488 6.06244 11.4663C6.0877 11.4445 6.10829 11.4178 6.12287 11.3879L6.15551 11.2736L6.19228 11.3879C6.20687 11.4178 6.2274 11.4445 6.25267 11.4663C6.27793 11.488 6.3074 11.5044 6.33921 11.5144C6.42207 11.5482 6.51095 11.5649 6.60044 11.5634C6.6879 11.567 6.77487 11.5488 6.8535 11.5103C6.95554 11.4613 6.98001 11.4083 6.98409 11.3634C7.08596 11.3664 7.18696 11.344 7.27796 11.2981C7.37592 11.2491 7.4086 11.1797 7.36371 11.1103C7.32114 11.0654 7.26987 11.0295 7.21304 11.005C7.1562 10.9804 7.09498 10.9677 7.03307 10.9675Z" fill="#44281F"/>
<path d="M6.87415 10.5917C6.87415 10.5428 6.90273 10.4856 6.78437 10.4244C6.666 10.3632 6.32724 10.4244 6.2905 10.5224L6.20067 10.8162C6.20067 10.8407 6.12313 10.8407 6.11497 10.8162L6.0211 10.5224C5.98437 10.404 5.69459 10.3469 5.53133 10.4244C5.36806 10.502 5.42516 10.5428 5.43741 10.5917C5.32517 10.5758 5.21074 10.5914 5.10682 10.6367C4.94355 10.7183 5.06191 10.8652 5.29864 10.8815L5.89051 10.9305C5.93949 10.9305 5.93949 10.9673 5.89051 10.9714L5.29864 11.0203C5.06191 11.0203 4.94355 11.1836 5.10682 11.2652C5.21074 11.3105 5.32517 11.326 5.43741 11.3101C5.43741 11.3591 5.41296 11.4162 5.53133 11.4775C5.64969 11.5387 5.98437 11.4979 6.0211 11.3795L6.11497 11.0856C6.11497 11.0611 6.19251 11.0611 6.20067 11.0856L6.2905 11.3795C6.32724 11.4979 6.6211 11.555 6.78437 11.4775C6.94763 11.3999 6.89048 11.3591 6.87415 11.3101C6.98638 11.3265 7.10098 11.3109 7.20479 11.2652C7.36805 11.1836 7.24965 11.0367 7.017 11.0203L6.42518 10.9714C6.3762 10.9714 6.3762 10.9346 6.42518 10.9305L7.017 10.8815C7.24965 10.8815 7.36805 10.7183 7.20479 10.6367C7.10098 10.591 6.98638 10.5754 6.87415 10.5917Z" fill="#5EAC41"/>
<path d="M6.78424 10.4245C6.72628 10.3995 6.66371 10.3869 6.60059 10.3877C6.63324 10.3877 6.82505 10.4204 6.77607 10.5837H6.87811C6.89035 10.5429 6.90261 10.4857 6.78424 10.4245Z" fill="#3F8724"/>
<path d="M5.99233 10.7551C5.99233 10.7551 5.99229 10.8368 6.15555 10.8368C6.15555 10.8368 6.11883 10.8368 6.11475 10.8164L6.02088 10.5225C6.0039 10.4916 5.97989 10.4652 5.95082 10.4454C5.92175 10.4255 5.88842 10.4128 5.85352 10.4082C5.88895 10.4407 5.91325 10.4835 5.92292 10.5306L5.99233 10.7551Z" fill="#3F8724"/>
<path d="M7.01737 11.0203L6.42555 10.9713C6.37657 10.9713 6.37657 10.9346 6.42555 10.9305L7.01737 10.8815C7.18472 10.8815 7.29493 10.7917 7.28268 10.7183C7.28268 10.7795 7.13985 10.8203 7.00108 10.8325L6.40921 10.8815C6.33982 10.8815 6.28679 10.9142 6.28679 10.9509C6.28679 10.9876 6.33982 11.0162 6.40921 11.0203L7.00108 11.0693C7.03328 11.0682 7.06533 11.0743 7.09495 11.087C7.12456 11.0997 7.15101 11.1187 7.17247 11.1427C7.17247 11.1427 7.19698 11.1958 7.13575 11.2285C7.08538 11.2545 7.02915 11.2671 6.97248 11.2652H6.89086H6.75619V11.3305C6.75847 11.344 6.75847 11.3578 6.75619 11.3713C6.75619 11.3713 6.75617 11.4203 6.6827 11.453C6.62718 11.4722 6.56677 11.4722 6.51125 11.453C6.4337 11.453 6.37656 11.408 6.36432 11.3713L6.27045 11.0734C6.27045 11.0366 6.20107 11.0121 6.1276 11.0121C6.05413 11.0121 5.997 11.0366 5.98884 11.0734L5.89492 11.3713C5.8734 11.4151 5.8395 11.4516 5.79741 11.4763C5.75533 11.5009 5.70692 11.5127 5.6582 11.5101C5.80514 11.5101 5.96844 11.4611 5.99292 11.3754L6.08679 11.0815C6.08679 11.057 6.16433 11.057 6.17249 11.0815L6.26228 11.3754C6.29901 11.4938 6.59292 11.5509 6.75619 11.4734C6.91945 11.3958 6.8623 11.355 6.84597 11.306C6.95821 11.3224 7.07275 11.3068 7.17656 11.2611C7.3684 11.1835 7.25002 11.0366 7.01737 11.0203Z" fill="#3F8724"/>
<path d="M5.10669 11.2654C5.05363 11.2368 5.0332 11.2042 5.0332 11.1715C5.0332 11.1389 5.09443 11.2858 5.44137 11.2613H5.46997V11.3144C5.34672 11.3355 5.21994 11.3184 5.10669 11.2654Z" fill="#3F8724"/>
<path d="M5.76435 10.8695C5.76435 10.8695 5.92762 10.8694 5.92762 10.9511C5.92762 10.9511 5.92764 10.9307 5.8909 10.9307L5.29904 10.8817C5.21493 10.8791 5.13369 10.8506 5.06641 10.8C5.14657 10.82 5.2287 10.831 5.31129 10.8327L5.76435 10.8695Z" fill="#3F8724"/>
<path d="M13.9309 5.0083H11.1758V11.3471H13.9309V5.0083Z" fill="url(#paint15_linear_1309_20613)"/>
<path d="M13.111 10.9021H13.0579C13.0424 10.8645 13.0341 10.8243 13.0335 10.7837C13.0913 10.8096 13.1514 10.8301 13.213 10.8449C13.3647 10.8767 13.5193 10.8917 13.6743 10.8898C13.6972 10.8944 13.7208 10.8944 13.7437 10.8898C13.7437 10.8898 13.7722 10.8653 13.7722 10.8531C13.7722 10.6653 13.5804 10.5633 13.4171 10.5102L13.2987 10.4776C13.3396 10.4776 13.3559 10.4245 13.3314 10.3959C13.2927 10.3637 13.2429 10.3476 13.1926 10.351H13.1314C13.0335 10.3755 12.9396 10.4 12.8539 10.4286C12.4749 10.413 12.0955 10.4417 11.7232 10.5143C11.6123 10.5338 11.5082 10.5815 11.4212 10.6531C11.3911 10.6789 11.3669 10.7108 11.35 10.7467C11.3331 10.7826 11.324 10.8216 11.3232 10.8613C11.3232 10.8613 11.3477 10.9021 11.3804 10.9102H11.4253C11.4468 10.9145 11.469 10.9145 11.4906 10.9102C11.62 10.8556 11.7584 10.8252 11.8988 10.8204H11.9845H12.1722L12.0988 10.8857H12.0008C11.6335 10.8857 11.3355 11.0368 11.3355 11.2204C11.3355 11.4041 11.6335 11.551 12.0008 11.551C12.1868 11.557 12.3707 11.5103 12.5314 11.4163C12.6992 11.5485 12.9101 11.614 13.1233 11.6C13.4906 11.6 13.7845 11.4531 13.7845 11.2694C13.7845 11.0857 13.4824 10.9021 13.111 10.9021ZM12.5804 11.0327C12.5191 10.9773 12.4468 10.9356 12.3682 10.9102C12.4896 10.8022 12.6274 10.714 12.7763 10.649C12.7419 10.7411 12.7419 10.8426 12.7763 10.9347C12.7075 10.9567 12.6427 10.9898 12.5845 11.0327H12.5804Z" fill="#44281F"/>
<path d="M13.2255 10.502C13.1614 10.534 13.1076 10.5835 13.0704 10.6448C13.058 10.6662 13.0497 10.6898 13.0459 10.7142C13.2417 10.8122 13.4602 10.8559 13.6786 10.8407C13.6786 10.6489 13.45 10.5509 13.2255 10.502Z" fill="#5EAC41"/>
<path d="M13.2255 10.502C13.1614 10.534 13.1076 10.5835 13.0704 10.6448C13.058 10.6662 13.0497 10.6898 13.0459 10.7142C13.0751 10.7331 13.1067 10.7482 13.1398 10.7591C13.1449 10.7074 13.1645 10.6582 13.1963 10.617C13.228 10.5759 13.2707 10.5445 13.3194 10.5264L13.2255 10.502Z" fill="#3F8724"/>
<path d="M12.964 10.9102C12.9371 10.8462 12.9313 10.7753 12.9474 10.7077C12.9636 10.6402 13.0008 10.5796 13.0537 10.5347L12.8946 10.5918C12.8625 10.6409 12.8432 10.6972 12.8382 10.7556C12.8332 10.814 12.8428 10.8727 12.866 10.9265L12.964 10.9102Z" fill="#81492E"/>
<path d="M12.8943 10.5918C12.8767 10.6168 12.863 10.6443 12.8535 10.6734L12.9801 10.6204C12.9997 10.5879 13.0245 10.559 13.0535 10.5347L12.8943 10.5918Z" fill="#693822"/>
<path d="M12.9596 10.9103V10.8613H12.8617C12.8599 10.879 12.8599 10.8967 12.8617 10.9144L12.9596 10.9103Z" fill="#693822"/>
<path d="M13.242 10.4C13.232 10.3947 13.2208 10.3918 13.2094 10.3918C13.198 10.3918 13.1868 10.3947 13.1767 10.4L12.9727 10.4531C12.977 10.455 12.9807 10.4581 12.9833 10.4621C12.9859 10.4661 12.9874 10.4708 12.9874 10.4755C12.9874 10.4803 12.9859 10.485 12.9833 10.489C12.9807 10.4929 12.977 10.4961 12.9727 10.498C13.0502 10.4735 13.1318 10.449 13.2257 10.4286C13.242 10.4327 13.2543 10.4 13.242 10.4Z" fill="#81492E"/>
<path d="M12.2941 10.8857C12.339 10.8449 12.392 10.8 12.4573 10.751C12.4077 10.7631 12.3572 10.7713 12.3063 10.7755L12.2002 10.8653L12.2941 10.8857Z" fill="#693822"/>
<path d="M12.4542 11.2163C12.4567 11.1608 12.48 11.1084 12.5195 11.0693C12.4495 11.0036 12.3664 10.9532 12.2757 10.9216C12.185 10.8899 12.0887 10.8777 11.993 10.8857C11.6787 10.8857 11.4297 11.0122 11.4297 11.1673C11.4297 11.3224 11.6787 11.4489 11.993 11.4489C12.1664 11.458 12.3377 11.4076 12.4786 11.3061C12.4625 11.2789 12.4541 11.2479 12.4542 11.2163Z" fill="#F0323A"/>
<path d="M12.4539 11.2164C12.4564 11.1609 12.4797 11.1084 12.5192 11.0694L12.4662 11.0164C12.4329 11.0385 12.4052 11.0681 12.3854 11.1029C12.3655 11.1376 12.3541 11.1764 12.3519 11.2164C12.348 11.2434 12.348 11.2709 12.3519 11.298C12.2395 11.3679 12.1086 11.4021 11.9764 11.3959C11.7192 11.3959 11.4131 11.2939 11.4131 11.1674C11.4131 11.3225 11.6621 11.449 11.9764 11.449C12.118 11.4516 12.2582 11.4194 12.3845 11.3551L12.458 11.3061C12.4489 11.2771 12.4475 11.2461 12.4539 11.2164Z" fill="#C9181F"/>
<path d="M13.115 11.5144C13.4261 11.5144 13.6783 11.3883 13.6783 11.2328C13.6783 11.0773 13.4261 10.9512 13.115 10.9512C12.8039 10.9512 12.5518 11.0773 12.5518 11.2328C12.5518 11.3883 12.8039 11.5144 13.115 11.5144Z" fill="#F0323A"/>
<path d="M13.1111 11.4653C12.8581 11.4653 12.5479 11.3592 12.5479 11.2327C12.5479 11.3878 12.8009 11.5143 13.1111 11.5143C13.4213 11.5143 13.6744 11.3878 13.6744 11.2327C13.6785 11.3592 13.3723 11.4653 13.1111 11.4653Z" fill="#C9181F"/>
<path d="M11.8865 10.755C12.2466 10.7913 12.6071 10.6891 12.8946 10.4692C11.862 10.4692 11.4416 10.555 11.4375 10.8529C11.5802 10.7939 11.7322 10.7607 11.8865 10.755Z" fill="#5EAC41"/>
<path d="M13.437 5.01219C13.4868 4.98723 13.5387 4.96675 13.5921 4.95098C13.6656 4.95098 13.6901 4.88159 13.6452 4.84486C13.608 4.8195 13.5636 4.80662 13.5186 4.80811C13.4929 4.80385 13.4668 4.80385 13.4411 4.80811C13.3857 4.82433 13.3312 4.84341 13.2778 4.86526C13.156 4.78693 13.0145 4.7445 12.8697 4.74282C12.8085 4.73849 12.7471 4.73849 12.686 4.74282C12.6288 4.74282 12.5676 4.74282 12.4982 4.74282C12.4227 4.74254 12.3475 4.73433 12.2737 4.71833H12.2411C12.2182 4.71336 12.1945 4.71336 12.1717 4.71833C12.1431 4.71833 12.1309 4.75098 12.1431 4.76731C12.1516 4.78387 12.1626 4.79901 12.1758 4.8122C12.0111 4.83712 11.8506 4.8838 11.6982 4.95098C11.4656 5.06119 11.335 5.20405 11.335 5.35915C11.335 5.51425 11.4656 5.65711 11.6982 5.76731C11.9703 5.88305 12.2638 5.94006 12.5595 5.93465C12.8564 5.93954 13.1511 5.88256 13.4248 5.76731C13.6574 5.66119 13.7839 5.51425 13.7839 5.35915C13.7839 5.20405 13.6574 5.11832 13.437 5.01219Z" fill="#44281F"/>
<path d="M13.3685 5.04901L13.3317 5.07758C13.2942 5.10922 13.246 5.12528 13.197 5.12247H13.1277C13.0987 5.11656 13.0727 5.10068 13.0542 5.07758C13.0481 5.07085 13.0448 5.06213 13.0448 5.05309C13.0448 5.04406 13.0481 5.03534 13.0542 5.0286C12.9491 5.04715 12.8425 5.05535 12.7358 5.05309C12.5544 5.05891 12.3754 5.01059 12.2215 4.91431C11.7603 4.98369 11.4297 5.1796 11.4297 5.41634C11.4297 5.65307 11.9317 5.9388 12.5521 5.9388C13.1725 5.9388 13.6787 5.70205 13.6787 5.41634C13.6787 5.2694 13.5603 5.14289 13.3685 5.04901Z" fill="#FE7C2E"/>
<path d="M13.3681 5.04901L13.3314 5.07758C13.2939 5.10922 13.2456 5.12528 13.1967 5.12247H13.1273C13.0983 5.11656 13.0723 5.10068 13.0538 5.07758C13.0478 5.07085 13.0444 5.06213 13.0444 5.05309C13.0444 5.04406 13.0478 5.03534 13.0538 5.0286C12.9487 5.04715 12.8421 5.05535 12.7354 5.05309C12.554 5.05891 12.375 5.01059 12.2211 4.91431L12.1232 4.93471C12.3061 5.05 12.5193 5.10827 12.7354 5.10207C12.8102 5.10637 12.8852 5.10637 12.9599 5.10207C12.9908 5.14023 13.0342 5.16625 13.0824 5.17554C13.1204 5.17975 13.1587 5.17975 13.1967 5.17554C13.2602 5.17642 13.3232 5.16243 13.3804 5.13471C13.4341 5.16029 13.4803 5.19925 13.5146 5.24786C13.5489 5.29646 13.5702 5.3531 13.5763 5.41228C13.5763 5.66942 13.1191 5.88165 12.5518 5.88165C12.2664 5.89224 11.9814 5.85075 11.7109 5.75921C11.9742 5.88092 12.2618 5.94094 12.5518 5.93471C13.1763 5.93471 13.6783 5.69799 13.6783 5.41228C13.6783 5.26942 13.5599 5.14289 13.3681 5.04901Z" fill="#E0651B"/>
<path d="M13.1107 5.50195C13.0821 5.50195 13.0576 5.50195 13.0576 5.52644C13.0576 5.55093 13.0821 5.55093 13.1107 5.55093C13.1393 5.55093 13.1597 5.55093 13.1597 5.52644C13.1597 5.50195 13.1311 5.50195 13.1107 5.50195Z" fill="#E0651B"/>
<path d="M12.8048 5.56738C12.7763 5.56738 12.7559 5.56738 12.7559 5.59187C12.7559 5.61636 12.7559 5.61639 12.8048 5.61639C12.8538 5.61639 12.8538 5.61636 12.8538 5.59187C12.8538 5.56738 12.8334 5.56738 12.8048 5.56738Z" fill="#E0651B"/>
<path d="M12.8048 5.71826C12.7763 5.71826 12.7559 5.71826 12.7559 5.74275C12.7559 5.76724 12.7559 5.76724 12.8048 5.76724C12.8538 5.76724 12.8538 5.76724 12.8538 5.74275C12.8538 5.71826 12.8334 5.71826 12.8048 5.71826Z" fill="#E0651B"/>
<path d="M12.5021 5.76729C12.4735 5.76729 12.4531 5.76729 12.4531 5.79178C12.4531 5.81627 12.4531 5.82035 12.5021 5.82035C12.5511 5.82035 12.5511 5.82035 12.5511 5.79178C12.5511 5.76321 12.5307 5.76729 12.5021 5.76729Z" fill="#E0651B"/>
<path d="M13.4044 5.31836C13.38 5.31836 13.3555 5.31836 13.3555 5.34285C13.3555 5.36734 13.38 5.36734 13.4044 5.36734C13.4289 5.36734 13.4575 5.36734 13.4575 5.34285C13.4575 5.31836 13.433 5.31836 13.4044 5.31836Z" fill="#E0651B"/>
<path d="M13.4044 5.46533C13.38 5.46533 13.3555 5.46534 13.3555 5.49391C13.3555 5.52248 13.38 5.5184 13.4044 5.5184C13.4289 5.5184 13.4575 5.5184 13.4575 5.49391C13.4575 5.46942 13.433 5.46533 13.4044 5.46533Z" fill="#E0651B"/>
<path d="M13.1107 5.66943C13.0821 5.66943 13.0576 5.66943 13.0576 5.69392C13.0576 5.71841 13.0821 5.71844 13.1107 5.71844C13.1393 5.71844 13.1597 5.71841 13.1597 5.69392C13.1597 5.66943 13.1311 5.66943 13.1107 5.66943Z" fill="#E0651B"/>
<path d="M13.196 5.06955H13.1716C13.1471 5.06955 13.1389 5.04505 13.1511 5.0328C13.2532 4.95642 13.3679 4.89842 13.4899 4.86138C13.5122 4.85252 13.537 4.85252 13.5593 4.86138C13.5593 4.86138 13.5593 4.88588 13.5593 4.89404C13.4503 4.92563 13.3479 4.9768 13.2573 5.04506C13.2497 5.05363 13.2402 5.06032 13.2296 5.06457C13.2189 5.06882 13.2074 5.07052 13.196 5.06955Z" fill="#5EAC41"/>
<path d="M12.7354 4.99605C12.6427 5.00346 12.5496 4.99008 12.4627 4.95689C12.3759 4.9237 12.2975 4.87153 12.2334 4.8042C12.4421 4.8312 12.6533 4.8312 12.862 4.8042C12.9818 4.80438 13.0986 4.84144 13.1967 4.91033C13.0532 4.97907 12.894 5.00866 12.7354 4.99605Z" fill="#5EAC41"/>
<path d="M13.7476 7.13471L13.6333 7.01635C13.6237 7.00676 13.6122 6.99925 13.5995 6.99433C13.5869 6.98941 13.5733 6.98719 13.5598 6.98778C13.5469 6.98751 13.5341 6.98991 13.5221 6.99483C13.5102 6.99974 13.4994 7.00707 13.4904 7.01635C13.4592 7.04639 13.4219 7.06952 13.3811 7.08429C13.3403 7.09905 13.2969 7.1051 13.2537 7.10205C13.1279 7.09381 13.0033 7.07192 12.8822 7.03675C12.6897 6.98047 12.4909 6.94894 12.2904 6.94288C12.1607 6.94233 12.0315 6.96017 11.9068 6.99592C11.8285 7.02013 11.7532 7.05301 11.6822 7.0939C11.6761 7.07379 11.6637 7.05617 11.6468 7.04368C11.6299 7.03118 11.6094 7.02446 11.5884 7.0245H11.4292C11.4028 7.02448 11.3775 7.03468 11.3584 7.05295C11.3394 7.07121 11.3282 7.0961 11.3271 7.12245V8.00818C11.3282 8.03453 11.3394 8.05945 11.3584 8.07771C11.3775 8.09598 11.4028 8.10616 11.4292 8.10614H11.5884C11.6147 8.10616 11.6401 8.09598 11.6591 8.07771C11.6782 8.05945 11.6894 8.03453 11.6904 8.00818C11.6893 7.97181 11.6964 7.93563 11.7112 7.90241C11.7261 7.86918 11.7483 7.83976 11.7761 7.81633C11.8261 7.77179 11.8891 7.74459 11.9557 7.73878H12.0414C12.1801 7.74537 12.3173 7.77006 12.4496 7.81225L12.6251 7.85717C12.4265 7.99363 12.249 8.15866 12.0986 8.34694C11.8982 8.62277 11.7949 8.9572 11.8047 9.29797C11.8058 9.32432 11.817 9.34924 11.836 9.3675C11.855 9.38576 11.8804 9.39595 11.9068 9.39592H13.1924C13.2184 9.39592 13.2434 9.38562 13.2617 9.36725C13.2801 9.34888 13.2904 9.32395 13.2904 9.29797C13.2775 8.91853 13.3104 8.53894 13.3884 8.16737C13.4751 7.84819 13.6012 7.54104 13.7639 7.25307C13.7753 7.23451 13.78 7.21256 13.777 7.19096C13.774 7.16936 13.7636 7.14947 13.7476 7.13471Z" fill="#44281F"/>
<path d="M12.2948 7.05715C12.0393 7.04919 11.7896 7.13483 11.5928 7.29798V7.1347H11.4336V8.02041H11.5928C11.5956 7.92489 11.634 7.83388 11.7005 7.76518C11.7669 7.69648 11.8566 7.65505 11.952 7.64899C12.3071 7.61226 12.5764 7.80001 12.8948 7.80001C12.5234 8.08981 11.9152 8.39593 11.9152 9.30613H13.2009C13.1462 8.57684 13.3142 7.84812 13.6826 7.21634L13.5642 7.09796C13.2622 7.38367 12.8295 7.05715 12.2948 7.05715Z" fill="url(#paint16_linear_1309_20613)"/>
<path d="M12.2948 7.05715C12.0393 7.04919 11.7896 7.13483 11.5928 7.29798V7.1347H11.4336V8.02041H11.5928C11.5956 7.92489 11.634 7.83388 11.7005 7.76518C11.7669 7.69648 11.8566 7.65505 11.952 7.64899C12.3071 7.61226 12.5764 7.80001 12.8948 7.80001C12.5715 7.99169 12.2931 8.25059 12.0785 8.55919H12.2295C12.5709 8.56077 12.9103 8.50561 13.2336 8.39594C13.3068 7.97892 13.4532 7.57816 13.6662 7.21225L13.5479 7.0939C13.2621 7.38369 12.8295 7.05715 12.2948 7.05715Z" fill="url(#paint17_linear_1309_20613)"/>
<path d="M12.7928 7.69399C12.6972 7.68 12.6031 7.65817 12.5112 7.62869C12.3595 7.57833 12.2015 7.54947 12.0418 7.54297H11.9356C11.8411 7.55308 11.7537 7.59791 11.6903 7.6688C11.627 7.73969 11.5922 7.83158 11.5928 7.92664H11.4336V8.02868H11.5928C11.5956 7.93316 11.634 7.84213 11.7005 7.77343C11.7669 7.70473 11.8566 7.66332 11.952 7.65727C12.3071 7.62053 12.5764 7.80828 12.8948 7.80828L13.0173 7.70624C12.9422 7.70858 12.8671 7.70447 12.7928 7.69399Z" fill="url(#paint18_linear_1309_20613)"/>
<path d="M13.6045 7.13477C13.5759 7.18375 13.5555 7.22864 13.5555 7.22864C13.2175 7.8271 13.0575 8.50966 13.0943 9.19599H11.9147C11.9126 9.22997 11.9126 9.26405 11.9147 9.29803H13.2004C13.1457 8.56873 13.3137 7.84001 13.6821 7.20823L13.6045 7.13477Z" fill="url(#paint19_linear_1309_20613)"/>
<path d="M10.7317 5.0083H7.97656V11.3471H10.7317V5.0083Z" fill="url(#paint20_linear_1309_20613)"/>
<path d="M10.5965 10.6856C10.5953 10.6377 10.581 10.591 10.5551 10.5507C10.5291 10.5104 10.4926 10.478 10.4495 10.4571H10.5026C10.5312 10.4571 10.5516 10.4571 10.5475 10.4285C10.5396 10.4234 10.5304 10.4207 10.521 10.4207C10.5116 10.4207 10.5023 10.4234 10.4944 10.4285C10.4523 10.425 10.41 10.425 10.3679 10.4285C10.2204 10.3689 10.0615 10.3424 9.9026 10.3509C9.77635 10.3548 9.65067 10.3698 9.52708 10.3958C9.46789 10.4045 9.4093 10.4168 9.35159 10.4326H9.20466C8.95919 10.4441 8.71811 10.5023 8.49441 10.604C8.41569 10.6353 8.34467 10.6832 8.28619 10.7445C8.22772 10.8058 8.1832 10.879 8.15565 10.9591C8.13839 11.0296 8.14863 11.104 8.18425 11.1673C8.1973 11.1968 8.20403 11.2288 8.20403 11.2611C8.20403 11.2935 8.1973 11.3255 8.18425 11.355C8.18425 11.355 8.18425 11.355 8.18425 11.3795C8.18425 11.404 8.22099 11.4693 8.28629 11.502C8.36185 11.5362 8.44416 11.5529 8.5271 11.5509H8.72709C8.80042 11.5446 8.87418 11.5446 8.94752 11.5509C9.04401 11.5571 9.1408 11.5571 9.2373 11.5509H9.36789C9.61391 11.5434 9.85572 11.4851 10.0781 11.3795C10.1565 11.3489 10.2274 11.3017 10.2859 11.2411C10.3444 11.1805 10.3891 11.108 10.4169 11.0285C10.4209 11.0042 10.4209 10.9793 10.4169 10.955C10.5076 10.8901 10.5715 10.7943 10.5965 10.6856Z" fill="#44281F"/>
<path d="M10.2824 10.9918C10.2824 10.9918 9.91512 10.8694 9.91512 10.6898C9.92007 10.6524 9.93419 10.6167 9.95627 10.5861C9.97835 10.5555 10.0077 10.5308 10.0416 10.5143H10.0702H9.98856C9.87608 10.5286 9.76227 10.5286 9.6498 10.5143C9.50664 10.4929 9.36166 10.486 9.21712 10.4939C8.711 10.5224 8.31101 10.7225 8.25386 10.9714C8.24037 11.0368 8.25053 11.1047 8.28246 11.1633C8.2965 11.1962 8.30374 11.2316 8.30374 11.2673C8.30374 11.3031 8.2965 11.3385 8.28246 11.3714C8.28548 11.3906 8.29345 11.4086 8.30563 11.4236C8.31781 11.4386 8.33374 11.4502 8.35182 11.4572C8.40563 11.4817 8.46414 11.4942 8.52327 11.4939H8.55999C8.69568 11.4799 8.83245 11.4799 8.96815 11.4939C9.09438 11.5063 9.22154 11.5063 9.34776 11.4939C9.85389 11.4653 10.2539 11.2653 10.311 11.0122C10.311 11.0122 10.311 11.0122 10.311 10.9837C10.3019 10.9877 10.2923 10.9904 10.2824 10.9918Z" fill="#FFCE33"/>
<path d="M10.2826 10.9917C10.2826 10.9917 9.91527 10.8693 9.91527 10.6897C9.91527 10.8611 10.1234 10.9917 10.2255 11.0448C10.1602 11.2611 9.81731 11.453 9.36017 11.453H9.24996C9.1711 11.457 9.09205 11.457 9.01319 11.453C8.92263 11.4398 8.83128 11.433 8.73976 11.4326H8.56014C8.46218 11.4326 8.32342 11.3958 8.31934 11.3672C8.31934 11.3999 8.34793 11.4285 8.38874 11.4489C8.44255 11.4734 8.50101 11.4859 8.56014 11.4856H8.59686C8.73255 11.4716 8.86933 11.4716 9.00502 11.4856C9.13125 11.498 9.25841 11.498 9.38464 11.4856C9.89076 11.457 10.2908 11.257 10.3479 11.004C10.3479 11.004 10.3479 11.004 10.3479 10.9754C10.3284 10.9875 10.3055 10.9932 10.2826 10.9917Z" fill="#FFB329"/>
<path d="M10.3349 10.4692C10.188 10.4692 10.0166 10.5835 10.0166 10.6897C10.0166 10.7958 10.3349 10.9509 10.3349 10.9509C10.3349 10.9509 10.4982 10.8162 10.4982 10.6856C10.4982 10.555 10.4615 10.5345 10.3349 10.4692Z" fill="#5EAC41"/>
<path d="M10.2539 10.4897H10.2825C10.3763 10.5427 10.4131 10.5917 10.4131 10.6733C10.3947 10.7644 10.3457 10.8465 10.2743 10.906L10.3519 10.9387C10.3519 10.9387 10.5151 10.804 10.5151 10.6733C10.5151 10.5427 10.4784 10.5223 10.3519 10.457C10.318 10.4637 10.285 10.4747 10.2539 10.4897Z" fill="#3F8724"/>
<path d="M9.90259 10.3999C9.78602 10.4039 9.66998 10.4175 9.55566 10.4407H9.68217C9.73105 10.4451 9.78022 10.4451 9.8291 10.4407H9.96791H10.0495H10.1638H10.2454C10.1345 10.4069 10.0184 10.3931 9.90259 10.3999Z" fill="#3F8724"/>
<path d="M9.437 10.951C9.437 10.951 9.41251 10.9755 9.38394 10.9755C9.35537 10.9755 9.33496 10.9755 9.33496 10.951C9.33496 10.9265 9.33496 10.9265 9.38394 10.9265C9.43292 10.9265 9.437 10.9388 9.437 10.951Z" fill="#FFB329"/>
<path d="M9.52276 11.151C9.52276 11.151 9.52276 11.1754 9.47378 11.1754C9.4248 11.1754 9.4248 11.1754 9.4248 11.151C9.4248 11.1265 9.4248 11.1265 9.47378 11.1265C9.52276 11.1265 9.52276 11.1387 9.52276 11.151Z" fill="#FFB329"/>
<path d="M8.82079 11.253C8.82079 11.253 8.7963 11.2775 8.77181 11.2775C8.74732 11.2775 8.71875 11.2775 8.71875 11.253C8.71875 11.2285 8.74324 11.2285 8.77181 11.2285C8.80038 11.2285 8.82079 11.2367 8.82079 11.253Z" fill="#FFB329"/>
<path d="M9.92724 11.2163C9.92724 11.2163 9.90274 11.2408 9.87417 11.2408C9.8456 11.2408 9.8252 11.2408 9.8252 11.2163C9.8252 11.1918 9.82519 11.1877 9.87417 11.1877C9.92315 11.1877 9.92724 11.1877 9.92724 11.2163Z" fill="#FFB329"/>
<path d="M9.437 11.3021C9.437 11.3021 9.41251 11.3266 9.38394 11.3266C9.35537 11.3266 9.33496 11.3266 9.33496 11.3021C9.33496 11.2776 9.33496 11.2776 9.38394 11.2776C9.43292 11.2776 9.437 11.2898 9.437 11.3021Z" fill="#FFB329"/>
<path d="M9.8452 11.0001C9.8452 11.0001 9.82072 11.0246 9.79623 11.0246C9.77174 11.0246 9.74316 11.0246 9.74316 11.0001C9.74316 10.9756 9.76766 10.9756 9.79623 10.9756C9.8248 10.9756 9.8452 10.9878 9.8452 11.0001Z" fill="#FFB329"/>
<path d="M9.93523 5.31832H9.88216C9.86661 5.28076 9.85833 5.2406 9.8577 5.19996C9.91555 5.22586 9.97565 5.24634 10.0373 5.26117C10.1889 5.29292 10.3436 5.308 10.4985 5.30608C10.5214 5.3107 10.545 5.3107 10.5679 5.30608C10.5679 5.30608 10.5965 5.28158 10.5965 5.26934C10.5965 5.08158 10.4046 4.97956 10.2414 4.9265L10.123 4.89384C10.1638 4.87343 10.1801 4.84077 10.1557 4.8122C10.1169 4.77993 10.0672 4.76385 10.0169 4.76731H9.95566L9.67808 4.84077C9.29903 4.82804 8.91975 4.85815 8.54746 4.93056C8.4365 4.94999 8.33245 4.99781 8.24543 5.06934C8.21452 5.09446 8.18969 5.1262 8.17273 5.16224C8.15577 5.19828 8.14713 5.23769 8.14747 5.27751C8.14747 5.29792 8.17197 5.31424 8.20462 5.3224H8.24951C8.27111 5.3263 8.29324 5.3263 8.31483 5.3224C8.44427 5.26781 8.5826 5.23739 8.72299 5.23262H8.80869H8.99648L8.92299 5.29791H8.82095C8.45768 5.29791 8.15973 5.44893 8.15973 5.62852C8.15973 5.80812 8.45768 5.96322 8.82095 5.96322C9.00833 5.96976 9.19375 5.92305 9.35567 5.82852C9.52332 5.96106 9.73425 6.02653 9.94748 6.0122C10.3148 6.0122 10.6087 5.86526 10.6087 5.68159C10.6087 5.49791 10.3026 5.31832 9.93523 5.31832ZM9.40465 5.44893C9.34336 5.39356 9.27101 5.35183 9.19239 5.32649C9.30762 5.22022 9.43836 5.13213 9.58013 5.06526C9.54745 5.15769 9.54745 5.25854 9.58013 5.35098C9.51781 5.37627 9.45889 5.40917 9.40465 5.44893Z" fill="#44281F"/>
<path d="M10.0458 4.91846C9.98162 4.95047 9.92785 4.99999 9.89067 5.0613C9.87829 5.08272 9.87001 5.10627 9.86621 5.13071C10.0627 5.22667 10.2806 5.27025 10.4988 5.25724C10.4988 5.06132 10.2539 4.96335 10.0458 4.91846Z" fill="#5EAC41"/>
<path d="M10.0458 4.91846C9.98162 4.95047 9.92785 4.99999 9.89067 5.0613C9.87829 5.08272 9.87001 5.10627 9.86621 5.13071C9.89546 5.14962 9.927 5.1647 9.96008 5.1756C9.96427 5.1236 9.98345 5.07393 10.0153 5.03263C10.0472 4.99133 10.0904 4.96017 10.1396 4.94295L10.0458 4.91846Z" fill="#3F8724"/>
<path d="M9.78427 5.32668C9.75603 5.26289 9.74951 5.19158 9.76574 5.12374C9.78196 5.0559 9.82002 4.99528 9.87405 4.95117C9.81992 4.9671 9.76681 4.98616 9.71491 5.0083C9.6829 5.05739 9.6635 5.11367 9.65851 5.17207C9.65353 5.23047 9.66309 5.28918 9.68631 5.34299L9.78427 5.32668Z" fill="#81492E"/>
<path d="M9.71468 5.0083C9.69708 5.03331 9.68328 5.06084 9.67383 5.08993L9.80038 5.03687C9.81997 5.00444 9.84477 4.97549 9.87382 4.95117C9.81969 4.9671 9.76658 4.98616 9.71468 5.0083Z" fill="#693822"/>
<path d="M9.78052 5.32657V5.27759H9.68257C9.68133 5.29525 9.68133 5.31299 9.68257 5.33065L9.78052 5.32657Z" fill="#693822"/>
<path d="M10.0624 4.82043C10.0523 4.81507 10.0411 4.81226 10.0297 4.81226C10.0183 4.81226 10.0071 4.81507 9.99705 4.82043C9.92358 4.82043 9.85827 4.85308 9.79297 4.8694C9.81338 4.8694 9.81338 4.90206 9.79297 4.91838C9.87561 4.88939 9.96016 4.86621 10.046 4.849C10.0624 4.84492 10.0746 4.83267 10.0624 4.82043Z" fill="#81492E"/>
<path d="M9.10656 5.30194C9.15672 5.2521 9.21138 5.20701 9.26984 5.16724C9.22022 5.17936 9.16973 5.18754 9.11882 5.19173C9.08192 5.2198 9.04649 5.24978 9.0127 5.28153L9.10656 5.30194Z" fill="#693822"/>
<path d="M9.27449 5.64907C9.27698 5.59362 9.30032 5.54115 9.33981 5.50214C9.26919 5.43603 9.18544 5.38551 9.09403 5.35386C9.00261 5.32222 8.90556 5.31016 8.80918 5.31846C8.49898 5.31846 8.25 5.44091 8.25 5.59601C8.25 5.75111 8.49898 5.87765 8.80918 5.87765C8.98307 5.88478 9.15471 5.83617 9.29901 5.73888C9.28344 5.71148 9.27499 5.68059 9.27449 5.64907Z" fill="#F0323A"/>
<path d="M9.27418 5.64897C9.27667 5.59351 9.30001 5.54105 9.3395 5.50204C9.32504 5.48139 9.30708 5.46344 9.28644 5.44897C9.25315 5.47113 9.22547 5.50075 9.20563 5.53547C9.18579 5.57019 9.17433 5.60904 9.17214 5.64897C9.16829 5.67605 9.16829 5.70353 9.17214 5.73061C9.05775 5.79929 8.92592 5.83331 8.79258 5.82856C8.53952 5.82856 8.2334 5.72652 8.2334 5.59591C8.2334 5.75101 8.48238 5.87754 8.79258 5.87754C8.9339 5.88108 9.07396 5.85028 9.20074 5.78776L9.27418 5.73878C9.26692 5.70929 9.26692 5.67846 9.27418 5.64897Z" fill="#C9181F"/>
<path d="M9.93534 5.92655C10.2464 5.92655 10.4986 5.80045 10.4986 5.64491C10.4986 5.48937 10.2464 5.36328 9.93534 5.36328C9.62425 5.36328 9.37207 5.48937 9.37207 5.64491C9.37207 5.80045 9.62425 5.92655 9.93534 5.92655Z" fill="#F0323A"/>
<path d="M9.93534 5.8775C9.68228 5.8775 9.37207 5.77546 9.37207 5.64893C9.37207 5.80403 9.62513 5.93056 9.93534 5.93056C10.2455 5.93056 10.4986 5.80403 10.4986 5.64893C10.4986 5.77546 10.1884 5.8775 9.93534 5.8775Z" fill="#C9181F"/>
<path d="M8.69897 5.17146C9.05894 5.20573 9.41871 5.10377 9.70717 4.88574C8.67452 4.88574 8.25408 4.97146 8.25 5.26942C8.39267 5.2104 8.54469 5.17724 8.69897 5.17146Z" fill="#5EAC41"/>
<path d="M10.5512 7.13471L10.4329 7.01635C10.4238 7.00722 10.413 6.99997 10.4011 6.99503C10.3892 6.99008 10.3764 6.98753 10.3635 6.98753C10.3506 6.98753 10.3378 6.99008 10.3259 6.99503C10.314 6.99997 10.3032 7.00722 10.2941 7.01635C10.2625 7.04598 10.2253 7.06885 10.1846 7.08359C10.1439 7.09833 10.1006 7.10461 10.0574 7.10205C9.93022 7.09385 9.80431 7.07196 9.68185 7.03675C9.48942 6.98017 9.29053 6.94862 9.09003 6.94288C8.96162 6.94233 8.83376 6.96018 8.71042 6.99592C8.6319 7.01937 8.55655 7.05228 8.48596 7.0939C8.47929 7.07412 8.46667 7.05686 8.44989 7.04445C8.4331 7.03204 8.41291 7.02507 8.39204 7.0245H8.22881C8.20283 7.0245 8.17788 7.03482 8.15951 7.0532C8.14114 7.07157 8.13086 7.09647 8.13086 7.12245V8.00818C8.13086 8.03416 8.14114 8.05907 8.15951 8.07744C8.17788 8.09581 8.20283 8.10614 8.22881 8.10614H8.39204C8.41802 8.10614 8.44298 8.09581 8.46135 8.07744C8.47972 8.05907 8.49005 8.03416 8.49005 8.00818C8.48876 7.97138 8.49621 7.93481 8.51182 7.90146C8.52743 7.86811 8.55075 7.83892 8.57983 7.81633C8.62926 7.77101 8.69251 7.74368 8.7594 7.73878H8.84106C8.97974 7.74537 9.11695 7.77006 9.24922 7.81225L9.42471 7.85717C9.22423 7.99135 9.04652 8.15668 8.89821 8.34694C8.69617 8.62192 8.59261 8.95695 8.60429 9.29797C8.60429 9.32395 8.61462 9.34888 8.63299 9.36725C8.65136 9.38562 8.67627 9.39592 8.70225 9.39592H9.98797C10.0143 9.39595 10.0397 9.38576 10.0587 9.3675C10.0777 9.34924 10.089 9.32432 10.09 9.29797C10.0771 8.91853 10.11 8.53894 10.188 8.16737C10.2731 7.84829 10.3979 7.54111 10.5594 7.25307C10.5712 7.23516 10.5768 7.21388 10.5753 7.1925C10.5738 7.17112 10.5654 7.15083 10.5512 7.13471Z" fill="#44281F"/>
<path d="M9.09071 7.05708C8.8365 7.04974 8.58831 7.13537 8.39272 7.2979V7.13463H8.22949V8.02034H8.39272C8.39457 7.92518 8.43213 7.8342 8.4979 7.76541C8.56367 7.69662 8.65289 7.65504 8.74787 7.64892C9.10705 7.61218 9.37641 7.79994 9.6907 7.79994C9.31927 8.08973 8.7111 8.39586 8.7111 9.30606H9.99682C9.94211 8.57677 10.1101 7.84805 10.4785 7.21627L10.3642 7.09788C10.0621 7.3836 9.63357 7.05708 9.09071 7.05708Z" fill="url(#paint21_linear_1309_20613)"/>
<path d="M9.09071 7.05708C8.8365 7.04974 8.58831 7.13537 8.39272 7.2979V7.13463H8.22949V8.02034H8.39272C8.39457 7.92518 8.43213 7.8342 8.4979 7.76541C8.56367 7.69662 8.65289 7.65504 8.74787 7.64892C9.10705 7.61218 9.37641 7.79994 9.6907 7.79994C9.37459 7.99374 9.10331 8.25251 8.8948 8.55911H9.04582C9.38719 8.56002 9.72638 8.50488 10.0499 8.39586C10.1152 7.98035 10.2534 7.57962 10.458 7.21218L10.3438 7.09382C10.0621 7.38362 9.63357 7.05708 9.09071 7.05708Z" fill="url(#paint22_linear_1309_20613)"/>
<path d="M9.59665 7.69399C9.49988 7.67957 9.40433 7.65775 9.31091 7.62869C9.15931 7.57796 9.0013 7.54908 8.84156 7.54297H8.73952C8.64499 7.55308 8.55758 7.59791 8.49423 7.6688C8.43088 7.73969 8.39608 7.83158 8.39662 7.92664H8.2334V8.02868H8.39662C8.39847 7.93353 8.43603 7.84255 8.5018 7.77376C8.56757 7.70496 8.65675 7.66339 8.75172 7.65727C9.11091 7.62053 9.38032 7.80828 9.6946 7.80828L9.81707 7.70624C9.74339 7.70861 9.66962 7.7045 9.59665 7.69399Z" fill="url(#paint23_linear_1309_20613)"/>
<path d="M10.4087 7.13477L10.3557 7.22864C10.0172 7.82677 9.85844 8.50988 9.89853 9.19599H8.71484C8.71484 9.22864 8.71484 9.26129 8.71484 9.29803H10.0006C9.94586 8.56873 10.1138 7.84001 10.4822 7.20823L10.4087 7.13477Z" fill="url(#paint24_linear_1309_20613)"/>
<path d="M4.34766 4.57959V11.7796L4.78031 11.351V5.00816H7.53133V11.351H7.98031V5.00816H10.7313V11.351H11.1762V5.00816H13.9313V11.351L14.3599 11.7796V4.57959H4.34766Z" fill="url(#paint25_linear_1309_20613)"/>
<path d="M4.34766 11.7796L4.78031 11.3511H13.9313L14.3599 11.7796H4.34766Z" fill="#FFEAB0"/>
<path style="mix-blend-mode:multiply" d="M13.9309 5.0083H11.1758V11.3471H13.9309V5.0083Z" fill="url(#paint26_linear_1309_20613)"/>
<path style="mix-blend-mode:multiply" d="M7.53538 5.0083H4.78027V11.3471H7.53538V5.0083Z" fill="url(#paint27_linear_1309_20613)"/>
<path style="mix-blend-mode:multiply" d="M10.7317 5.0083H7.97656V11.3471H10.7317V5.0083Z" fill="url(#paint28_linear_1309_20613)"/>
<path d="M17.1429 13.6531H1.63265L0 17.3265H18.7755L17.1429 13.6531Z" fill="url(#paint29_radial_1309_20613)"/>
<path d="M14.4408 16.5226C13.6245 16.5226 12.9551 16.1471 12.9551 15.6695C12.9551 15.192 13.6081 14.8206 14.4408 14.8206C15.2735 14.8206 15.9224 15.192 15.9224 15.6695C15.9224 16.1471 15.2694 16.5226 14.4408 16.5226Z" fill="url(#paint30_linear_1309_20613)"/>
<path d="M14.4408 16.4571C13.6245 16.4571 12.9551 16.0816 12.9551 15.604C12.9551 15.1265 13.6081 14.751 14.4408 14.751C15.2735 14.751 15.9224 15.1265 15.9224 15.604C15.9224 16.0816 15.2694 16.4571 14.4408 16.4571Z" fill="url(#paint31_linear_1309_20613)"/>
<path d="M14.4404 16.2287C13.6893 16.2287 13.1016 15.9185 13.1016 15.5267C13.1016 15.1348 13.6893 14.8206 14.4404 14.8206C15.1914 14.8206 15.7751 15.1308 15.7751 15.5267C15.7751 15.9226 15.1873 16.2287 14.4404 16.2287Z" fill="url(#paint32_linear_1309_20613)"/>
<path d="M13.2402 15.8408C13.5886 16.0934 14.0079 16.2294 14.4382 16.2294C14.8685 16.2294 15.2878 16.0934 15.6362 15.8408V15.4326H13.2402V15.8408Z" fill="url(#paint33_linear_1309_20613)"/>
<path d="M14.4403 16.0898C13.7913 16.0898 13.2402 15.8286 13.2402 15.5266V15.1184H15.6362V15.5266C15.6362 15.8286 15.0892 16.0898 14.4403 16.0898Z" fill="url(#paint34_radial_1309_20613)"/>
<path d="M14.4403 15.7061C13.7913 15.7061 13.2402 15.449 13.2402 15.1429C13.2402 14.8367 13.7219 14.5796 14.4403 14.5796C15.1586 14.5796 15.6362 14.8694 15.6362 15.1429C15.6362 15.4163 15.0892 15.7061 14.4403 15.7061Z" fill="url(#paint35_linear_1309_20613)"/>
<path d="M10.6613 16.5226C9.845 16.5226 9.17969 16.1471 9.17969 15.6695C9.17969 15.192 9.82867 14.8206 10.6613 14.8206C11.494 14.8206 12.143 15.192 12.143 15.6695C12.143 16.1471 11.4776 16.5226 10.6613 16.5226Z" fill="url(#paint36_linear_1309_20613)"/>
<path d="M10.6613 16.4571C9.845 16.4571 9.17969 16.0816 9.17969 15.604C9.17969 15.1265 9.82867 14.751 10.6613 14.751C11.494 14.751 12.143 15.1265 12.143 15.604C12.143 16.0816 11.4776 16.4571 10.6613 16.4571Z" fill="url(#paint37_linear_1309_20613)"/>
<path d="M10.6609 16.2287C9.90985 16.2287 9.32617 15.9185 9.32617 15.5267C9.32617 15.1348 9.90985 14.8206 10.6609 14.8206C11.4119 14.8206 11.9997 15.1308 11.9997 15.5267C11.9997 15.9226 11.4037 16.2287 10.6609 16.2287Z" fill="url(#paint38_linear_1309_20613)"/>
<path d="M9.45703 15.8408C9.80501 16.0924 10.2235 16.2279 10.6529 16.2279C11.0824 16.2279 11.5009 16.0924 11.8489 15.8408V15.4326H9.45703V15.8408Z" fill="url(#paint39_linear_1309_20613)"/>
<path d="M10.6608 16.0898C10.0118 16.0898 9.46484 15.8286 9.46484 15.5266V15.1184H11.8567V15.5266C11.8486 15.8286 11.3016 16.0898 10.6608 16.0898Z" fill="url(#paint40_radial_1309_20613)"/>
<path d="M10.6608 15.7061C10.0118 15.7061 9.46484 15.449 9.46484 15.1429C9.46484 14.8367 9.9465 14.5796 10.6608 14.5796C11.3751 14.5796 11.8567 14.8694 11.8567 15.1429C11.8567 15.4163 11.3016 15.7061 10.6608 15.7061Z" fill="url(#paint41_linear_1309_20613)"/>
<path d="M7.42415 16.5226C6.60782 16.5226 5.93848 16.1471 5.93848 15.6695C5.93848 15.192 6.59149 14.8206 7.42415 14.8206C8.2568 14.8206 8.90578 15.192 8.90578 15.6695C8.90578 16.1471 8.2568 16.5226 7.42415 16.5226Z" fill="url(#paint42_linear_1309_20613)"/>
<path d="M7.42415 16.4571C6.60782 16.4571 5.93848 16.0816 5.93848 15.604C5.93848 15.1265 6.59149 14.751 7.42415 14.751C8.2568 14.751 8.90578 15.1265 8.90578 15.604C8.90578 16.0816 8.2568 16.4571 7.42415 16.4571Z" fill="url(#paint43_linear_1309_20613)"/>
<path d="M7.42468 16.2287C6.67365 16.2287 6.08594 15.9185 6.08594 15.5267C6.08594 15.1348 6.67365 14.8206 7.42468 14.8206C8.1757 14.8206 8.75938 15.1308 8.75938 15.5267C8.75938 15.9226 8.17161 16.2287 7.42468 16.2287Z" fill="url(#paint44_linear_1309_20613)"/>
<path d="M6.22461 15.8408C6.57298 16.0934 6.99224 16.2294 7.42254 16.2294C7.85284 16.2294 8.27216 16.0934 8.62053 15.8408V15.4326H6.22461V15.8408Z" fill="url(#paint45_linear_1309_20613)"/>
<path d="M7.42459 16.0898C6.77561 16.0898 6.22461 15.8286 6.22461 15.5266V15.1184H8.62053V15.5266C8.62053 15.8286 8.07357 16.0898 7.42459 16.0898Z" fill="url(#paint46_radial_1309_20613)"/>
<path d="M7.42459 15.7061C6.77561 15.7061 6.22461 15.449 6.22461 15.1429C6.22461 14.8367 6.70622 14.5796 7.42459 14.5796C8.14295 14.5796 8.62053 14.8694 8.62053 15.1429C8.62053 15.4163 8.07357 15.7061 7.42459 15.7061Z" fill="url(#paint47_linear_1309_20613)"/>
<path d="M4.1916 16.5226C3.37527 16.5226 2.70996 16.1471 2.70996 15.6695C2.70996 15.192 3.36302 14.8206 4.1916 14.8206C5.02017 14.8206 5.67732 15.192 5.67732 15.6695C5.67732 16.1471 5.02425 16.5226 4.1916 16.5226Z" fill="url(#paint48_linear_1309_20613)"/>
<path d="M4.1916 16.4571C3.37527 16.4571 2.70996 16.0816 2.70996 15.604C2.70996 15.1265 3.36302 14.751 4.1916 14.751C5.02017 14.751 5.67732 15.1265 5.67732 15.604C5.67732 16.0816 5.02425 16.4571 4.1916 16.4571Z" fill="url(#paint49_linear_1309_20613)"/>
<path d="M4.19212 16.2287C3.44518 16.2287 2.85742 15.9185 2.85742 15.5267C2.85742 15.1348 3.44518 14.8206 4.19212 14.8206C4.93906 14.8206 5.53091 15.1308 5.53091 15.5267C5.53091 15.9226 4.94723 16.2287 4.19212 16.2287Z" fill="url(#paint50_linear_1309_20613)"/>
<path d="M2.99609 15.8408C3.34446 16.0934 3.76378 16.2294 4.19408 16.2294C4.62438 16.2294 5.04364 16.0934 5.39201 15.8408V15.4326H2.99609V15.8408Z" fill="url(#paint51_linear_1309_20613)"/>
<path d="M4.19203 16.0898C3.54305 16.0898 2.99609 15.8286 2.99609 15.5266V15.1184H5.39201V15.5266C5.39201 15.8286 4.8451 16.0898 4.19203 16.0898Z" fill="url(#paint52_radial_1309_20613)"/>
<path d="M4.19203 15.7061C3.54305 15.7061 2.99609 15.449 2.99609 15.1429C2.99609 14.8367 3.47775 14.5796 4.19203 14.5796C4.90632 14.5796 5.39201 14.8694 5.39201 15.1429C5.39201 15.4163 4.8451 15.7061 4.19203 15.7061Z" fill="url(#paint53_linear_1309_20613)"/>
<path d="M0 17.3267H18.7755V19.3675C18.7755 19.5929 18.5928 19.7756 18.3673 19.7756H0.408163C0.182741 19.7756 0 19.5929 0 19.3675V17.3267Z" fill="url(#paint54_radial_1309_20613)"/>
<path d="M13.666 17.7346H4.70215C4.35967 17.7346 4.08203 18.0087 4.08203 18.3469C4.08203 18.685 4.35967 18.9591 4.70215 18.9591H13.666C14.0085 18.9591 14.2861 18.685 14.2861 18.3469C14.2861 18.0087 14.0085 17.7346 13.666 17.7346Z" fill="#9F5E10"/>
<defs>
<radialGradient id="paint0_radial_1309_20613" cx="0" cy="0" r="1" gradientUnits="userSpaceOnUse" gradientTransform="translate(18.4506 8.04157) scale(1.42637 3.58316)">
<stop stop-color="#FFFF53"/>
<stop offset="0.22" stop-color="#FFFC4F"/>
<stop offset="0.44" stop-color="#FFF143"/>
<stop offset="0.66" stop-color="#FFE12E"/>
<stop offset="0.88" stop-color="#FFC912"/>
<stop offset="1" stop-color="#FFBA00"/>
</radialGradient>
<radialGradient id="paint1_radial_1309_20613" cx="0" cy="0" r="1" gradientUnits="userSpaceOnUse" gradientTransform="translate(18.9554 3.44372) scale(0.284944 3.95759)">
<stop stop-color="#FFB400"/>
<stop offset="0.23" stop-color="#FFB000"/>
<stop offset="0.47" stop-color="#FFA400"/>
<stop offset="0.72" stop-color="#FF8F00"/>
<stop offset="0.96" stop-color="#FF7300"/>
<stop offset="1" stop-color="#FF6D00"/>
</radialGradient>
<radialGradient id="paint2_radial_1309_20613" cx="0" cy="0" r="1" gradientUnits="userSpaceOnUse" gradientTransform="translate(18.4075 1.91654) scale(1.70068)">
<stop stop-color="#D52730"/>
<stop offset="0.1" stop-color="#C8131F"/>
<stop offset="0.19" stop-color="#BF0615"/>
<stop offset="0.49" stop-color="#90030A"/>
<stop offset="0.76" stop-color="#680000"/>
</radialGradient>
<radialGradient id="paint3_radial_1309_20613" cx="0" cy="0" r="1" gradientUnits="userSpaceOnUse" gradientTransform="translate(17.5025 7.85457) scale(0.570548 4.18036)">
<stop stop-color="#FFFF53"/>
<stop offset="0.22" stop-color="#FFFC4F"/>
<stop offset="0.44" stop-color="#FFF143"/>
<stop offset="0.66" stop-color="#FFE12E"/>
<stop offset="0.88" stop-color="#FFC912"/>
<stop offset="1" stop-color="#FFBA00"/>
</radialGradient>
<radialGradient id="paint4_radial_1309_20613" cx="0" cy="0" r="1" gradientUnits="userSpaceOnUse" gradientTransform="translate(8.47116 5.9928) scale(10.8404 6.86773)">
<stop stop-color="#FFFF53"/>
<stop offset="0.22" stop-color="#FFFC4F"/>
<stop offset="0.44" stop-color="#FFF143"/>
<stop offset="0.66" stop-color="#FFE12E"/>
<stop offset="0.88" stop-color="#FFC912"/>
<stop offset="1" stop-color="#FFBA00"/>
</radialGradient>
<radialGradient id="paint5_radial_1309_20613" cx="0" cy="0" r="1" gradientUnits="userSpaceOnUse" gradientTransform="translate(8.47116 1.74001) scale(10.8404 0.895791)">
<stop stop-color="#FFFF53"/>
<stop offset="0.22" stop-color="#FFFC4F"/>
<stop offset="0.44" stop-color="#FFF143"/>
<stop offset="0.66" stop-color="#FFE12E"/>
<stop offset="0.88" stop-color="#FFC912"/>
<stop offset="1" stop-color="#FFBA00"/>
</radialGradient>
<linearGradient id="paint6_linear_1309_20613" x1="15.3605" y1="8.67351" x2="15.3605" y2="7.68575" gradientUnits="userSpaceOnUse">
<stop stop-color="#720101"/>
<stop offset="0.08" stop-color="#860102"/>
<stop offset="0.27" stop-color="#B70004"/>
<stop offset="0.45" stop-color="#DA0006"/>
<stop offset="0.59" stop-color="#EF0007"/>
<stop offset="0.69" stop-color="#F70007"/>
<stop offset="1" stop-color="#F70007"/>
</linearGradient>
<linearGradient id="paint7_linear_1309_20613" x1="15.3596" y1="8.17963" x2="15.3596" y2="7.68575" gradientUnits="userSpaceOnUse">
<stop stop-color="#F7777A"/>
<stop offset="0.15" stop-color="#F66F72"/>
<stop offset="0.37" stop-color="#F45A5D"/>
<stop offset="0.65" stop-color="#F0373A"/>
<stop offset="0.97" stop-color="#EC0709"/>
<stop offset="1" stop-color="#EB0204"/>
</linearGradient>
<linearGradient id="paint8_linear_1309_20613" x1="3.34817" y1="8.67356" x2="3.34817" y2="7.68579" gradientUnits="userSpaceOnUse">
<stop stop-color="#720101"/>
<stop offset="0.08" stop-color="#860102"/>
<stop offset="0.27" stop-color="#B70004"/>
<stop offset="0.45" stop-color="#DA0006"/>
<stop offset="0.59" stop-color="#EF0007"/>
<stop offset="0.69" stop-color="#F70007"/>
<stop offset="1" stop-color="#F70007"/>
</linearGradient>
<linearGradient id="paint9_linear_1309_20613" x1="3.34759" y1="8.17967" x2="3.34759" y2="7.68579" gradientUnits="userSpaceOnUse">
<stop stop-color="#F7777A"/>
<stop offset="0.15" stop-color="#F66F72"/>
<stop offset="0.37" stop-color="#F45A5D"/>
<stop offset="0.65" stop-color="#F0373A"/>
<stop offset="0.97" stop-color="#EC0709"/>
<stop offset="1" stop-color="#EB0204"/>
</linearGradient>
<linearGradient id="paint10_linear_1309_20613" x1="6.15578" y1="11.3512" x2="6.15578" y2="5.0083" gradientUnits="userSpaceOnUse">
<stop stop-color="#CAD9E8"/>
<stop offset="0.08" stop-color="#DAE4EF"/>
<stop offset="0.22" stop-color="#EEF3F8"/>
<stop offset="0.36" stop-color="#FBFCFD"/>
<stop offset="0.5" stop-color="white"/>
<stop offset="0.64" stop-color="#FBFCFD"/>
<stop offset="0.78" stop-color="#EEF3F8"/>
<stop offset="0.92" stop-color="#DAE4EF"/>
<stop offset="1" stop-color="#CAD9E8"/>
</linearGradient>
<linearGradient id="paint11_linear_1309_20613" x1="6.15565" y1="9.30613" x2="6.15565" y2="7.05715" gradientUnits="userSpaceOnUse">
<stop stop-color="#B70104"/>
<stop offset="0.29" stop-color="#DA0006"/>
<stop offset="0.53" stop-color="#EF0007"/>
<stop offset="0.69" stop-color="#F70007"/>
<stop offset="1" stop-color="#F70007"/>
</linearGradient>
<linearGradient id="paint12_linear_1309_20613" x1="5.77199" y1="8.53878" x2="6.17198" y2="7.11837" gradientUnits="userSpaceOnUse">
<stop stop-color="#F7777A"/>
<stop offset="0.15" stop-color="#F66F72"/>
<stop offset="0.37" stop-color="#F45A5D"/>
<stop offset="0.65" stop-color="#F0373A"/>
<stop offset="0.97" stop-color="#EC0709"/>
<stop offset="1" stop-color="#EB0204"/>
</linearGradient>
<linearGradient id="paint13_linear_1309_20613" x1="5.82487" y1="7.08174" x2="5.82487" y2="9.24909" gradientUnits="userSpaceOnUse">
<stop stop-color="#D3040A"/>
<stop offset="0.17" stop-color="#CB040A"/>
<stop offset="0.44" stop-color="#B4030A"/>
<stop offset="0.78" stop-color="#8E010B"/>
<stop offset="1" stop-color="#72000B"/>
</linearGradient>
<linearGradient id="paint14_linear_1309_20613" x1="6.39672" y1="7.0817" x2="6.39672" y2="9.24905" gradientUnits="userSpaceOnUse">
<stop stop-color="#D3040A"/>
<stop offset="0.21" stop-color="#CB040A"/>
<stop offset="0.53" stop-color="#B4030A"/>
<stop offset="0.94" stop-color="#8E010B"/>
<stop offset="1" stop-color="#88010B"/>
</linearGradient>
<linearGradient id="paint15_linear_1309_20613" x1="12.5513" y1="11.3512" x2="12.5513" y2="5.0083" gradientUnits="userSpaceOnUse">
<stop stop-color="#CAD9E8"/>
<stop offset="0.08" stop-color="#DAE4EF"/>
<stop offset="0.22" stop-color="#EEF3F8"/>
<stop offset="0.36" stop-color="#FBFCFD"/>
<stop offset="0.5" stop-color="white"/>
<stop offset="0.64" stop-color="#FBFCFD"/>
<stop offset="0.78" stop-color="#EEF3F8"/>
<stop offset="0.92" stop-color="#DAE4EF"/>
<stop offset="1" stop-color="#CAD9E8"/>
</linearGradient>
<linearGradient id="paint16_linear_1309_20613" x1="12.552" y1="9.30613" x2="12.552" y2="7.05715" gradientUnits="userSpaceOnUse">
<stop stop-color="#B70104"/>
<stop offset="0.29" stop-color="#DA0006"/>
<stop offset="0.53" stop-color="#EF0007"/>
<stop offset="0.69" stop-color="#F70007"/>
<stop offset="1" stop-color="#F70007"/>
</linearGradient>
<linearGradient id="paint17_linear_1309_20613" x1="12.1683" y1="8.53878" x2="12.5683" y2="7.11838" gradientUnits="userSpaceOnUse">
<stop stop-color="#F7777A"/>
<stop offset="0.15" stop-color="#F66F72"/>
<stop offset="0.37" stop-color="#F45A5D"/>
<stop offset="0.65" stop-color="#F0373A"/>
<stop offset="0.97" stop-color="#EC0709"/>
<stop offset="1" stop-color="#EB0204"/>
</linearGradient>
<linearGradient id="paint18_linear_1309_20613" x1="12.2213" y1="7.08174" x2="12.2213" y2="9.24909" gradientUnits="userSpaceOnUse">
<stop stop-color="#D3040A"/>
<stop offset="0.17" stop-color="#CB040A"/>
<stop offset="0.44" stop-color="#B4030A"/>
<stop offset="0.78" stop-color="#8E010B"/>
<stop offset="1" stop-color="#72000B"/>
</linearGradient>
<linearGradient id="paint19_linear_1309_20613" x1="12.7922" y1="7.0817" x2="12.7922" y2="9.24905" gradientUnits="userSpaceOnUse">
<stop stop-color="#D3040A"/>
<stop offset="0.21" stop-color="#CB040A"/>
<stop offset="0.53" stop-color="#B4030A"/>
<stop offset="0.94" stop-color="#8E010B"/>
<stop offset="1" stop-color="#88010B"/>
</linearGradient>
<linearGradient id="paint20_linear_1309_20613" x1="9.35615" y1="11.3512" x2="9.35615" y2="5.0083" gradientUnits="userSpaceOnUse">
<stop stop-color="#CAD9E8"/>
<stop offset="0.08" stop-color="#DAE4EF"/>
<stop offset="0.22" stop-color="#EEF3F8"/>
<stop offset="0.36" stop-color="#FBFCFD"/>
<stop offset="0.5" stop-color="white"/>
<stop offset="0.64" stop-color="#FBFCFD"/>
<stop offset="0.78" stop-color="#EEF3F8"/>
<stop offset="0.92" stop-color="#DAE4EF"/>
<stop offset="1" stop-color="#CAD9E8"/>
</linearGradient>
<linearGradient id="paint21_linear_1309_20613" x1="9.35602" y1="9.30606" x2="9.35602" y2="7.05708" gradientUnits="userSpaceOnUse">
<stop stop-color="#B70104"/>
<stop offset="0.29" stop-color="#DA0006"/>
<stop offset="0.53" stop-color="#EF0007"/>
<stop offset="0.69" stop-color="#F70007"/>
<stop offset="1" stop-color="#F70007"/>
</linearGradient>
<linearGradient id="paint22_linear_1309_20613" x1="8.96826" y1="8.53871" x2="9.37235" y2="7.1183" gradientUnits="userSpaceOnUse">
<stop stop-color="#F7777A"/>
<stop offset="0.15" stop-color="#F66F72"/>
<stop offset="0.37" stop-color="#F45A5D"/>
<stop offset="0.65" stop-color="#F0373A"/>
<stop offset="0.97" stop-color="#EC0709"/>
<stop offset="1" stop-color="#EB0204"/>
</linearGradient>
<linearGradient id="paint23_linear_1309_20613" x1="9.02115" y1="7.08174" x2="9.02115" y2="9.24909" gradientUnits="userSpaceOnUse">
<stop stop-color="#D3040A"/>
<stop offset="0.17" stop-color="#CB040A"/>
<stop offset="0.44" stop-color="#B4030A"/>
<stop offset="0.78" stop-color="#8E010B"/>
<stop offset="1" stop-color="#72000B"/>
</linearGradient>
<linearGradient id="paint24_linear_1309_20613" x1="9.59649" y1="7.0817" x2="9.59649" y2="9.24905" gradientUnits="userSpaceOnUse">
<stop stop-color="#D3040A"/>
<stop offset="0.21" stop-color="#CB040A"/>
<stop offset="0.53" stop-color="#B4030A"/>
<stop offset="0.94" stop-color="#8E010B"/>
<stop offset="1" stop-color="#88010B"/>
</linearGradient>
<linearGradient id="paint25_linear_1309_20613" x1="9.35582" y1="11.7796" x2="9.35582" y2="4.57959" gradientUnits="userSpaceOnUse">
<stop stop-color="#DC9F2C"/>
<stop offset="0.4" stop-color="#BC7E28"/>
<stop offset="0.77" stop-color="#A56625"/>
<stop offset="1" stop-color="#9D5D24"/>
</linearGradient>
<linearGradient id="paint26_linear_1309_20613" x1="12.5513" y1="11.3512" x2="12.5513" y2="5.0083" gradientUnits="userSpaceOnUse">
<stop/>
<stop offset="0.06" stop-color="#343434"/>
<stop offset="0.12" stop-color="#696969"/>
<stop offset="0.18" stop-color="#979797"/>
<stop offset="0.25" stop-color="#BCBCBC"/>
<stop offset="0.31" stop-color="#DADADA"/>
<stop offset="0.38" stop-color="#EEEEEE"/>
<stop offset="0.44" stop-color="#FBFBFB"/>
<stop offset="0.5" stop-color="white"/>
<stop offset="0.56" stop-color="#FBFBFB"/>
<stop offset="0.62" stop-color="#EEEEEE"/>
<stop offset="0.69" stop-color="#DADADA"/>
<stop offset="0.75" stop-color="#BCBCBC"/>
<stop offset="0.82" stop-color="#979797"/>
<stop offset="0.88" stop-color="#696969"/>
<stop offset="0.94" stop-color="#343434"/>
<stop offset="1"/>
</linearGradient>
<linearGradient id="paint27_linear_1309_20613" x1="6.15578" y1="11.3512" x2="6.15578" y2="5.0083" gradientUnits="userSpaceOnUse">
<stop/>
<stop offset="0.06" stop-color="#343434"/>
<stop offset="0.12" stop-color="#696969"/>
<stop offset="0.18" stop-color="#979797"/>
<stop offset="0.25" stop-color="#BCBCBC"/>
<stop offset="0.31" stop-color="#DADADA"/>
<stop offset="0.38" stop-color="#EEEEEE"/>
<stop offset="0.44" stop-color="#FBFBFB"/>
<stop offset="0.5" stop-color="white"/>
<stop offset="0.56" stop-color="#FBFBFB"/>
<stop offset="0.62" stop-color="#EEEEEE"/>
<stop offset="0.69" stop-color="#DADADA"/>
<stop offset="0.75" stop-color="#BCBCBC"/>
<stop offset="0.82" stop-color="#979797"/>
<stop offset="0.88" stop-color="#696969"/>
<stop offset="0.94" stop-color="#343434"/>
<stop offset="1"/>
</linearGradient>
<linearGradient id="paint28_linear_1309_20613" x1="9.35615" y1="11.3512" x2="9.35615" y2="5.0083" gradientUnits="userSpaceOnUse">
<stop/>
<stop offset="0.06" stop-color="#343434"/>
<stop offset="0.12" stop-color="#696969"/>
<stop offset="0.18" stop-color="#979797"/>
<stop offset="0.25" stop-color="#BCBCBC"/>
<stop offset="0.31" stop-color="#DADADA"/>
<stop offset="0.38" stop-color="#EEEEEE"/>
<stop offset="0.44" stop-color="#FBFBFB"/>
<stop offset="0.5" stop-color="white"/>
<stop offset="0.56" stop-color="#FBFBFB"/>
<stop offset="0.62" stop-color="#EEEEEE"/>
<stop offset="0.69" stop-color="#DADADA"/>
<stop offset="0.75" stop-color="#BCBCBC"/>
<stop offset="0.82" stop-color="#979797"/>
<stop offset="0.88" stop-color="#696969"/>
<stop offset="0.94" stop-color="#343434"/>
<stop offset="1"/>
</linearGradient>
<radialGradient id="paint29_radial_1309_20613" cx="0" cy="0" r="1" gradientUnits="userSpaceOnUse" gradientTransform="translate(8.278 14.6485) scale(13.1226 2.68737)">
<stop stop-color="#FFFF53"/>
<stop offset="0.22" stop-color="#FFFC4F"/>
<stop offset="0.44" stop-color="#FFF143"/>
<stop offset="0.66" stop-color="#FFE12E"/>
<stop offset="0.88" stop-color="#FFC912"/>
<stop offset="1" stop-color="#FFBA00"/>
</radialGradient>
<linearGradient id="paint30_linear_1309_20613" x1="15.8" y1="16.1348" x2="13.4041" y2="15.3103" gradientUnits="userSpaceOnUse">
<stop stop-color="#AC6D26"/>
<stop offset="1" stop-color="#DC9F2C"/>
</linearGradient>
<linearGradient id="paint31_linear_1309_20613" x1="14.2163" y1="14.8408" x2="14.7469" y2="16.6612" gradientUnits="userSpaceOnUse">
<stop stop-color="#FFEAB0"/>
<stop offset="0.15" stop-color="#FFE7A8"/>
<stop offset="0.38" stop-color="#FFE091"/>
<stop offset="0.67" stop-color="#FFD46B"/>
<stop offset="1" stop-color="#FFC338"/>
</linearGradient>
<linearGradient id="paint32_linear_1309_20613" x1="14.4403" y1="16.4981" x2="14.4403" y2="15.2328" gradientUnits="userSpaceOnUse">
<stop stop-color="#915123"/>
<stop offset="0.38" stop-color="#874A1F"/>
<stop offset="1" stop-color="#6D3815"/>
</linearGradient>
<linearGradient id="paint33_linear_1309_20613" x1="14.4402" y1="16.2612" x2="14.4402" y2="15.2408" gradientUnits="userSpaceOnUse">
<stop stop-color="#720101"/>
<stop offset="1" stop-color="#F70007"/>
</linearGradient>
<radialGradient id="paint34_radial_1309_20613" cx="0" cy="0" r="1" gradientUnits="userSpaceOnUse" gradientTransform="translate(14.3872 10.3906) scale(1.35102 1.04029)">
<stop stop-color="#720101"/>
<stop offset="1" stop-color="#DE0006"/>
</radialGradient>
<linearGradient id="paint35_linear_1309_20613" x1="14.4402" y1="14.5347" x2="14.4402" y2="15.6041" gradientUnits="userSpaceOnUse">
<stop stop-color="#F7777A"/>
<stop offset="0.18" stop-color="#F66F72"/>
<stop offset="0.47" stop-color="#F45A5D"/>
<stop offset="0.81" stop-color="#F1383A"/>
<stop offset="1" stop-color="#EF2224"/>
</linearGradient>
<linearGradient id="paint36_linear_1309_20613" x1="12.0164" y1="16.1348" x2="9.61643" y2="15.3103" gradientUnits="userSpaceOnUse">
<stop stop-color="#AC6D26"/>
<stop offset="1" stop-color="#DC9F2C"/>
</linearGradient>
<linearGradient id="paint37_linear_1309_20613" x1="10.4287" y1="14.8408" x2="10.9634" y2="16.6612" gradientUnits="userSpaceOnUse">
<stop stop-color="#FFEAB0"/>
<stop offset="0.15" stop-color="#FFE7A8"/>
<stop offset="0.38" stop-color="#FFE091"/>
<stop offset="0.67" stop-color="#FFD46B"/>
<stop offset="1" stop-color="#FFC338"/>
</linearGradient>
<linearGradient id="paint38_linear_1309_20613" x1="10.6527" y1="16.4981" x2="10.6527" y2="15.2328" gradientUnits="userSpaceOnUse">
<stop stop-color="#915123"/>
<stop offset="0.38" stop-color="#874A1F"/>
<stop offset="1" stop-color="#6D3815"/>
</linearGradient>
<linearGradient id="paint39_linear_1309_20613" x1="10.6529" y1="16.2612" x2="10.6529" y2="15.2408" gradientUnits="userSpaceOnUse">
<stop stop-color="#AC6D26"/>
<stop offset="1" stop-color="#DC9F2C"/>
</linearGradient>
<radialGradient id="paint40_radial_1309_20613" cx="0" cy="0" r="1" gradientUnits="userSpaceOnUse" gradientTransform="translate(10.6036 10.3906) scale(1.35105 1.04029)">
<stop stop-color="#AC6D26"/>
<stop offset="1" stop-color="#DC9F2C"/>
</radialGradient>
<linearGradient id="paint41_linear_1309_20613" x1="10.6526" y1="14.5347" x2="10.6526" y2="15.6041" gradientUnits="userSpaceOnUse">
<stop stop-color="#FFEAB0"/>
<stop offset="0.15" stop-color="#FFE7A8"/>
<stop offset="0.38" stop-color="#FFE091"/>
<stop offset="0.67" stop-color="#FFD46B"/>
<stop offset="1" stop-color="#FFC338"/>
</linearGradient>
<linearGradient id="paint42_linear_1309_20613" x1="8.78333" y1="16.1348" x2="6.38744" y2="15.3104" gradientUnits="userSpaceOnUse">
<stop stop-color="#AC6D26"/>
<stop offset="1" stop-color="#DC9F2C"/>
</linearGradient>
<linearGradient id="paint43_linear_1309_20613" x1="7.19968" y1="14.8408" x2="7.73031" y2="16.6612" gradientUnits="userSpaceOnUse">
<stop stop-color="#FFEAB0"/>
<stop offset="0.15" stop-color="#FFE7A8"/>
<stop offset="0.38" stop-color="#FFE091"/>
<stop offset="0.67" stop-color="#FFD46B"/>
<stop offset="1" stop-color="#FFC338"/>
</linearGradient>
<linearGradient id="paint44_linear_1309_20613" x1="7.4247" y1="16.4981" x2="7.4247" y2="15.2328" gradientUnits="userSpaceOnUse">
<stop stop-color="#915123"/>
<stop offset="0.38" stop-color="#874A1F"/>
<stop offset="1" stop-color="#6D3815"/>
</linearGradient>
<linearGradient id="paint45_linear_1309_20613" x1="7.42461" y1="16.2612" x2="7.42461" y2="15.2408" gradientUnits="userSpaceOnUse">
<stop stop-color="#AC6D26"/>
<stop offset="1" stop-color="#DC9F2C"/>
</linearGradient>
<radialGradient id="paint46_radial_1309_20613" cx="0" cy="0" r="1" gradientUnits="userSpaceOnUse" gradientTransform="translate(7.37563 10.3906) scale(1.35102 1.04029)">
<stop stop-color="#AC6D26"/>
<stop offset="1" stop-color="#DC9F2C"/>
</radialGradient>
<linearGradient id="paint47_linear_1309_20613" x1="7.42461" y1="14.5347" x2="7.42461" y2="15.6041" gradientUnits="userSpaceOnUse">
<stop stop-color="#FFEAB0"/>
<stop offset="0.15" stop-color="#FFE7A8"/>
<stop offset="0.38" stop-color="#FFE091"/>
<stop offset="0.67" stop-color="#FFD46B"/>
<stop offset="1" stop-color="#FFC338"/>
</linearGradient>
<linearGradient id="paint48_linear_1309_20613" x1="5.55487" y1="16.1348" x2="3.15895" y2="15.3103" gradientUnits="userSpaceOnUse">
<stop stop-color="#AC6D26"/>
<stop offset="1" stop-color="#DC9F2C"/>
</linearGradient>
<linearGradient id="paint49_linear_1309_20613" x1="3.97119" y1="14.8408" x2="4.50181" y2="16.6612" gradientUnits="userSpaceOnUse">
<stop stop-color="#FFEAB0"/>
<stop offset="0.15" stop-color="#FFE7A8"/>
<stop offset="0.38" stop-color="#FFE091"/>
<stop offset="0.67" stop-color="#FFD46B"/>
<stop offset="1" stop-color="#FFC338"/>
</linearGradient>
<linearGradient id="paint50_linear_1309_20613" x1="4.19213" y1="16.4981" x2="4.19213" y2="15.2328" gradientUnits="userSpaceOnUse">
<stop stop-color="#915123"/>
<stop offset="0.38" stop-color="#874A1F"/>
<stop offset="1" stop-color="#6D3815"/>
</linearGradient>
<linearGradient id="paint51_linear_1309_20613" x1="4.19201" y1="16.2612" x2="4.19201" y2="15.2408" gradientUnits="userSpaceOnUse">
<stop stop-color="#AC6D26"/>
<stop offset="1" stop-color="#DC9F2C"/>
</linearGradient>
<radialGradient id="paint52_radial_1309_20613" cx="0" cy="0" r="1" gradientUnits="userSpaceOnUse" gradientTransform="translate(4.14303 10.3906) scale(1.35102 1.04029)">
<stop stop-color="#AC6D26"/>
<stop offset="1" stop-color="#DC9F2C"/>
</radialGradient>
<linearGradient id="paint53_linear_1309_20613" x1="4.19201" y1="14.5347" x2="4.19201" y2="15.6041" gradientUnits="userSpaceOnUse">
<stop stop-color="#FFEAB0"/>
<stop offset="0.15" stop-color="#FFE7A8"/>
<stop offset="0.38" stop-color="#FFE091"/>
<stop offset="0.67" stop-color="#FFD46B"/>
<stop offset="1" stop-color="#FFC338"/>
</linearGradient>
<radialGradient id="paint54_radial_1309_20613" cx="0" cy="0" r="1" gradientUnits="userSpaceOnUse" gradientTransform="translate(8.2815 17.9916) scale(13.1074 1.79251)">
<stop stop-color="#FFB400"/>
<stop offset="0.23" stop-color="#FFB000"/>
<stop offset="0.47" stop-color="#FFA400"/>
<stop offset="0.72" stop-color="#FF8F00"/>
<stop offset="0.96" stop-color="#FF7300"/>
<stop offset="1" stop-color="#FF6D00"/>
</radialGradient>
</defs>
</svg>
