<svg width="21" height="20" viewBox="0 0 21 20" fill="none" xmlns="http://www.w3.org/2000/svg">
<g clip-path="url(#clip0_1298_45861)">
<path fill-rule="evenodd" clip-rule="evenodd" d="M7.4175 18.3962C7.37532 19.1768 7.27374 19.6188 6.61377 19.7483L5.35323 19.9716C4.88453 20.0631 4.81028 19.7774 4.74078 19.3342L3.82715 14.1067C4.21114 14.1516 4.59813 14.1653 4.98433 14.1477L6.56506 14.0443L6.87574 14.0235C7.1193 14.0063 7.32305 13.8952 7.36701 14.1352L7.39315 14.7251L7.4175 18.3962Z" fill="#A56005"/>
<path fill-rule="evenodd" clip-rule="evenodd" d="M6.95528 18.5025C6.92677 19.2778 6.73074 19.7126 6.09868 19.8308L5.27713 19.9858C5.17198 20.0069 5.0637 20.0067 4.95863 19.9853C4.85356 19.9639 4.75383 19.9217 4.66529 19.8612C4.57675 19.8007 4.50118 19.7231 4.44304 19.633C4.38489 19.543 4.34532 19.4422 4.32667 19.3366L3.56631 14.9567L3.42255 14.1174L3.41602 14.0811C3.76686 14.1505 4.12349 14.1865 4.48112 14.1886L4.63735 14.1809L6.27689 14.0966H6.29828C6.47292 14.0865 6.56025 14.0372 6.64519 14.1073C6.67863 14.1397 6.69965 14.1828 6.7046 14.229L6.73608 14.7637L6.95528 18.5025Z" fill="#FCD001"/>
<path fill-rule="evenodd" clip-rule="evenodd" d="M6.73638 14.7653C6.48332 14.6418 6.00275 14.4642 4.97329 14.5568C4.12797 14.6335 3.68126 14.8835 3.56601 14.9566L3.42285 14.1172C3.51693 14.1605 3.61711 14.1889 3.71987 14.2016C3.92516 14.2319 4.13366 14.2337 4.33945 14.2069L4.63647 14.1808C5.31248 14.1256 5.87503 14.1036 6.27601 14.0964C6.45422 14.0929 6.5356 14.0923 6.64609 14.0923C6.67915 14.1237 6.70017 14.1658 6.70549 14.2111L6.73638 14.7653Z" fill="#E2AB00"/>
<path fill-rule="evenodd" clip-rule="evenodd" d="M4.86469 14.8354C5.32091 14.8028 5.79257 14.7541 6.11751 14.7719C6.19857 14.7763 6.27513 14.8105 6.33248 14.868C6.38983 14.9255 6.42392 15.0021 6.42819 15.0831L6.58264 17.9838C6.58287 17.9995 6.57721 18.0148 6.56678 18.0266C6.55634 18.0383 6.54188 18.0457 6.52624 18.0474C6.5106 18.049 6.49491 18.0447 6.48227 18.0354C6.46962 18.0261 6.46092 18.0123 6.45789 17.9969L6.10147 15.7847C6.04207 15.3962 5.89118 15.202 5.40883 15.114L4.84211 14.959C4.82671 14.955 4.81339 14.9453 4.80482 14.9319C4.79626 14.9185 4.79309 14.9024 4.79595 14.8867C4.79881 14.8711 4.80749 14.8571 4.82024 14.8476C4.83299 14.8381 4.84887 14.8337 4.86469 14.8354Z" fill="#E2AB00"/>
<path d="M1.57502 12.5482L2.26194 12.254L2.83107 13.5825L2.14415 13.8767C2.06623 13.9101 1.97825 13.9112 1.89956 13.8797C1.82087 13.8482 1.75791 13.7867 1.72453 13.7088L1.4071 12.9678C1.37372 12.8899 1.37266 12.8019 1.40415 12.7233C1.43564 12.6446 1.49711 12.5816 1.57502 12.5482Z" fill="#FCD001"/>
<path fill-rule="evenodd" clip-rule="evenodd" d="M13.0578 15.4795C9.66469 13.4514 4.8328 14.2754 4.8328 14.2754C4.10867 14.292 3.53958 14.2457 3.15524 13.9986C3.00068 13.9 2.87406 13.7633 2.78753 13.6017C2.76802 13.5663 2.75037 13.5298 2.73466 13.4924L2.21072 12.2711C1.91371 11.5755 2.36458 10.9215 3.09168 10.211C3.09168 10.211 6.40818 7.98513 7.80417 3.34155C8.02812 4.07222 7.83803 8.87559 8.4576 10.3233C8.7934 11.1103 9.21685 11.857 9.71993 12.5491C9.90405 12.8028 10.1013 13.0467 10.311 13.2798C10.5076 13.499 12.6378 15.2217 13.0578 15.4795Z" fill="#FCD001"/>
<path fill-rule="evenodd" clip-rule="evenodd" d="M7.93761 10.4419C6.13353 6.23135 7.52179 1.69766 10.3827 0.473356C13.2435 -0.750952 16.8992 1.6341 18.7027 5.84463C20.5062 10.0552 19.7993 14.3987 16.9414 15.6225C14.0835 16.8462 9.74289 14.6524 7.93761 10.4419Z" fill="#FFF599"/>
<path fill-rule="evenodd" clip-rule="evenodd" d="M8.11577 10.3256C6.31584 6.12519 7.62094 1.55408 10.4919 0.362445C13.7752 -1.00087 16.8903 1.62893 18.6896 5.82758C20.4889 10.0262 19.7791 14.3615 16.9235 15.5852C14.068 16.8089 9.91629 14.526 8.11577 10.3256Z" fill="#FCD001"/>
<path fill-rule="evenodd" clip-rule="evenodd" d="M16.9978 15.5062C14.3311 16.6943 10.7746 14.2712 9.05491 10.0922C7.33518 5.91313 8.09792 1.62894 10.7639 0.439683C11.3984 0.156922 12.0786 0.0131655 12.7659 0.120092C12.7666 0.119556 12.7676 0.119269 12.7685 0.119269C12.7695 0.119269 12.7704 0.119556 12.7712 0.120092C12.7739 0.119515 12.7768 0.119515 12.7795 0.120092C14.9751 0.471167 17.2639 2.6691 18.5708 5.8466C18.7695 6.32897 18.9401 6.82245 19.0816 7.32456C20.1153 10.9951 19.349 14.4566 16.9978 15.5062Z" fill="#9F5E10"/>
<path fill-rule="evenodd" clip-rule="evenodd" d="M16.0097 15.803C13.5046 16.1096 10.4851 13.7275 8.97508 10.1971C7.18406 6.01748 8.09887 1.55806 10.876 0.368795C11.329 0.175323 11.8162 0.0743397 12.3088 0.0717773C11.8512 0.0873292 11.4006 0.188056 10.9799 0.368795C8.20461 1.55687 7.40682 5.90996 9.19784 10.0896C10.6865 13.5712 13.5242 16.109 16.0097 15.803Z" fill="#E2AB00"/>
<path fill-rule="evenodd" clip-rule="evenodd" d="M13.7761 8.33847C14.4558 9.92388 14.287 11.5147 13.3995 11.8977C12.5119 12.2807 11.2424 11.3006 10.5626 9.71515C9.88291 8.12975 10.0517 6.5389 10.9392 6.15593C11.8268 5.77296 13.0973 6.75307 13.7761 8.33847Z" fill="#FCD001"/>
<path fill-rule="evenodd" clip-rule="evenodd" d="M2.69349 11.2938C3.06595 10.973 3.76275 10.3689 4.46906 9.69522C4.47468 9.68975 4.48174 9.68601 4.48942 9.68443C4.49709 9.68286 4.50506 9.68351 4.51238 9.68633C4.51969 9.68914 4.52604 9.69399 4.53069 9.7003C4.53533 9.70662 4.53806 9.71413 4.53856 9.72195L4.56886 10.1598C4.57314 10.2207 4.55979 10.2815 4.5304 10.335C4.501 10.3885 4.45682 10.4325 4.40312 10.4615L2.73982 11.3615C2.73089 11.3657 2.72077 11.3665 2.71127 11.3639C2.70177 11.3613 2.69349 11.3554 2.68793 11.3473C2.68236 11.3392 2.67987 11.3293 2.68089 11.3195C2.68191 11.3097 2.68637 11.3006 2.69349 11.2938Z" fill="white"/>
<path fill-rule="evenodd" clip-rule="evenodd" d="M6.84525 7.77062L7.02346 8.80127C7.0292 8.83454 7.02479 8.86877 7.0108 8.89949C6.99682 8.93022 6.97391 8.95602 6.94505 8.97354L5.20512 10.0179C5.18085 10.0324 5.15329 10.0406 5.125 10.0417C5.09671 10.0427 5.06862 10.0366 5.04335 10.0238C5.01807 10.0111 4.99645 9.99212 4.98048 9.96874C4.96452 9.94536 4.95474 9.91832 4.95206 9.89014L4.90216 9.36145C4.8997 9.33634 4.90297 9.311 4.91172 9.28734C4.92046 9.26367 4.93446 9.2423 4.95265 9.22482C5.62035 8.58267 6.24231 7.98626 6.56308 7.68033C6.58477 7.65879 6.61195 7.64362 6.64166 7.63647C6.67138 7.62932 6.70248 7.63046 6.73159 7.63978C6.7607 7.64909 6.78669 7.66622 6.80673 7.68929C6.82678 7.71236 6.8401 7.7405 6.84525 7.77062Z" fill="white"/>
<path fill-rule="evenodd" clip-rule="evenodd" d="M2.21113 12.271L2.78735 13.6016L2.39707 13.7686C2.39707 13.7686 2.4737 12.9737 1.86719 12.4272L2.21113 12.271Z" fill="#E2AB00"/>
<path fill-rule="evenodd" clip-rule="evenodd" d="M9.81366 13.405L3.22461 13.4828C3.5246 13.4626 8.29411 13.1168 8.41173 11.5444C8.79749 12.222 9.26865 12.8473 9.81366 13.405Z" fill="#E2AB00"/>
</g>
<defs>
<clipPath id="clip0_1298_45861">
<rect width="18.31" height="20" fill="white" transform="translate(1.38281)"/>
</clipPath>
</defs>
</svg>
