<svg width="20" height="20" viewBox="0 0 20 20" fill="none" xmlns="http://www.w3.org/2000/svg">
<g clip-path="url(#clip0_1295_45686)">
<path d="M9.99943 19.9986C9.31158 19.9989 8.62552 19.9285 7.95206 19.7886C7.94648 19.7886 7.94039 19.7886 7.93482 19.785C7.92924 19.7815 7.91504 19.7805 7.9054 19.7784C7.89577 19.7764 7.87801 19.7729 7.86483 19.7693C7.85164 19.7658 7.84911 19.7663 7.8415 19.7642C7.83389 19.7622 7.82476 19.7602 7.81665 19.7587C6.05842 19.3667 4.43933 18.5054 3.13159 17.2665L3.12702 17.262L3.12043 17.2554L3.11536 17.2508L3.09558 17.232L3.08544 17.2224C1.34331 15.5589 0.262395 13.3208 0.0425334 10.9221L0.0389857 10.8815L0.0389857 10.8714L0.0339122 10.8054C0.0126128 10.5393 0.00196221 10.2704 0.00196222 9.99855C-0.000711816 8.5823 0.298929 7.1818 0.880855 5.89063L0.887956 5.8744L0.900635 5.84701C0.94425 5.75268 0.988878 5.65835 1.03503 5.56555C1.91775 3.78524 3.3087 2.30675 5.03188 1.31714C5.06181 1.29888 5.09224 1.28215 5.12216 1.26643C6.61289 0.432215 8.29319 -0.00440695 10.0015 -0.00145037C10.4535 -0.00163816 10.905 0.0283514 11.353 0.0883164C11.4642 0.103531 11.5748 0.120436 11.6847 0.139031C11.9515 0.184675 12.2131 0.240462 12.4718 0.305377C12.49 0.310448 12.5073 0.314505 12.5225 0.319069C12.5276 0.319069 12.5326 0.319069 12.5372 0.323126C12.7252 0.372151 12.9111 0.426754 13.0951 0.486936C15.2007 1.1736 17.0197 2.5382 18.268 4.36765C18.4144 4.58201 18.5527 4.80262 18.6829 5.02949L18.6889 5.03963L18.7062 5.07006C18.708 5.07372 18.7101 5.07727 18.7123 5.08071C18.8802 5.37839 19.0326 5.68462 19.1687 5.99815C20.0606 8.05018 20.2416 10.3413 19.683 12.5079C19.6814 12.5161 19.6793 12.5243 19.6769 12.5323C19.6766 12.5346 19.6766 12.537 19.6769 12.5394L19.6688 12.5698C19.4605 13.3512 19.1577 14.1043 18.7671 14.8124C18.7559 14.8332 18.7442 14.8545 18.7321 14.8753C17.8031 16.5345 16.4219 17.8956 14.7494 18.8002C14.7063 18.8235 14.6622 18.8468 14.6186 18.8696C13.1928 19.6139 11.6078 20.0012 9.99943 19.9986Z" fill="#F4EDE8"/>
<path d="M5.98086 4.4448C6.00013 4.44024 6.01078 4.41285 5.98846 4.40322C5.73489 4.29215 5.48131 4.19021 5.22267 4.09892C5.13442 4.06799 5.01423 4.00206 4.91837 4.01169C4.80832 4.02285 4.69219 4.13442 4.60293 4.19224C4.57757 4.20847 4.60293 4.24955 4.62676 4.23281C4.62794 4.23272 4.62913 4.23272 4.63031 4.23281C4.63183 4.2369 4.63462 4.24039 4.63827 4.24276C4.64193 4.24514 4.64625 4.24627 4.6506 4.246C5.09579 4.23657 5.53913 4.30612 5.96006 4.4514C5.96379 4.45246 5.96775 4.4524 5.97145 4.45122C5.97515 4.45005 5.97842 4.44782 5.98086 4.4448Z" fill="#F4EEE7"/>
<path d="M16.2795 11.3268C16.285 11.329 16.291 11.329 16.2965 11.3269C16.302 11.3249 16.3064 11.3208 16.3091 11.3156C16.3117 11.3103 16.3122 11.3043 16.3106 11.2987C16.309 11.2931 16.3053 11.2883 16.3003 11.2852C16.2694 11.2675 16.2385 11.2512 16.207 11.2345C16.0062 11.0629 15.7941 10.905 15.5721 10.7618C15.4803 10.7045 15.3535 10.5899 15.2368 10.6031C15.1202 10.6163 15.0025 10.7375 14.9118 10.7968C14.896 10.807 14.8955 10.8364 14.9173 10.8399C15.3599 10.9133 15.7873 11.0595 16.1822 11.2725C16.2035 11.2908 16.2248 11.308 16.2456 11.3263C16.25 11.3308 16.2561 11.3334 16.2624 11.3335C16.2688 11.3336 16.2749 11.3312 16.2795 11.3268Z" fill="#F4EEE7"/>
<path d="M12.6945 4.69126C12.4703 4.37063 12.3387 3.99443 12.3141 3.60393C12.3141 3.57401 12.2634 3.5735 12.2675 3.60393L12.2675 3.61002C12.2647 3.61198 12.2625 3.61457 12.2609 3.61756C12.2593 3.62055 12.2584 3.62388 12.2584 3.62726C12.2513 3.87779 12.2218 4.13847 12.236 4.38799C12.2401 4.46 12.2761 4.47978 12.3344 4.51731C12.443 4.58679 12.5525 4.65424 12.6615 4.72321C12.6813 4.73538 12.7082 4.71104 12.6945 4.69126Z" fill="#F4EEE7"/>
<path d="M8.90891 6.00319C9.11511 5.97092 9.31726 5.91668 9.51191 5.84141C9.89126 5.68926 10.2376 5.46612 10.6063 5.29014C10.975 5.11415 11.3701 4.95998 11.7337 4.75712C11.8307 4.70426 11.925 4.64654 12.0162 4.58418C12.0502 4.56085 12.1024 4.53347 12.1177 4.48985C12.1379 4.43052 12.0847 4.37372 12.0325 4.39857C12.0286 4.39774 12.0246 4.39774 12.0208 4.39857C11.7038 4.45537 11.4061 4.58114 11.1079 4.70286C10.8016 4.8266 10.4963 4.9522 10.192 5.07967C9.59559 5.32953 9.00256 5.5875 8.41292 5.85358C8.40933 5.85562 8.40635 5.85857 8.40427 5.86213C8.4022 5.86569 8.40111 5.86974 8.40111 5.87387C8.40111 5.87799 8.4022 5.88204 8.40427 5.8856C8.40635 5.88917 8.40933 5.89212 8.41292 5.89415C8.49896 5.94046 8.58809 5.98079 8.67968 6.01486C8.75591 6.02959 8.83457 6.02559 8.90891 6.00319Z" fill="#F4EEE7"/>
<g style="mix-blend-mode:multiply" opacity="0.7">
<path d="M7.86608 19.7317C7.87126 19.7322 7.87647 19.7309 7.88075 19.7279C7.88503 19.7249 7.8881 19.7205 7.88941 19.7154C7.94164 19.5266 7.9756 19.3332 7.99084 19.1378C8.00149 19.0252 8.04916 18.8558 7.95736 18.764C7.90313 18.7214 7.84278 18.6872 7.77834 18.6626C7.69415 18.619 7.61081 18.5738 7.52832 18.5272C7.35031 18.4258 7.17686 18.3193 7.00646 18.2062C7.0042 18.2044 7.00155 18.2032 6.99872 18.2026C6.99589 18.2021 6.99298 18.2023 6.99023 18.2031C6.97603 18.192 6.96183 18.1803 6.94763 18.1697C6.9243 18.1509 6.89032 18.1838 6.91466 18.2026C7.15201 18.3887 7.39798 18.584 7.55672 18.8452C7.7261 19.1236 7.69365 19.4538 7.82145 19.7459C7.83413 19.7717 7.86709 19.7565 7.86608 19.7317Z" fill="#F4EEE7"/>
</g>
<path d="M15.5021 6.63672L15.7283 6.52261L16.6533 6.05603C16.6566 6.05461 16.6595 6.05229 16.6616 6.04933C16.6636 6.04638 16.6648 6.0429 16.665 6.0393C16.7035 6.02966 16.7421 6.02003 16.7811 6.0109C16.8105 6.0038 16.7979 5.96018 16.7685 5.96525C16.3986 6.0535 16.0295 6.14394 15.6613 6.23658C15.5711 6.25889 15.4808 6.28155 15.3905 6.30454C15.3327 6.31924 15.2435 6.32482 15.1927 6.36083C15.1324 6.40343 15.1628 6.48305 15.1927 6.54898C15.1882 6.54644 15.183 6.54544 15.1778 6.54615C15.1727 6.54686 15.1679 6.54923 15.1642 6.55291C15.1605 6.55659 15.1582 6.56136 15.1574 6.56651C15.1567 6.57167 15.1577 6.57691 15.1603 6.58144C15.1892 6.63216 15.2328 6.72699 15.2992 6.73359C15.3657 6.74018 15.4488 6.6636 15.5021 6.63672Z" fill="#F4EEE7"/>
<path d="M12.2509 0.705581L11.3507 0.0883788C11.4619 0.103593 11.5725 0.120498 11.6824 0.139094C11.9491 0.184738 12.2108 0.240524 12.4695 0.305439C12.4877 0.310511 12.505 0.314568 12.5202 0.319132C12.5253 0.319132 12.5303 0.319131 12.5349 0.323188C12.7229 0.372213 12.9088 0.426817 13.0928 0.486999L12.2509 0.705581Z" fill="#473539"/>
<g style="mix-blend-mode:multiply" opacity="0.7">
<path d="M14.6183 18.8697C14.6619 18.8469 14.706 18.8241 14.7491 18.8002C14.9773 18.6775 15.199 18.5467 15.416 18.4047C15.3546 18.428 15.2928 18.4503 15.2299 18.4716C13.9037 18.9174 12.5653 18.6856 11.2432 18.3499C10.8142 18.2407 10.3934 18.1016 9.98392 17.9335C10.5666 17.6761 11.1211 17.3593 11.6388 16.9882C11.6555 16.9768 11.6684 16.9607 11.676 16.9419C11.6835 16.9231 11.6852 16.9025 11.6808 16.8827C11.7316 16.8107 11.6758 16.6885 11.5764 16.7265C10.7655 17.037 9.93748 17.3009 9.09641 17.5166C8.98788 17.544 4.15473 15.8567 4.91343 12.3244C4.96668 12.0764 5.47383 11.7108 5.68886 11.5749L5.6919 11.5749L5.69698 11.5708C5.71422 11.5576 5.70205 11.5333 5.6848 11.5287C6.52329 11.0426 7.40638 10.6379 8.32199 10.3202C8.33091 10.3177 8.339 10.3129 8.34538 10.3062C8.35175 10.2995 8.35617 10.2912 8.35815 10.2821C8.36014 10.2731 8.35961 10.2637 8.35664 10.2549C8.35366 10.2462 8.34834 10.2384 8.34126 10.2324C8.51572 10.1817 8.70996 10.1082 8.75763 9.9748C8.8053 9.84142 8.75256 9.65327 8.7414 9.52293C8.72974 9.38295 8.71604 9.24247 8.70184 9.10301C8.70473 9.09577 8.70577 9.08793 8.70489 9.08018L8.66685 8.77589C8.65874 8.71199 8.55731 8.71098 8.56542 8.77589L8.56136 8.77589C8.56136 8.72011 8.47261 8.69881 8.46399 8.75967C8.43154 8.98963 8.38668 9.21768 8.3296 9.4428C8.2662 9.68724 8.22157 9.97632 7.99082 10.1168C7.60893 10.3496 7.17938 10.5225 6.77771 10.7254C5.91894 11.1541 5.05966 11.5833 4.19987 12.013C4.19713 12.0146 4.19458 12.0165 4.19226 12.0186C3.81492 11.5301 3.53607 10.9729 3.37118 10.378C2.89852 8.72721 2.41267 6.73157 4.48032 3.98078C4.8546 3.48327 2.48468 3.96607 2.59118 3.36003L2.60893 3.26367C1.97871 3.95434 1.44832 4.72986 1.03322 5.56766C0.987065 5.66047 0.942435 5.7548 0.89882 5.84963L0.886141 5.87702L0.879043 5.89274C0.297176 7.18393 -0.00246167 8.58442 0.000149432 10.0007C0.00014942 10.2948 0.0128276 10.5864 0.037171 10.874L0.037171 10.8836L0.0407216 10.9247C0.260612 13.3233 1.34153 15.5612 3.08363 17.2245C3.08667 17.2281 3.09073 17.2311 3.09377 17.2347L3.11862 17.2575L3.12521 17.2641L3.12978 17.2686C4.43752 18.5075 6.05661 19.3688 7.81484 19.7608C7.82295 19.7608 7.83157 19.7643 7.83969 19.7664C7.84734 19.7686 7.85513 19.7703 7.86302 19.7714C7.8762 19.775 7.8899 19.7775 7.90359 19.7806C7.91728 19.7836 7.92286 19.7851 7.933 19.7872C7.94315 19.7892 7.94467 19.7897 7.95025 19.7912C10.2127 20.2604 12.5678 19.9349 14.6183 18.8697ZM5.09245 11.8883C5.24764 11.7869 5.40333 11.691 5.56207 11.5972C5.49445 11.6428 5.42683 11.6896 5.35921 11.7377C5.27097 11.7904 5.18222 11.8396 5.09245 11.8883Z" fill="#F4EEE7"/>
</g>
<g style="mix-blend-mode:multiply" opacity="0.7">
<path d="M8.46478 8.75766C8.43207 8.98833 8.38686 9.21706 8.32937 9.44283C8.26598 9.68727 8.22135 9.97635 7.99059 10.1168C7.60871 10.3496 7.17915 10.5225 6.77749 10.7254C5.91871 11.1541 5.05943 11.5833 4.19964 12.0131C4.1969 12.0146 4.19435 12.0165 4.19203 12.0186C3.8147 11.5301 3.53584 10.9729 3.37095 10.378C3.22692 9.87441 3.08188 9.33937 3.00784 8.76071C2.96892 9.46279 3.05197 10.1663 3.25329 10.84C3.42928 11.4121 3.74067 11.905 3.98461 12.4452C4.19558 12.9128 3.84007 13.6451 4.09466 14.0838C6.15116 17.6313 9.37664 18.4453 10.6115 18.0781C11.1121 17.8407 11.1877 17.3123 11.639 16.9897C11.6558 16.9784 11.6687 16.9622 11.6762 16.9434C11.6837 16.9246 11.6854 16.904 11.6811 16.8842C11.7318 16.8122 11.6761 16.69 11.5767 16.728C10.7658 17.0386 9.93776 17.3024 9.09669 17.5182C8.98816 17.5456 4.15501 15.8583 4.91371 12.326C4.96696 12.078 5.47411 11.7123 5.68914 11.5764L5.69218 11.5764L5.69725 11.5724C5.7145 11.5592 5.70233 11.5348 5.68508 11.5303C6.52357 11.0442 7.40666 10.6395 8.32227 10.3217C8.33119 10.3193 8.33928 10.3144 8.34566 10.3077C8.35203 10.301 8.35645 10.2927 8.35843 10.2837C8.36042 10.2746 8.35989 10.2652 8.35692 10.2565C8.35394 10.2477 8.34862 10.2399 8.34154 10.234C8.516 10.1833 8.71024 10.1097 8.75791 9.97635C8.80558 9.84297 8.75284 9.65481 8.74168 9.52448C8.73002 9.3845 8.71633 9.24402 8.70213 9.10456C8.70501 9.09732 8.70605 9.08948 8.70517 9.08173L8.66713 8.77744C8.65902 8.71354 8.55759 8.71253 8.5657 8.77744L8.56164 8.77744C8.55962 8.71811 8.4734 8.69681 8.46478 8.75766ZM5.35797 11.7377C5.27074 11.7884 5.18199 11.8391 5.09222 11.8898C5.24741 11.7884 5.40311 11.6925 5.56185 11.5987C5.49287 11.645 5.42491 11.6914 5.35797 11.7377Z" fill="#F4EEE7"/>
</g>
<g style="mix-blend-mode:multiply" opacity="0.7">
<path d="M11.8887 14.1664L11.8887 14.1471C11.8963 14.1384 11.9004 14.1272 11.9004 14.1157C11.9004 13.6187 11.899 13.1213 11.8963 12.6237C11.8963 12.4847 11.9333 12.2889 11.8644 12.1576C11.7954 12.0262 11.6367 11.9365 11.5094 11.8533L11.4845 11.7838C11.4637 11.7285 11.3831 11.7463 11.3831 11.796C11.3762 11.8014 11.3707 11.8082 11.3669 11.816C11.3631 11.8238 11.3611 11.8324 11.3611 11.8411C11.3611 11.8498 11.3631 11.8584 11.3669 11.8662C11.3707 11.8741 11.3762 11.8809 11.3831 11.8863L11.4272 11.9208C11.6841 12.6418 11.8066 13.4038 11.7888 14.169C11.7911 14.1807 11.7975 14.1912 11.8069 14.1986C11.8162 14.2061 11.8279 14.21 11.8398 14.2097C11.8518 14.2094 11.8632 14.2049 11.8722 14.197C11.8811 14.1891 11.887 14.1782 11.8887 14.1664Z" fill="#F4EEE7"/>
</g>
<path d="M8.3328 10.2299C8.40076 8.82761 8.60869 7.44308 8.59398 6.03067C8.51588 7.42178 8.37997 8.80884 8.28564 10.1989C7.04768 10.7918 5.81936 11.376 4.66255 12.119C3.52349 11.4552 2.37175 10.8136 1.24385 10.131C1.32702 8.79261 1.41881 7.45475 1.45229 6.11384C2.66539 5.46063 3.86734 4.78916 5.049 4.08017C6.35441 4.53965 7.49651 5.19032 8.59398 6.03016L8.59398 5.99162C7.75009 5.16902 6.30521 4.47574 5.30004 4.12226C4.29487 3.76878 5.5597 4.21405 5.01147 4.02083C3.89574 4.7633 2.68111 5.38608 1.49793 6.03523C1.47561 6.07175 1.44721 6.0753 1.40664 6.09812C1.39194 7.45475 1.22762 8.8134 1.23472 10.1817C2.19577 10.7746 3.57065 11.5414 4.44295 12.05C4.69197 12.1951 4.15185 11.9456 4.6306 12.2245C5.794 11.4486 7.09079 10.8415 8.3328 10.2299Z" fill="#473539"/>
<path d="M4.47506 16.5417C4.46542 15.0537 4.59931 13.6002 4.6343 12.1234C5.79162 11.3596 7.17006 10.7947 8.37505 10.1389C8.86851 10.4701 8.73868 10.2348 8.7047 10.2911C9.60286 10.8941 10.8276 11.8409 11.8582 12.4688C11.9652 13.9395 11.8713 15.3255 11.7268 16.773C10.4549 17.4262 9.15403 18.0611 7.92622 18.7727C7.41197 18.4841 8.60022 19.1424 7.65692 18.6251C6.71362 18.1078 5.45031 17.2334 4.47506 16.5417ZM4.67792 12.1503C4.61909 13.5967 4.55316 15.0427 4.48013 16.4884C5.63491 17.2963 6.64516 18.0246 7.89376 18.7006C9.15606 18.0474 10.4087 17.378 11.6807 16.7395C11.8475 15.3291 11.8724 13.94 11.8511 12.5215C10.6532 11.7801 9.46982 11.0158 8.301 10.2287C7.06153 10.8231 5.83473 11.4073 4.67792 12.1503Z" fill="#473539"/>
<path d="M8.29387 10.2166C8.38871 8.81688 8.52463 7.4207 8.60324 6.02046C9.80873 5.42962 11.0345 4.8819 12.2415 4.29614C13.3628 5.04774 14.4801 5.80593 15.6055 6.55195C15.5213 7.90756 15.4604 9.2647 15.3803 10.6203C14.1875 11.2172 13.0215 11.8573 11.8668 12.5247C10.6607 11.7778 9.46979 11.0085 8.29387 10.2166Z" fill="#473539"/>
<path d="M15.2815 7.11536C15.287 6.98925 15.2613 6.86374 15.2065 6.75002C15.1517 6.6363 15.0696 6.53792 14.9676 6.46367C14.2327 5.93116 12.6468 4.96301 12.5905 4.94221C12.0043 4.72515 10.9337 5.48994 10.9464 6.11221C10.959 6.312 11.0408 6.50117 11.1776 6.64726C11.486 7.00226 11.9383 7.19549 12.2675 7.52361C12.8609 8.11241 13.2534 8.8204 13.7747 9.46093C13.8939 9.60699 15.0705 10.7582 15.1197 10.2054C15.1709 9.63336 15.2485 7.89434 15.2815 7.11536Z" fill="#635458"/>
<path d="M15.3783 10.6199L15.3809 10.5691C14.7677 10.7674 14.2144 10.7213 13.583 10.6762C12.6194 10.6052 10.5868 9.59998 10.2591 8.95792C9.88791 8.22966 9.76873 5.75729 9.9224 5.39062C9.48067 5.59754 9.03944 5.80649 8.60127 6.02152C8.52266 7.42176 8.38674 8.81795 8.2919 10.2177C9.46951 11.0085 10.6605 11.7777 11.8648 12.5252C13.0211 11.8568 14.187 11.2168 15.3783 10.6199Z" fill="#332226"/>
<path d="M1.43754 6.11674C1.26848 6.01869 1.10129 5.92098 0.935962 5.82361C0.966729 5.73807 0.999019 5.6527 1.03283 5.56749C1.91583 3.78738 3.30671 2.30897 5.02969 1.31909C5.0236 2.23653 5.0236 3.15295 5.05859 4.06988C3.86628 4.78293 2.65875 5.45947 1.43754 6.11674Z" fill="#473539"/>
<path d="M3.1153 17.2509L3.09552 17.2322L3.08538 17.2225C1.34325 15.559 0.262333 13.3209 0.0424709 10.9222L0.0389237 10.8816L0.0389237 10.8715L0.0338502 10.8055C0.430442 10.5885 0.826527 10.3714 1.21957 10.1462C2.35559 10.8339 3.51493 11.4811 4.66211 12.15C4.60362 13.6038 4.53752 15.0585 4.46381 16.514C4.01194 16.759 3.56768 17.011 3.1153 17.2509Z" fill="#332226"/>
<path d="M9.99954 19.9986C9.31171 19.9991 8.62565 19.9289 7.95217 19.7892C7.94659 19.7892 7.94051 19.7892 7.93493 19.7851C7.92935 19.781 7.91515 19.781 7.90552 19.7785C7.88371 19.7739 7.86241 19.7694 7.84161 19.7643C7.81727 19.494 7.84871 19.141 7.87001 18.7358C8.92692 18.185 10.5042 17.3771 11.4581 16.9004C11.8466 16.6788 11.5884 16.799 11.5382 16.8228L11.7127 16.7356C11.9298 16.9131 12.1524 17.0877 12.3806 17.2595C12.8061 17.5825 13.2458 17.897 13.685 18.2084L13.6992 18.218C13.9928 18.4259 14.2865 18.6323 14.5745 18.8382L14.6182 18.8697C14.61 18.8737 14.6019 18.8783 14.5938 18.8819C13.1746 19.6184 11.5985 20.0014 9.99954 19.9986Z" fill="#332226"/>
<path d="M18.7264 14.8687C18.7538 14.2454 18.7771 13.6226 18.803 12.9998C19.0941 12.8473 19.3847 12.6938 19.6748 12.5393L19.6667 12.5702C19.4593 13.3514 19.1573 14.1044 18.7675 14.8124L18.7264 14.8687Z" fill="#473539"/>
<path d="M14.6182 18.8697L14.574 18.8387C14.2806 18.6359 13.9888 18.4291 13.6987 18.2185L13.6845 18.2089C13.2483 17.8944 12.8147 17.5764 12.3801 17.26C12.157 17.0977 11.9333 16.9354 11.7086 16.7751C11.7 16.7792 11.6914 16.7833 11.6823 16.7883C12.655 17.4841 13.6094 18.2023 14.5938 18.8819C14.6024 18.8778 14.6106 18.8732 14.6182 18.8697Z" fill="#473539"/>
<path d="M7.86946 18.6819C6.81915 18.1089 5.54418 17.2325 4.67745 16.6194C4.59783 16.5626 4.53495 16.5179 4.48525 16.4839C4.4817 16.4839 4.47713 16.4784 4.47206 16.4748C4.46699 16.4713 4.46242 16.4682 4.45735 16.4642C4.45228 16.4601 4.45735 16.4642 4.45431 16.4642L4.42489 16.4424C4.37418 16.4099 4.35034 16.3916 4.33868 16.384L4.42236 16.4444C4.01968 16.7563 3.5318 16.9678 3.08551 17.2244C3.08297 17.2244 3.08094 17.2269 3.07841 17.2279C3.08449 17.235 3.09971 17.2492 3.10529 17.2548L3.11188 17.2619C3.11489 17.2607 3.11778 17.2591 3.1205 17.2573C3.56984 17.0185 4.01207 16.7685 4.45938 16.5255C5.61061 17.3441 6.61934 18.0627 7.86997 18.7377C7.85121 19.079 7.83447 19.4193 7.81672 19.7606C7.82483 19.7606 7.83346 19.7642 7.84157 19.7662C7.84922 19.7684 7.85701 19.7701 7.8649 19.7713C7.86591 19.4031 7.93894 19.0664 7.86946 18.6819Z" fill="#473539"/>
<path d="M1.2534 10.1709C1.33759 8.81884 1.42989 7.45663 1.46387 6.10254C1.44865 6.10761 1.43293 6.12282 1.4167 6.12536C1.38323 7.46627 1.29093 8.80413 1.20725 10.1425C0.8137 10.3672 0.416093 10.5852 0.0179794 10.8018L0.0179794 10.8145L0.0215298 10.8535C0.434858 10.6289 0.846156 10.4037 1.2534 10.1709Z" fill="#473539"/>
<path d="M12.2596 4.30429C12.3915 3.01318 12.3873 1.71176 12.2469 0.421541L12.1749 0.391113L12.1581 0.435235L12.2013 0.453492C12.3473 1.75231 12.3382 2.97352 12.2165 4.27589C11.0171 4.8586 9.7999 5.40024 8.60252 5.98803C7.53514 5.14769 6.33541 4.49076 5.05246 4.04412L5.04789 3.9503C5.03826 3.9574 5.02457 3.96855 5.01645 3.97413C5.01125 3.97879 5.00498 3.9821 4.99819 3.98377C5.02304 4.03956 4.89321 4.01014 4.96067 4.08114C6.10429 4.3474 7.55271 5.20042 8.38393 5.88305C9.23138 6.52409 8.16535 5.71822 8.62787 6.06816C9.79736 5.41191 11.0617 4.91236 12.2596 4.30429Z" fill="#473539"/>
<path d="M19.6678 12.5735C19.6727 12.562 19.6764 12.5501 19.679 12.538L19.6855 12.5126C19.3924 12.6683 19.0998 12.824 18.8051 12.9766C17.5966 12.291 16.5265 11.4045 15.394 10.6042C15.4737 9.2572 15.534 7.90919 15.6177 6.56271C16.636 6.05099 17.6701 5.57275 18.7052 5.09654L18.6839 5.05444C17.6392 5.53319 16.6011 6.02547 15.5695 6.53127C15.5137 7.9097 15.2272 9.18975 15.2343 10.5809C16.2029 11.2665 17.6519 12.3701 18.5734 12.9011C19.4949 13.4321 18.3249 12.7525 18.8432 13.0558C19.0744 12.8468 19.396 12.7378 19.6678 12.5735Z" fill="#473539"/>
<path d="M1.59943 4.77542C1.61465 4.68819 1.62885 4.59741 1.64355 4.50562C1.41927 4.84689 1.21603 5.20154 1.03497 5.56759C1.00116 5.65279 0.968876 5.73816 0.938109 5.8237C1.10547 5.92107 1.27266 6.01879 1.43968 6.11683L1.45439 6.10872C1.51981 5.6675 1.52285 5.21613 1.59943 4.77542Z" fill="#332226"/>
<path d="M18.7045 5.0943L18.6898 5.06489C17.6547 5.5406 16.6211 6.02036 15.6027 6.53157C14.487 5.79062 13.3758 5.0375 12.2621 4.29047C12.3803 2.98557 12.3955 1.7608 12.2479 0.459452L12.3336 0.398087C12.3291 0.390987 12.324 0.384901 12.3199 0.377801L12.3073 0.361572C12.2708 0.387437 12.2342 0.412288 12.1957 0.436631C12.3768 1.8176 12.2824 2.95007 12.2515 4.34169C13.2054 4.9807 14.5286 5.87582 15.3857 6.44434L15.6322 6.60815C16.6104 6.03963 17.6836 5.60298 18.7085 5.10698C18.7101 5.1014 18.7075 5.1009 18.7045 5.0943Z" fill="#473539"/>
<g style="mix-blend-mode:overlay" opacity="0.3">
<path d="M18.4347 11.8926C19.4364 11.2288 19.3451 9.85643 19.1016 8.82793C18.8574 7.79404 18.4463 6.80687 17.8845 5.90522C17.858 5.86242 17.8179 5.82976 17.7706 5.81247C17.7234 5.79519 17.6717 5.79427 17.6238 5.80987C17.033 6.00208 16.4426 6.19683 15.8914 6.48793C15.8594 6.50517 16.9011 5.79314 17.3535 5.45182C17.4422 5.38539 17.744 5.21498 17.7648 5.09175C17.7942 4.91729 17.2749 4.38782 17.1532 4.24075C16.1754 3.05553 14.8061 2.01233 13.3196 1.57313C11.8448 1.13749 10.0657 0.945787 8.60768 1.54676C8.2192 1.70702 8.28614 2.17867 8.347 2.53215C8.36668 2.66996 8.411 2.8031 8.47785 2.9252C8.72889 3.3507 9.29892 3.68136 9.64835 4.03282C10.0378 4.42434 10.3959 4.85237 10.6627 5.33923C10.9091 5.79161 10.9857 6.36571 11.3727 6.72934C11.7703 7.1026 12.387 7.22229 12.8733 7.4358C13.8577 7.86738 14.7498 8.46582 15.3928 9.33812C15.6784 9.72355 15.9132 10.0953 16.0755 10.5492C16.2378 11.0031 16.3661 11.4849 16.7307 11.814C17.1948 12.2334 17.9225 12.2324 18.4347 11.8926Z" fill="white"/>
</g>
<g style="mix-blend-mode:multiply" opacity="0.7">
<path d="M10.0853 11.3516L9.92761 11.2623C9.92747 11.2584 9.92644 11.2546 9.92459 11.2512C9.92275 11.2478 9.92014 11.2448 9.91696 11.2425C9.53305 10.953 9.14558 10.6669 8.74595 10.3986C8.61206 10.3089 8.47412 10.1846 8.30321 10.2358C8.15747 10.2852 8.01629 10.3472 7.88126 10.421C7.83054 10.4412 8.17642 10.3555 8.33769 10.4377C8.52483 10.532 8.70639 10.6406 8.88998 10.7445L10.0564 11.3937C10.0884 11.4109 10.1137 11.3673 10.0853 11.3516Z" fill="#F4EEE7"/>
</g>
<path opacity="0.5" d="M16.5118 5.59087C16.5868 5.52747 16.6365 5.44988 16.6081 5.34338C16.5835 5.27011 16.544 5.20276 16.492 5.14559C16.2313 4.81695 16.0031 4.50658 15.6364 4.28952C15.4883 4.19924 15.2515 4.04 15.0684 4.11404C14.8853 4.18809 14.8255 4.44775 14.7641 4.60598C14.6754 4.84079 14.7484 4.8839 14.9254 5.04213C15.1647 5.26118 15.3758 5.50923 15.5537 5.78054C15.5963 5.84891 15.661 5.90058 15.7371 5.9269C15.8132 5.95322 15.896 5.95257 15.9716 5.92508C16.0586 5.88903 16.1396 5.84013 16.212 5.78003C16.2917 5.72171 16.421 5.66643 16.5118 5.59087Z" fill="white"/>
<path opacity="0.5" d="M17.5439 7.32778L17.5439 7.28365C17.5409 6.92358 17.3218 6.29978 16.9151 6.33731C16.7041 6.35658 16.2598 6.55184 16.2867 6.81758C16.3024 6.96973 16.5839 7.19085 16.6782 7.31763C16.8086 7.4926 16.9536 7.92165 17.1661 7.99671C17.4785 8.10625 17.5389 7.5636 17.5439 7.32778Z" fill="white"/>
<path d="M19.167 5.99817C19.0346 5.91195 18.1172 5.36524 18.1172 5.36524C18.1172 5.36524 18.1978 4.61415 18.2648 4.36768C18.4112 4.58203 18.5495 4.80264 18.6796 5.02951L18.6857 5.03965L18.7029 5.07008C18.7048 5.07374 18.7068 5.07729 18.709 5.08073C18.8775 5.37838 19.0304 5.68461 19.167 5.99817Z" fill="#473539"/>
</g>
<defs>
<clipPath id="clip0_1295_45686">
<rect width="20" height="19.9995" fill="white" transform="translate(0 0.000244141)"/>
</clipPath>
</defs>
</svg>
