<svg width="21" height="20" viewBox="0 0 21 20" fill="none" xmlns="http://www.w3.org/2000/svg">
<g clip-path="url(#clip0_1301_10759)">
<path d="M14.1355 19.4671C14.1355 19.7616 12.2644 20 9.95595 20C7.64751 20 5.77637 19.7616 5.77637 19.4671C6.03269 19.233 7.64751 18.9341 9.95595 18.9341C12.2644 18.9341 13.9089 19.2187 14.1355 19.4671Z" fill="#9F5E10"/>
<path d="M14.1355 19.4671C14.017 19.4433 13.898 19.4205 13.7795 19.3992C11.855 19.0458 9.89083 18.9608 7.94301 19.1468C7.59562 19.1799 7.24856 19.2217 6.90183 19.2723C6.52535 19.3275 6.1502 19.3924 5.77637 19.4671C5.8314 19.3288 5.88693 19.19 5.94345 19.0516C7.7779 17.7992 9.25637 15.4259 9.24299 12.6236C9.5365 12.6153 9.83018 12.612 10.124 12.6137L10.3486 12.6167L10.6684 12.6236C10.655 15.4244 12.133 17.7983 13.9655 19.0511C14.0233 19.1896 14.08 19.3283 14.1355 19.4671Z" fill="#FFCA10"/>
<path d="M9.97129 12.7302C9.96534 12.7678 9.96038 12.8065 9.95443 12.8442C9.55531 15.5473 8.96581 17.8651 8.03768 18.7893C8.00644 18.9083 7.9757 19.0268 7.94645 19.1463C7.59906 19.1793 7.252 19.2212 6.90527 19.2717C6.93948 19.1478 6.97568 19.0238 7.01336 18.8994C8.35201 17.7348 9.35204 15.4432 9.74025 12.6855C9.80619 12.6974 9.87213 12.7098 9.93857 12.7232L9.97129 12.7302Z" fill="#FEE79B"/>
<path d="M13.7801 19.3991C13.0803 19.2703 12.3744 19.1771 11.6651 19.12C11.6373 19.0263 11.609 18.9336 11.5798 18.8404C10.6209 17.9906 10.3229 15.525 9.95158 12.8447C9.94612 12.8045 9.94017 12.7639 9.93522 12.7237C9.93125 12.6999 9.92828 12.6741 9.9248 12.6523C9.99124 12.6389 10.0582 12.626 10.1231 12.6136C10.1881 12.6012 10.2694 12.5873 10.3423 12.575C10.3423 12.5888 10.3457 12.6027 10.3477 12.6166C10.7206 15.3638 11.792 17.7501 13.6106 18.994C13.6701 19.1289 13.7256 19.2633 13.7801 19.3991Z" fill="#FFA200"/>
<path fill-rule="evenodd" clip-rule="evenodd" d="M3.78399 8.61262C2.06158 7.06226 0.725905 4.86141 0.382812 2.1722C6.70162 0.898002 13.2112 0.898002 19.53 2.1722C19.1874 4.86141 17.8513 7.06226 16.1294 8.61262C14.3906 10.1595 12.2656 11.0559 9.95667 11.0609C7.64774 11.0559 5.52275 10.1595 3.78399 8.61262ZM1.62207 3.2786C2.76241 7.3734 6.23547 9.99865 9.95693 10.0215C13.6784 9.99865 17.1515 7.3734 18.2913 3.2786C12.7902 2.1695 7.12313 2.1695 1.62207 3.2786Z" fill="#FFCA10"/>
<path d="M16.9186 0.695225C12.3237 -0.231416 7.59003 -0.231416 2.99512 0.695225C3.44134 4.20696 4.57324 7.22588 5.82117 9.3945C7.09091 11.5587 8.47815 12.8715 9.95761 12.873C11.4371 12.8745 12.8238 11.5587 14.0936 9.3945C15.3405 7.22588 16.4709 4.20696 16.9186 0.695225Z" fill="#FFCA10"/>
<path d="M11.9194 0.90918C12.0835 3.14027 12.1108 5.98863 11.7498 8.28269C11.4489 10.1955 10.6804 12.4474 9.95703 12.8728C11.4137 12.5946 12.8029 10.9119 13.9452 8.68577C15.0697 6.49534 15.7103 4.10162 16.1857 1.60032C14.8753 1.13824 13.2154 0.934465 11.9194 0.90918Z" fill="#FFA200"/>
<path d="M5.78681 0.93457C5.31977 0.989108 4.85405 1.06116 4.38965 1.15074C4.84677 4.51275 5.91324 6.94463 6.90929 9.10483C7.95047 11.2586 8.86918 12.6676 9.95696 12.8729C9.07891 12.7068 8.37686 11.2804 7.59151 9.06863C6.84782 6.85341 6.0704 4.32583 5.78681 0.93457Z" fill="#FEE79B"/>
</g>
<defs>
<clipPath id="clip0_1301_10759">
<rect width="19.1472" height="20" fill="white" transform="translate(0.382812)"/>
</clipPath>
</defs>
</svg>
